<svg width="885" height="240" viewBox="0 0 885 240" fill="none" xmlns="http://www.w3.org/2000/svg">
<path d="M319.571 71.6854C296 71.6854 276.5 81.7505 262.993 98.4189V18.1482C262.993 8.43331 255.119 0.549316 245.394 0.549316C235.679 0.549316 227.795 8.42331 227.795 18.1482V235.679H262.983V212.767C276.49 229.395 296 239.45 319.561 239.45C364.484 239.45 398.391 203.322 398.391 155.568C398.391 107.814 364.474 71.6854 319.561 71.6854M312.628 205.543C284.384 205.543 262.983 183.862 262.983 155.568C262.983 127.274 284.374 105.643 312.628 105.643C340.882 105.643 361.983 127.324 361.983 155.568C361.983 183.812 340.922 205.543 312.628 205.543Z" fill="#DEFFF7"/>
<path d="M498.303 71.6841C449.328 71.6841 412.529 107.822 412.529 155.567C412.529 203.311 449.328 239.449 498.303 239.449C547.278 239.449 584.076 203.321 584.076 155.567C584.076 107.812 546.997 71.6841 498.303 71.6841ZM498.303 205.542C470.058 205.542 448.658 183.861 448.658 155.567C448.658 127.272 470.048 105.641 498.303 105.641C526.557 105.641 547.608 127.322 547.608 155.567C547.608 183.811 526.587 205.542 498.303 205.542Z" fill="#DEFFF7"/>
<path d="M882.168 201.761C872.773 201.761 867.431 196.098 867.431 186.974V18.1482C867.431 8.43331 859.557 0.549316 849.832 0.549316C840.117 0.549316 832.233 8.42331 832.233 18.1482V98.4189C819.006 81.7505 799.546 71.6854 775.984 71.6854C730.731 71.6854 697.154 107.824 697.154 155.568C697.154 203.312 730.731 239.45 775.984 239.45C800.497 239.45 820.897 228.445 834.404 210.256C839.126 226.884 852.963 235.669 874.934 235.669H885V201.751H882.168V201.761ZM782.928 205.543C754.303 205.543 733.283 183.862 733.283 155.568C733.283 127.274 754.303 105.643 782.928 105.643C811.552 105.643 832.233 127.324 832.233 155.568C832.233 183.812 811.172 205.543 782.928 205.543Z" fill="#DEFFF7"/>
<path d="M166.745 112.716L129.866 19.2288C125.424 7.95307 114.538 0.549316 102.412 0.549316C90.3058 0.549316 79.4303 7.94307 74.978 19.1988L20.9606 155.578H60.4506L102.312 46.9929L127.255 112.716L143.263 154.958H118.61C116.009 154.958 113.417 155.058 110.836 155.218L110.926 155.188L101.581 105.643L87.9146 158.73C48.5046 168.504 15.3678 196.749 0 235.669H40.2504C50.8358 207.874 77.4793 189.525 107.204 189.525H156.479L174.038 235.669H215.229L166.745 112.716Z" fill="#DEFFF7"/>
<path d="M693.393 75.457H634.023C614.593 75.457 598.835 91.215 598.835 110.645V235.668H634.023V110.645H693.393V75.457Z" fill="#DEFFF7"/>
</svg>
