<svg width="885" height="240" viewBox="0 0 885 240" fill="none" xmlns="http://www.w3.org/2000/svg">
<path d="M319.571 71.7835C296 71.7835 276.5 81.8486 262.993 98.5171V18.2464C262.993 8.53146 255.119 0.647461 245.394 0.647461C235.679 0.647461 227.795 8.52145 227.795 18.2464V235.777H262.983V212.865C276.49 229.494 296 239.549 319.561 239.549C364.484 239.549 398.391 203.42 398.391 155.666C398.391 107.912 364.474 71.7835 319.561 71.7835M312.628 205.641C284.384 205.641 262.983 183.96 262.983 155.666C262.983 127.372 284.374 105.741 312.628 105.741C340.882 105.741 361.983 127.422 361.983 155.666C361.983 183.91 340.922 205.641 312.628 205.641Z" fill="#1A1528"/>
<path d="M498.303 71.7822C449.328 71.7822 412.529 107.921 412.529 155.665C412.529 203.409 449.328 239.547 498.303 239.547C547.278 239.547 584.076 203.419 584.076 155.665C584.076 107.911 546.997 71.7822 498.303 71.7822ZM498.303 205.64C470.058 205.64 448.658 183.959 448.658 155.665C448.658 127.37 470.048 105.739 498.303 105.739C526.557 105.739 547.608 127.42 547.608 155.665C547.608 183.909 526.587 205.64 498.303 205.64Z" fill="#1A1528"/>
<path d="M882.168 201.859C872.773 201.859 867.431 196.197 867.431 187.072V18.2464C867.431 8.53146 859.557 0.647461 849.832 0.647461C840.117 0.647461 832.233 8.52145 832.233 18.2464V98.5171C819.006 81.8486 799.546 71.7835 775.984 71.7835C730.731 71.7835 697.154 107.922 697.154 155.666C697.154 203.41 730.731 239.549 775.984 239.549C800.497 239.549 820.897 228.543 834.404 210.354C839.126 226.982 852.963 235.767 874.934 235.767H885V201.85H882.168V201.859ZM782.928 205.641C754.303 205.641 733.283 183.96 733.283 155.666C733.283 127.372 754.303 105.741 782.928 105.741C811.552 105.741 832.233 127.422 832.233 155.666C832.233 183.91 811.172 205.641 782.928 205.641Z" fill="#1A1528"/>
<path d="M166.745 112.814L129.866 19.3269C125.424 8.05122 114.538 0.647461 102.412 0.647461C90.3058 0.647461 79.4303 8.04121 74.978 19.2969L20.9606 155.676H60.4506L102.312 47.091L127.255 112.814L143.263 155.056H118.61C116.009 155.056 113.417 155.156 110.836 155.316L110.926 155.286L101.581 105.741L87.9146 158.828C48.5046 168.603 15.3678 196.847 0 235.767H40.2504C50.8358 207.973 77.4793 189.623 107.204 189.623H156.479L174.038 235.767H215.229L166.745 112.814Z" fill="#1A1528"/>
<path d="M693.393 75.5552H634.023C614.593 75.5552 598.835 91.3132 598.835 110.743V235.766H634.023V110.743H693.393V75.5552Z" fill="#1A1528"/>
</svg>
