<svg width="885" height="240" viewBox="0 0 885 240" fill="none" xmlns="http://www.w3.org/2000/svg">
<path d="M319.57 71.5869C295.998 71.5869 276.498 81.6521 262.991 98.3205V18.0497C262.991 8.3347 255.117 0.450684 245.392 0.450684C235.677 0.450684 227.793 8.3247 227.793 18.0497V235.58H262.981V212.669C276.488 229.297 295.998 239.352 319.56 239.352C364.483 239.352 398.39 203.224 398.39 155.47C398.39 107.715 364.473 71.5869 319.56 71.5869M312.626 205.445C284.382 205.445 262.981 183.764 262.981 155.47C262.981 127.175 284.372 105.544 312.626 105.544C340.881 105.544 361.981 127.225 361.981 155.47C361.981 183.714 340.921 205.445 312.626 205.445Z" fill="#FF5681"/>
<path d="M498.302 71.5854C449.327 71.5854 412.528 107.724 412.528 155.468C412.528 203.213 449.327 239.351 498.302 239.351C547.277 239.351 584.076 203.223 584.076 155.468C584.076 107.714 546.997 71.5854 498.302 71.5854ZM498.302 205.444C470.058 205.444 448.657 183.763 448.657 155.468C448.657 127.174 470.048 105.543 498.302 105.543C526.556 105.543 547.607 127.224 547.607 155.468C547.607 183.713 526.586 205.444 498.302 205.444Z" fill="#FF5681"/>
<path d="M882.169 201.663C872.774 201.663 867.431 196 867.431 186.876V18.0497C867.431 8.3347 859.557 0.450684 849.832 0.450684C840.117 0.450684 832.233 8.3247 832.233 18.0497V98.3205C819.006 81.6521 799.546 71.5869 775.984 71.5869C730.731 71.5869 697.154 107.725 697.154 155.47C697.154 203.214 730.731 239.352 775.984 239.352C800.497 239.352 820.897 228.347 834.404 210.158C839.127 226.786 852.964 235.57 874.935 235.57H885V201.653H882.169V201.663ZM782.928 205.445C754.303 205.445 733.283 183.764 733.283 155.47C733.283 127.175 754.303 105.544 782.928 105.544C811.553 105.544 832.233 127.225 832.233 155.47C832.233 183.714 811.172 205.445 782.928 205.445Z" fill="#FF5681"/>
<path d="M166.745 112.618L129.866 19.1302C125.424 7.85446 114.538 0.450684 102.412 0.450684C90.306 0.450684 79.4305 7.84445 74.9782 19.1002L20.9607 155.48H60.4508L102.312 46.8943L127.255 112.618L143.263 154.859H118.61C116.009 154.859 113.418 154.959 110.836 155.119L110.927 155.089L101.582 105.544L87.9148 158.631C48.5047 168.406 15.3678 196.651 0 235.57H40.2505C50.8359 207.776 77.4795 189.427 107.205 189.427H156.48L174.039 235.57H215.23L166.745 112.618Z" fill="#FF5681"/>
<path d="M693.394 75.3584H634.024C614.594 75.3584 598.836 91.1164 598.836 110.546V235.57H634.024V110.546H693.394V75.3584Z" fill="#FF5681"/>
</svg>
