<svg width="885" height="240" viewBox="0 0 885 240" fill="none" xmlns="http://www.w3.org/2000/svg">
<path d="M319.572 71.7837C296 71.7837 276.5 81.8488 262.993 98.5173V18.2464C262.993 8.53148 255.119 0.647461 245.394 0.647461C235.679 0.647461 227.795 8.52147 227.795 18.2464V235.777H262.983V212.866C276.49 229.494 296 239.549 319.562 239.549C364.485 239.549 398.392 203.421 398.392 155.666C398.392 107.912 364.475 71.7837 319.562 71.7837M312.628 205.642C284.384 205.642 262.983 183.961 262.983 155.666C262.983 127.372 284.374 105.741 312.628 105.741C340.883 105.741 361.983 127.422 361.983 155.666C361.983 183.911 340.923 205.642 312.628 205.642Z" fill="#25D1A3"/>
<path d="M498.304 71.7822C449.329 71.7822 412.53 107.921 412.53 155.665C412.53 203.409 449.329 239.548 498.304 239.548C547.279 239.548 584.078 203.419 584.078 155.665C584.078 107.911 546.999 71.7822 498.304 71.7822ZM498.304 205.64C470.06 205.64 448.659 183.959 448.659 155.665C448.659 127.371 470.05 105.74 498.304 105.74C526.558 105.74 547.609 127.421 547.609 155.665C547.609 183.909 526.588 205.64 498.304 205.64Z" fill="#25D1A3"/>
<path d="M882.169 201.86C872.774 201.86 867.431 196.197 867.431 187.072V18.2464C867.431 8.53148 859.557 0.647461 849.832 0.647461C840.117 0.647461 832.233 8.52147 832.233 18.2464V98.5173C819.006 81.8488 799.546 71.7837 775.984 71.7837C730.731 71.7837 697.154 107.922 697.154 155.666C697.154 203.411 730.731 239.549 775.984 239.549C800.497 239.549 820.897 228.544 834.404 210.354C839.127 226.983 852.964 235.767 874.935 235.767H885V201.85H882.169V201.86ZM782.928 205.642C754.303 205.642 733.283 183.961 733.283 155.666C733.283 127.372 754.303 105.741 782.928 105.741C811.553 105.741 832.233 127.422 832.233 155.666C832.233 183.911 811.172 205.642 782.928 205.642Z" fill="#25D1A3"/>
<path d="M166.745 112.815L129.866 19.327C125.424 8.05123 114.538 0.647461 102.412 0.647461C90.306 0.647461 79.4305 8.04123 74.9782 19.297L20.9607 155.676H60.4508L102.312 47.0911L127.255 112.815L143.263 155.056H118.61C116.009 155.056 113.418 155.156 110.836 155.316L110.927 155.286L101.582 105.741L87.9148 158.828C48.5047 168.603 15.3678 196.847 0 235.767H40.2505C50.8359 207.973 77.4795 189.624 107.205 189.624H156.48L174.039 235.767H215.23L166.745 112.815Z" fill="#25D1A3"/>
<path d="M693.394 75.5552H634.024C614.594 75.5552 598.836 91.3132 598.836 110.743V235.767H634.024V110.743H693.394V75.5552Z" fill="#25D1A3"/>
</svg>
