<svg width="885" height="240" viewBox="0 0 885 240" fill="none" xmlns="http://www.w3.org/2000/svg">
<path d="M319.57 71.6856C295.998 71.6856 276.498 81.7507 262.991 98.4192V18.1483C262.991 8.43333 255.117 0.549316 245.392 0.549316C235.677 0.549316 227.793 8.42333 227.793 18.1483V235.679H262.981V212.767C276.488 229.396 295.998 239.451 319.56 239.451C364.483 239.451 398.39 203.323 398.39 155.568C398.39 107.814 364.473 71.6856 319.56 71.6856M312.626 205.544C284.382 205.544 262.981 183.863 262.981 155.568C262.981 127.274 284.372 105.643 312.626 105.643C340.881 105.643 361.981 127.324 361.981 155.568C361.981 183.813 340.921 205.544 312.626 205.544Z" fill="#01FFBE"/>
<path d="M498.302 71.6841C449.327 71.6841 412.528 107.822 412.528 155.567C412.528 203.311 449.327 239.45 498.302 239.45C547.277 239.45 584.076 203.321 584.076 155.567C584.076 107.812 546.997 71.6841 498.302 71.6841ZM498.302 205.542C470.058 205.542 448.657 183.861 448.657 155.567C448.657 127.272 470.048 105.641 498.302 105.641C526.556 105.641 547.607 127.322 547.607 155.567C547.607 183.811 526.586 205.542 498.302 205.542Z" fill="#01FFBE"/>
<path d="M882.169 201.762C872.774 201.762 867.431 196.099 867.431 186.974V18.1483C867.431 8.43333 859.557 0.549316 849.832 0.549316C840.117 0.549316 832.233 8.42333 832.233 18.1483V98.4192C819.006 81.7507 799.546 71.6856 775.984 71.6856C730.731 71.6856 697.154 107.824 697.154 155.568C697.154 203.313 730.731 239.451 775.984 239.451C800.497 239.451 820.897 228.445 834.404 210.256C839.127 226.885 852.964 235.669 874.935 235.669H885V201.752H882.169V201.762ZM782.928 205.544C754.303 205.544 733.283 183.863 733.283 155.568C733.283 127.274 754.303 105.643 782.928 105.643C811.553 105.643 832.233 127.324 832.233 155.568C832.233 183.813 811.172 205.544 782.928 205.544Z" fill="#01FFBE"/>
<path d="M166.745 112.716L129.866 19.2288C125.424 7.95309 114.538 0.549316 102.412 0.549316C90.306 0.549316 79.4305 7.94308 74.9782 19.1988L20.9607 155.578H60.4508L102.312 46.993L127.255 112.716L143.263 154.958H118.61C116.009 154.958 113.418 155.058 110.836 155.218L110.927 155.188L101.582 105.643L87.9148 158.73C48.5047 168.505 15.3678 196.749 0 235.669H40.2505C50.8359 207.875 77.4795 189.526 107.205 189.526H156.48L174.039 235.669H215.23L166.745 112.716Z" fill="#01FFBE"/>
<path d="M693.394 75.457H634.024C614.594 75.457 598.836 91.2151 598.836 110.645V235.669H634.024V110.645H693.394V75.457Z" fill="#01FFBE"/>
</svg>
