<svg width="885" height="240" viewBox="0 0 885 240" fill="none" xmlns="http://www.w3.org/2000/svg">
<path d="M319.572 71.5869C296 71.5869 276.5 81.6521 262.993 98.3205V18.0497C262.993 8.3347 255.119 0.450684 245.394 0.450684C235.679 0.450684 227.795 8.3247 227.795 18.0497V235.58H262.983V212.669C276.49 229.297 296 239.352 319.562 239.352C364.485 239.352 398.392 203.224 398.392 155.47C398.392 107.715 364.475 71.5869 319.562 71.5869M312.628 205.445C284.384 205.445 262.983 183.764 262.983 155.47C262.983 127.175 284.374 105.544 312.628 105.544C340.883 105.544 361.983 127.225 361.983 155.47C361.983 183.714 340.923 205.445 312.628 205.445Z" fill="white"/>
<path d="M498.304 71.5854C449.329 71.5854 412.53 107.724 412.53 155.468C412.53 203.213 449.329 239.351 498.304 239.351C547.279 239.351 584.078 203.223 584.078 155.468C584.078 107.714 546.999 71.5854 498.304 71.5854ZM498.304 205.444C470.06 205.444 448.659 183.763 448.659 155.468C448.659 127.174 470.05 105.543 498.304 105.543C526.558 105.543 547.609 127.224 547.609 155.468C547.609 183.713 526.588 205.444 498.304 205.444Z" fill="white"/>
<path d="M882.169 201.663C872.774 201.663 867.431 196 867.431 186.876V18.0497C867.431 8.3347 859.557 0.450684 849.832 0.450684C840.117 0.450684 832.233 8.3247 832.233 18.0497V98.3205C819.006 81.6521 799.546 71.5869 775.984 71.5869C730.731 71.5869 697.154 107.725 697.154 155.47C697.154 203.214 730.731 239.352 775.984 239.352C800.497 239.352 820.897 228.347 834.404 210.158C839.127 226.786 852.964 235.57 874.935 235.57H885V201.653H882.169V201.663ZM782.928 205.445C754.303 205.445 733.283 183.764 733.283 155.47C733.283 127.175 754.303 105.544 782.928 105.544C811.553 105.544 832.233 127.225 832.233 155.47C832.233 183.714 811.172 205.445 782.928 205.445Z" fill="white"/>
<path d="M166.745 112.618L129.866 19.1302C125.424 7.85446 114.538 0.450684 102.412 0.450684C90.306 0.450684 79.4305 7.84445 74.9782 19.1002L20.9607 155.48H60.4508L102.312 46.8943L127.255 112.618L143.263 154.859H118.61C116.009 154.859 113.418 154.959 110.836 155.119L110.927 155.089L101.582 105.544L87.9148 158.631C48.5047 168.406 15.3678 196.651 0 235.57H40.2505C50.8359 207.776 77.4795 189.427 107.205 189.427H156.48L174.039 235.57H215.23L166.745 112.618Z" fill="white"/>
<path d="M693.394 75.3584H634.024C614.594 75.3584 598.836 91.1164 598.836 110.546V235.57H634.024V110.546H693.394V75.3584Z" fill="white"/>
</svg>
