<svg width="1024" height="1025" viewBox="0 0 1024 1025" fill="none" xmlns="http://www.w3.org/2000/svg">
<path d="M0 292.971C0 131.389 130.989 0.399902 292.571 0.399902H731.429C893.011 0.399902 1024 131.389 1024 292.971V731.829C1024 893.411 893.011 1024.4 731.429 1024.4H292.571C130.989 1024.4 0 893.411 0 731.829V292.971Z" fill="#25D1A3"/>
<g clip-path="url(#clip0_1_3314)">
<path d="M664.742 497.583L569.472 256.229C557.984 227.127 529.86 208 498.561 208C467.291 208 439.197 227.08 427.679 256.134L288.15 608.232H390.153L498.293 327.897L562.733 497.583L604.079 606.642H540.389C533.656 606.642 526.971 606.904 520.315 607.309L520.541 607.232L496.392 479.319L461.088 616.367C359.288 641.616 273.707 714.528 234 815H337.981C365.312 743.249 434.156 695.871 510.942 695.871H638.238L683.6 815H790L664.742 497.583Z" fill="white"/>
</g>
<defs>
<clipPath id="clip0_1_3314">
<rect width="556" height="607" fill="white" transform="translate(234 208)"/>
</clipPath>
</defs>
</svg>
