<svg width="654" height="161" viewBox="0 0 654 161" fill="none" xmlns="http://www.w3.org/2000/svg">
<g filter="url(#filter0_dd_1597_66088)">
<path d="M614 20V21C614 58.7124 614 77.5685 602.284 89.2843C590.569 101 571.712 101 534 101L120 101C82.2877 101 63.4315 101 51.7157 89.2843C40 77.5685 40 58.7124 40 21V20L614 20Z" fill="url(#paint0_linear_1597_66088)" shape-rendering="crispEdges"/>
<path d="M613.5 21C613.5 39.8703 613.499 53.9727 612.04 64.8242C610.583 75.6613 607.68 83.1812 601.931 88.9307C596.181 94.6801 588.661 97.583 577.824 99.04C566.973 100.499 552.87 100.5 534 100.5L120 100.5C101.13 100.5 87.0273 100.499 76.1758 99.04C65.3387 97.583 57.8188 94.6801 52.0693 88.9307C46.3199 83.1812 43.417 75.6613 41.96 64.8242C40.501 53.9727 40.5 39.8703 40.5 21V20.5L613.5 20.5V21Z" stroke="white" stroke-opacity="0.1" shape-rendering="crispEdges"/>
<path d="M613.5 21C613.5 39.8703 613.499 53.9727 612.04 64.8242C610.583 75.6613 607.68 83.1812 601.931 88.9307C596.181 94.6801 588.661 97.583 577.824 99.04C566.973 100.499 552.87 100.5 534 100.5L120 100.5C101.13 100.5 87.0273 100.499 76.1758 99.04C65.3387 97.583 57.8188 94.6801 52.0693 88.9307C46.3199 83.1812 43.417 75.6613 41.96 64.8242C40.501 53.9727 40.5 39.8703 40.5 21V20.5L613.5 20.5V21Z" stroke="url(#paint1_linear_1597_66088)" style="mix-blend-mode:overlay" shape-rendering="crispEdges"/>
</g>
<defs>
<filter id="filter0_dd_1597_66088" x="0" y="0" width="654" height="161" filterUnits="userSpaceOnUse" color-interpolation-filters="sRGB">
<feFlood flood-opacity="0" result="BackgroundImageFix"/>
<feColorMatrix in="SourceAlpha" type="matrix" values="0 0 0 0 0 0 0 0 0 0 0 0 0 0 0 0 0 0 127 0" result="hardAlpha"/>
<feOffset dy="20"/>
<feGaussianBlur stdDeviation="20"/>
<feComposite in2="hardAlpha" operator="out"/>
<feColorMatrix type="matrix" values="0 0 0 0 0 0 0 0 0 0 0 0 0 0 0 0 0 0 0.15 0"/>
<feBlend mode="normal" in2="BackgroundImageFix" result="effect1_dropShadow_1597_66088"/>
<feColorMatrix in="SourceAlpha" type="matrix" values="0 0 0 0 0 0 0 0 0 0 0 0 0 0 0 0 0 0 127 0" result="hardAlpha"/>
<feOffset dy="5"/>
<feGaussianBlur stdDeviation="5"/>
<feComposite in2="hardAlpha" operator="out"/>
<feColorMatrix type="matrix" values="0 0 0 0 0 0 0 0 0 0 0 0 0 0 0 0 0 0 0.1 0"/>
<feBlend mode="normal" in2="effect1_dropShadow_1597_66088" result="effect2_dropShadow_1597_66088"/>
<feBlend mode="normal" in="SourceGraphic" in2="effect2_dropShadow_1597_66088" result="shape"/>
</filter>
<linearGradient id="paint0_linear_1597_66088" x1="614" y1="60.5" x2="40" y2="60.5" gradientUnits="userSpaceOnUse">
<stop stop-color="white" stop-opacity="0.6"/>
<stop offset="1" stop-color="white" stop-opacity="0.5"/>
</linearGradient>
<linearGradient id="paint1_linear_1597_66088" x1="260.033" y1="42.95" x2="273.855" y2="140.899" gradientUnits="userSpaceOnUse">
<stop stop-color="white" stop-opacity="0"/>
<stop offset="1" stop-color="white"/>
</linearGradient>
</defs>
</svg>
