
<svg width="269" height="269" viewBox="0 0 269 269" fill="none" xmlns="http://www.w3.org/2000/svg">
<rect x="3.19842" y="2.49237" width="262.603" height="564.352" rx="30.2445" fill="#160078" stroke="#192325" stroke-width="4.98474"/>
<path d="M5.68799 69.7437C5.68799 62.6689 11.4233 56.9336 18.4981 56.9336H251.214C258.289 56.9336 264.024 62.6689 264.024 69.7437V536.6C264.024 551.928 251.598 564.355 236.269 564.355H33.4431C18.1144 564.355 5.68799 551.928 5.68799 536.6V69.7437Z" fill="white"/>
<path d="M26.4296 88.0525C24.0853 88.0525 21.9204 86.3488 21.9204 83.3128C21.9204 80.2768 24.175 78.5859 26.4296 78.5859C28.5048 78.5859 29.9652 79.7132 30.4263 81.4682L29.2606 81.8781C28.9147 80.5074 27.9156 79.7388 26.4296 79.7388C24.7771 79.7388 23.2015 80.9429 23.2015 83.3128C23.2015 85.6827 24.7771 86.8996 26.4296 86.8996C27.9796 86.8996 28.9532 85.9645 29.3247 84.7219L30.4391 85.1318C29.9524 86.8356 28.5176 88.0525 26.4296 88.0525ZM32.8769 87.8604H31.6727V78.5859H32.8769V87.8604ZM37.3856 86.9765C38.4105 86.9765 39.3072 86.2079 39.3072 84.7732C39.3072 83.3512 38.4105 82.5826 37.3856 82.5826C36.3608 82.5826 35.4641 83.3512 35.4641 84.7732C35.4641 86.2079 36.3608 86.9765 37.3856 86.9765ZM37.3856 81.5066C39.2303 81.5066 40.5369 82.9029 40.5369 84.7732C40.5369 86.6562 39.2303 88.0525 37.3856 88.0525C35.541 88.0525 34.2344 86.6562 34.2344 84.7732C34.2344 82.9029 35.541 81.5066 37.3856 81.5066ZM41.3226 86.2591L42.4114 85.8748C42.4883 86.5153 42.9751 87.0277 43.8461 87.0277C44.5251 87.0277 44.8966 86.6434 44.8966 86.2079C44.8966 85.8236 44.6147 85.5289 44.1023 85.4137L43.0519 85.1831C42.0912 84.9781 41.5147 84.3248 41.5147 83.4537C41.5147 82.4033 42.5011 81.5066 43.7052 81.5066C45.3962 81.5066 45.9214 82.6083 46.0495 83.1591L44.9862 83.5562C44.935 83.2359 44.6788 82.5314 43.7052 82.5314C43.0904 82.5314 42.6804 82.9285 42.6804 83.3512C42.6804 83.7227 42.911 83.9917 43.385 84.0942L44.3842 84.312C45.4986 84.5554 46.0879 85.2343 46.0879 86.1438C46.0879 87.0149 45.3577 88.0525 43.8333 88.0525C42.1424 88.0525 41.425 86.9637 41.3226 86.2591ZM48.2314 84.1455H51.6005C51.5748 83.2616 50.9984 82.5698 49.9095 82.5698C48.8975 82.5698 48.2827 83.3512 48.2314 84.1455ZM51.7798 85.7467L52.8174 86.1054C52.4715 87.1943 51.4852 88.0525 50.0504 88.0525C48.3979 88.0525 46.9504 86.8484 46.9504 84.7603C46.9504 82.826 48.3467 81.5066 49.8967 81.5066C51.7926 81.5066 52.8558 82.8132 52.8558 84.7347C52.8558 84.8884 52.843 85.0422 52.8302 85.119H48.193C48.2186 86.2207 49.0128 86.9893 50.0504 86.9893C51.0496 86.9893 51.5492 86.4385 51.7798 85.7467Z" fill="#5B6466"/>
<path d="M113.008 107.941H111.642V101.436H109.407V100.454C110.688 100.425 111.571 99.7136 111.784 98.7173H113.008V107.941ZM119.6 103.912V107.941H118.262V97.6355H119.6V101.891C120.098 101.165 120.895 100.895 121.678 100.895C123.315 100.895 124.126 102.076 124.126 103.599V107.941H122.788V103.827C122.788 102.873 122.389 102.105 121.194 102.105C120.169 102.105 119.628 102.902 119.6 103.912ZM128.668 105.435L130.006 105.037C130.091 106.176 130.931 106.944 132.084 106.944C133.18 106.944 134.062 106.218 134.062 105.08C134.062 103.813 133.137 103.172 132.069 103.172C131.415 103.172 130.788 103.429 130.39 103.841C129.906 103.656 129.493 103.471 129.023 103.3L130.219 98.7173H135.087V99.9983H131.144L130.461 102.646C130.874 102.19 131.614 101.962 132.34 101.962C134.147 101.962 135.471 103.115 135.471 105.023C135.471 106.759 134.133 108.168 132.084 108.168C130.119 108.168 128.796 106.887 128.668 105.435ZM143.188 99.0162L142.761 100.155C142.419 99.9556 141.807 99.7563 141.109 99.7563C139.188 99.7563 137.978 101.165 137.864 103.058C138.234 102.446 139.074 101.863 140.298 101.863C142.12 101.863 143.458 103.002 143.458 105.008C143.458 106.987 141.85 108.154 140.042 108.154C138.277 108.154 136.441 106.93 136.441 103.884C136.441 100.454 138.505 98.5038 141.195 98.5038C142.035 98.5038 142.761 98.7173 143.188 99.0162ZM138.064 105.008C138.064 106.218 139.046 106.944 140.056 106.944C141.138 106.944 142.049 106.233 142.049 105.008C142.049 103.77 141.124 103.058 140.056 103.058C138.989 103.058 138.064 103.77 138.064 105.008ZM149.488 107.941H148.164V101.094H149.445V102.005C149.872 101.251 150.726 100.895 151.523 100.895C152.377 100.895 153.203 101.308 153.573 102.19C154.114 101.208 154.996 100.895 155.864 100.895C157.06 100.895 158.227 101.706 158.227 103.5V107.941H156.903V103.642C156.903 102.745 156.462 102.076 155.452 102.076C154.512 102.076 153.872 102.816 153.872 103.799V107.941H152.534V103.642C152.534 102.76 152.107 102.076 151.082 102.076C150.128 102.076 149.488 102.788 149.488 103.813V107.941Z" fill="#5B6466"/>
<path d="M103.045 88.7254H95.9371V77.6248H98.0978V86.6587H103.045V88.7254ZM106.624 88.7254H104.542V81.0223H106.624V88.7254ZM104.291 78.5015C104.291 77.7813 104.87 77.202 105.575 77.202C106.295 77.202 106.859 77.7813 106.859 78.5015C106.859 79.1904 106.295 79.7697 105.575 79.7697C104.87 79.7697 104.291 79.1904 104.291 78.5015ZM116.118 81.0223L113.128 88.7254H111.045L107.898 81.0223H110.184L112.094 86.189L113.926 81.0223H116.118ZM118.674 83.9971H122.119C122.088 83.2299 121.587 82.4784 120.397 82.4784C119.316 82.4784 118.721 83.2925 118.674 83.9971ZM122.322 86.0011L124.06 86.5178C123.669 87.8486 122.448 88.9603 120.553 88.9603C118.44 88.9603 116.576 87.4415 116.576 84.8425C116.576 82.3844 118.393 80.7874 120.365 80.7874C122.745 80.7874 124.17 82.3061 124.17 84.7799C124.17 85.0774 124.139 85.3905 124.139 85.4218H118.627C118.674 86.4395 119.536 87.1754 120.569 87.1754C121.54 87.1754 122.072 86.69 122.322 86.0011ZM132.246 78.7207V81.0223H133.796V82.8698H132.246V86.0951C132.246 86.7683 132.559 86.9875 133.154 86.9875C133.404 86.9875 133.686 86.9562 133.796 86.9249V88.6471C133.608 88.7254 133.232 88.835 132.622 88.835C131.118 88.835 130.179 87.9426 130.179 86.4552V82.8698H128.786V81.0223H129.177C129.991 81.0223 130.367 80.49 130.367 79.8011V78.7207H132.246ZM140.155 80.991V83.089C139.92 83.042 139.716 83.0263 139.528 83.0263C138.464 83.0263 137.54 83.543 137.54 85.2026V88.7254H135.458V81.0223H137.477V82.1652C137.947 81.1475 139.012 80.9597 139.669 80.9597C139.841 80.9597 139.998 80.9753 140.155 80.991ZM141.196 86.6274C141.196 85.2496 142.213 84.4824 143.497 84.2945L145.392 84.0127C145.83 83.9501 145.971 83.7309 145.971 83.4647C145.971 82.9167 145.548 82.4627 144.671 82.4627C143.763 82.4627 143.262 83.042 143.2 83.7152L141.352 83.3238C141.477 82.1183 142.589 80.7874 144.656 80.7874C147.098 80.7874 148.006 82.1652 148.006 83.7152V87.5042C148.006 87.9113 148.053 88.4592 148.1 88.7254H146.19C146.143 88.5219 146.112 88.0991 146.112 87.8017C145.72 88.4123 144.984 88.9446 143.842 88.9446C142.198 88.9446 141.196 87.833 141.196 86.6274ZM144.28 87.3946C145.157 87.3946 145.971 86.9718 145.971 85.6097V85.2653L144.233 85.5314C143.701 85.6097 143.278 85.9072 143.278 86.5021C143.278 86.9562 143.607 87.3946 144.28 87.3946ZM153.535 82.7132C152.47 82.7132 151.578 83.4804 151.578 84.8738C151.578 86.2673 152.486 87.0501 153.55 87.0501C154.615 87.0501 155.147 86.3456 155.32 85.7506L157.151 86.3612C156.807 87.6451 155.601 88.9603 153.55 88.9603C151.28 88.9603 149.495 87.238 149.495 84.8738C149.495 82.494 151.249 80.7874 153.488 80.7874C155.586 80.7874 156.776 82.0869 157.105 83.3865L155.241 84.0127C155.053 83.3708 154.568 82.7132 153.535 82.7132ZM166.151 81.0223L163.067 84.2632L166.214 88.7254H163.662L161.626 85.7819L160.765 86.69V88.7254H158.683V77.3899H160.765V83.8875L163.427 81.0223H166.151ZM168.596 83.9971H172.04C172.009 83.2299 171.508 82.4784 170.318 82.4784C169.238 82.4784 168.643 83.2925 168.596 83.9971ZM172.244 86.0011L173.982 86.5178C173.59 87.8486 172.369 88.9603 170.474 88.9603C168.361 88.9603 166.498 87.4415 166.498 84.8425C166.498 82.3844 168.314 80.7874 170.287 80.7874C172.666 80.7874 174.091 82.3061 174.091 84.7799C174.091 85.0774 174.06 85.3905 174.06 85.4218H168.549C168.596 86.4395 169.457 87.1754 170.49 87.1754C171.461 87.1754 171.993 86.69 172.244 86.0011ZM180.428 80.991V83.089C180.193 83.042 179.99 83.0263 179.802 83.0263C178.737 83.0263 177.813 83.543 177.813 85.2026V88.7254H175.731V81.0223H177.751V82.1652C178.22 81.1475 179.285 80.9597 179.943 80.9597C180.115 80.9597 180.271 80.9753 180.428 80.991Z" fill="black"/>
<g clip-path="url(#clip0_7453_867)">
<path d="M243.787 83.0478C243.444 79.967 240.831 77.5721 237.659 77.5721C235.522 77.5721 233.574 78.6716 232.449 80.4506C232.292 80.6999 231.962 80.7741 231.713 80.6166C231.463 80.4591 231.389 80.1293 231.547 79.88C232.865 77.7957 235.151 76.5051 237.658 76.5051C241.443 76.5051 244.548 79.4114 244.865 83.114L245.254 82.7255C245.462 82.5173 245.801 82.5173 246.009 82.7255C246.217 82.9336 246.217 83.272 246.009 83.4802L244.736 84.7532C244.528 84.9613 244.189 84.9613 243.981 84.7532L242.708 83.4802C242.5 83.272 242.5 82.9336 242.708 82.7255C242.916 82.5173 243.255 82.5173 243.463 82.7255L243.786 83.0489L243.787 83.0478Z" fill="#5B6466"/>
<path d="M231.854 84.7521L231.53 84.4287C231.873 87.5095 234.486 89.9044 237.658 89.9044C239.795 89.9044 241.742 88.8049 242.868 87.0259C243.025 86.7766 243.355 86.7024 243.604 86.8599C243.853 87.0174 243.928 87.3472 243.77 87.5965C242.452 89.6808 240.166 90.9714 237.659 90.9714C233.874 90.9714 230.769 88.0651 230.451 84.3625L230.063 84.751C229.854 84.9592 229.516 84.9592 229.308 84.751C229.1 84.5429 229.099 84.2045 229.308 83.9963L230.581 82.7233C230.79 82.5152 231.128 82.5152 231.336 82.7233L232.609 83.9963C232.818 84.2045 232.818 84.5429 232.609 84.751C232.4 84.9592 232.062 84.9592 231.854 84.751L231.854 84.7521Z" fill="#5B6466"/>
</g>
<path d="M27.7485 161.549V221.329" stroke="#5B6466" stroke-width="2.84668"/>
<circle cx="27.749" cy="157.991" r="7.82837" fill="white" stroke="#5B6466" stroke-width="2.84668"/>
<ellipse cx="27.7483" cy="223.464" rx="5.69336" ry="5.69336" fill="#5B6466"/>
<path d="M117.071 229.213L114.42 224.466H112.685V229.213H111.064V217.608H115.435C117.628 217.608 118.987 219.146 118.987 221.061C118.987 222.731 117.923 224.024 116.171 224.351L118.937 229.213H117.071ZM112.685 223.026H115.14C116.449 223.026 117.333 222.256 117.333 221.061C117.333 219.834 116.449 219.048 115.14 219.048H112.685V223.026ZM123.835 228.083C125.144 228.083 126.29 227.101 126.29 225.268C126.29 223.451 125.144 222.469 123.835 222.469C122.525 222.469 121.38 223.451 121.38 225.268C121.38 227.101 122.525 228.083 123.835 228.083ZM123.835 221.094C126.192 221.094 127.862 222.878 127.862 225.268C127.862 227.674 126.192 229.458 123.835 229.458C121.478 229.458 119.808 227.674 119.808 225.268C119.808 222.878 121.478 221.094 123.835 221.094ZM131.1 229.213H129.578V221.34H131.051V222.387C131.542 221.52 132.524 221.11 133.441 221.11C134.423 221.11 135.372 221.585 135.798 222.6C136.42 221.471 137.435 221.11 138.433 221.11C139.808 221.11 141.15 222.043 141.15 224.106V229.213H139.628V224.27C139.628 223.238 139.121 222.469 137.959 222.469C136.878 222.469 136.142 223.32 136.142 224.45V229.213H134.603V224.27C134.603 223.255 134.112 222.469 132.933 222.469C131.837 222.469 131.1 223.287 131.1 224.466V229.213ZM142.869 227.101C142.869 225.694 143.9 224.908 145.259 224.712L147.387 224.401C147.862 224.335 147.993 224.09 147.993 223.811C147.993 223.042 147.485 222.404 146.29 222.404C145.21 222.404 144.604 223.075 144.506 223.991L143.033 223.648C143.197 222.142 144.555 221.094 146.258 221.094C148.615 221.094 149.531 222.436 149.531 223.975V227.92C149.531 228.607 149.597 229.016 149.629 229.213H148.124C148.091 229.016 148.042 228.722 148.042 228.149C147.698 228.705 146.912 229.458 145.505 229.458C143.9 229.458 142.869 228.345 142.869 227.101ZM145.717 228.165C146.978 228.165 147.993 227.56 147.993 225.841V225.481L145.586 225.841C144.932 225.939 144.441 226.316 144.441 227.019C144.441 227.609 144.932 228.165 145.717 228.165ZM163.733 219.097H159.853V229.213H158.249V219.097H154.37V217.608H163.733V219.097ZM164.398 224.466H168.703C168.671 223.337 167.934 222.453 166.543 222.453C165.25 222.453 164.464 223.451 164.398 224.466ZM168.932 226.512L170.258 226.97C169.816 228.362 168.556 229.458 166.723 229.458C164.611 229.458 162.762 227.92 162.762 225.252C162.762 222.78 164.546 221.094 166.526 221.094C168.949 221.094 170.307 222.764 170.307 225.219C170.307 225.415 170.291 225.612 170.275 225.71H164.349C164.382 227.118 165.397 228.1 166.723 228.1C167.999 228.1 168.638 227.396 168.932 226.512ZM176.39 221.258V222.895C176.16 222.862 175.931 222.846 175.719 222.846C174.425 222.846 173.558 223.533 173.558 225.268V229.213H172.019V221.34H173.525V222.715C174.098 221.503 175.08 221.209 175.882 221.209C176.095 221.209 176.308 221.241 176.39 221.258ZM179.3 229.213H177.777V221.34H179.25V222.387C179.742 221.52 180.724 221.11 181.64 221.11C182.622 221.11 183.572 221.585 183.997 222.6C184.619 221.471 185.634 221.11 186.633 221.11C188.008 221.11 189.35 222.043 189.35 224.106V229.213H187.828V224.27C187.828 223.238 187.32 222.469 186.158 222.469C185.078 222.469 184.341 223.32 184.341 224.45V229.213H182.802V224.27C182.802 223.255 182.311 222.469 181.133 222.469C180.036 222.469 179.3 223.287 179.3 224.466V229.213ZM193.082 229.213H191.56V221.34H193.082V229.213ZM191.216 218.361C191.216 217.739 191.707 217.248 192.313 217.248C192.935 217.248 193.426 217.739 193.426 218.361C193.426 218.966 192.935 219.457 192.313 219.457C191.707 219.457 191.216 218.966 191.216 218.361ZM196.986 224.662V229.213H195.448V221.34H196.954V222.469C197.526 221.487 198.459 221.11 199.376 221.11C201.258 221.11 202.191 222.469 202.191 224.22V229.213H200.653V224.482C200.653 223.386 200.194 222.502 198.82 222.502C197.608 222.502 196.986 223.468 196.986 224.662ZM205.909 229.213H204.387V221.34H205.909V229.213ZM204.043 218.361C204.043 217.739 204.534 217.248 205.14 217.248C205.762 217.248 206.253 217.739 206.253 218.361C206.253 218.966 205.762 219.457 205.14 219.457C204.534 219.457 204.043 218.966 204.043 218.361Z" fill="#192325"/>
<path d="M122.891 162.316H121.303V153.28L117.342 162.316H115.869L111.941 153.28V162.316H110.353V150.711H112.53L116.622 160.155L120.747 150.711H122.891V162.316ZM126.948 162.316H125.426V154.443H126.948V162.316ZM125.082 151.464C125.082 150.842 125.573 150.35 126.179 150.35C126.801 150.35 127.292 150.842 127.292 151.464C127.292 152.069 126.801 152.56 126.179 152.56C125.573 152.56 125.082 152.069 125.082 151.464ZM130.853 162.316H129.314V150.465H130.853V162.316ZM132.727 160.204C132.727 158.797 133.758 158.011 135.117 157.814L137.244 157.503C137.719 157.438 137.85 157.192 137.85 156.914C137.85 156.145 137.343 155.507 136.148 155.507C135.067 155.507 134.462 156.178 134.364 157.094L132.89 156.751C133.054 155.245 134.413 154.197 136.115 154.197C138.472 154.197 139.389 155.539 139.389 157.078V161.023C139.389 161.71 139.454 162.119 139.487 162.316H137.981C137.948 162.119 137.899 161.825 137.899 161.252C137.555 161.808 136.77 162.561 135.362 162.561C133.758 162.561 132.727 161.448 132.727 160.204ZM135.575 161.268C136.835 161.268 137.85 160.663 137.85 158.944V158.584L135.444 158.944C134.789 159.042 134.298 159.419 134.298 160.122C134.298 160.712 134.789 161.268 135.575 161.268ZM143.072 157.765V162.316H141.534V154.443H143.039V155.572C143.612 154.59 144.545 154.213 145.462 154.213C147.344 154.213 148.277 155.572 148.277 157.323V162.316H146.739V157.585C146.739 156.489 146.28 155.605 144.905 155.605C143.694 155.605 143.072 156.57 143.072 157.765ZM153.844 161.186C155.154 161.186 156.3 160.204 156.3 158.371C156.3 156.554 155.154 155.572 153.844 155.572C152.535 155.572 151.389 156.554 151.389 158.371C151.389 160.204 152.535 161.186 153.844 161.186ZM153.844 154.197C156.201 154.197 157.871 155.981 157.871 158.371C157.871 160.777 156.201 162.561 153.844 162.561C151.487 162.561 149.818 160.777 149.818 158.371C149.818 155.981 151.487 154.197 153.844 154.197ZM168.616 162.561C165.621 162.561 162.854 160.384 162.854 156.505C162.854 152.626 165.735 150.465 168.616 150.465C171.268 150.465 173.134 151.905 173.723 154.148L172.234 154.672C171.792 152.92 170.515 151.938 168.616 151.938C166.505 151.938 164.491 153.477 164.491 156.505C164.491 159.533 166.505 161.088 168.616 161.088C170.597 161.088 171.841 159.893 172.315 158.306L173.739 158.829C173.117 161.006 171.284 162.561 168.616 162.561ZM176.13 157.569H180.435C180.402 156.44 179.666 155.556 178.274 155.556C176.981 155.556 176.196 156.554 176.13 157.569ZM180.664 159.615L181.99 160.073C181.548 161.465 180.288 162.561 178.455 162.561C176.343 162.561 174.493 161.023 174.493 158.355C174.493 155.883 176.278 154.197 178.258 154.197C180.681 154.197 182.039 155.867 182.039 158.322C182.039 158.518 182.023 158.715 182.006 158.813H176.081C176.114 160.221 177.129 161.203 178.455 161.203C179.731 161.203 180.37 160.499 180.664 159.615ZM185.29 157.765V162.316H183.751V154.443H185.257V155.572C185.83 154.59 186.763 154.213 187.68 154.213C189.562 154.213 190.495 155.572 190.495 157.323V162.316H188.956V157.585C188.956 156.489 188.498 155.605 187.123 155.605C185.912 155.605 185.29 156.57 185.29 157.765ZM194.753 151.955V154.443H196.455V155.834H194.753V159.926C194.753 160.646 195.047 161.006 195.849 161.006C196.046 161.006 196.324 160.974 196.455 160.941V162.25C196.324 162.299 195.931 162.398 195.407 162.398C194.065 162.398 193.214 161.579 193.214 160.155V155.834H191.708V154.443H192.134C192.985 154.443 193.345 153.919 193.345 153.231V151.955H194.753ZM202.467 154.361V155.998C202.238 155.965 202.009 155.948 201.796 155.948C200.503 155.948 199.635 156.636 199.635 158.371V162.316H198.097V154.443H199.602V155.818C200.175 154.606 201.157 154.312 201.96 154.312C202.172 154.312 202.385 154.344 202.467 154.361ZM203.364 160.204C203.364 158.797 204.395 158.011 205.753 157.814L207.881 157.503C208.356 157.438 208.487 157.192 208.487 156.914C208.487 156.145 207.979 155.507 206.785 155.507C205.704 155.507 205.099 156.178 205 157.094L203.527 156.751C203.691 155.245 205.05 154.197 206.752 154.197C209.109 154.197 210.026 155.539 210.026 157.078V161.023C210.026 161.71 210.091 162.119 210.124 162.316H208.618C208.585 162.119 208.536 161.825 208.536 161.252C208.192 161.808 207.407 162.561 205.999 162.561C204.395 162.561 203.364 161.448 203.364 160.204ZM206.212 161.268C207.472 161.268 208.487 160.663 208.487 158.944V158.584L206.081 158.944C205.426 159.042 204.935 159.419 204.935 160.122C204.935 160.712 205.426 161.268 206.212 161.268ZM213.709 162.316H212.17V150.465H213.709V162.316ZM217.073 157.569H221.377C221.345 156.44 220.608 155.556 219.217 155.556C217.924 155.556 217.138 156.554 217.073 157.569ZM221.607 159.615L222.932 160.073C222.491 161.465 221.23 162.561 219.397 162.561C217.285 162.561 215.436 161.023 215.436 158.355C215.436 155.883 217.22 154.197 219.2 154.197C221.623 154.197 222.982 155.867 222.982 158.322C222.982 158.518 222.965 158.715 222.949 158.813H217.023C217.056 160.221 218.071 161.203 219.397 161.203C220.674 161.203 221.312 160.499 221.607 159.615Z" fill="black"/>
<path d="M54.4025 162.316H52.16V155.212H49.6065V153.69C51.1615 153.673 52.2419 152.806 52.4546 151.693H54.4025V162.316ZM58.3923 155.801L56.248 155.736C56.2153 155.588 56.1662 155.261 56.1662 154.999C56.1662 153.133 57.5738 151.447 60.0455 151.447C62.4189 151.447 63.8757 153.019 63.8757 154.868C63.8757 156.243 63.1227 157.356 61.8133 158.158L59.7672 159.402C59.358 159.664 59.0143 159.959 58.8506 160.368H63.9412V162.316H56.0843C56.1007 160.45 56.6899 158.928 58.5887 157.782L60.3401 156.734C61.2404 156.194 61.6005 155.637 61.6005 154.901C61.6005 154.132 61.0603 153.444 59.9964 153.444C58.8669 153.444 58.3104 154.213 58.3104 155.212C58.3104 155.408 58.3432 155.621 58.3923 155.801ZM65.2925 160.974C65.2925 160.155 65.9473 159.5 66.7493 159.5C67.5678 159.5 68.2389 160.155 68.2389 160.974C68.2389 161.776 67.5678 162.43 66.7493 162.43C65.9473 162.43 65.2925 161.776 65.2925 160.974ZM65.2762 155.621C65.2762 154.803 65.9309 154.148 66.733 154.148C67.5514 154.148 68.2225 154.803 68.2225 155.621C68.2225 156.423 67.5514 157.078 66.733 157.078C65.9309 157.078 65.2762 156.423 65.2762 155.621ZM72.5456 157.602L71.5472 156.03L74.3298 153.641H69.6812V151.693H77.1943V153.51L74.4444 155.801C76.0485 155.867 77.5216 157.094 77.5216 159.042C77.5216 160.875 76.0158 162.561 73.4459 162.561C70.9743 162.561 69.4684 160.957 69.3374 159.173L71.5144 158.747C71.5635 159.828 72.3329 160.613 73.4459 160.613C74.5753 160.613 75.2464 159.893 75.2464 159.009C75.2464 158.011 74.5262 157.438 73.5114 157.438C73.0531 157.438 72.7748 157.52 72.5456 157.602ZM80.656 157.012C80.656 158.125 80.8197 159.075 81.2289 159.713C81.5563 160.237 82.0637 160.581 82.833 160.581C83.6187 160.581 84.0934 160.237 84.4208 159.713C84.8464 159.075 85.01 158.125 85.01 157.012C85.01 155.899 84.8464 154.95 84.4208 154.312C84.0934 153.788 83.6187 153.444 82.833 153.444C82.0637 153.444 81.5563 153.788 81.2289 154.312C80.8197 154.95 80.656 155.899 80.656 157.012ZM78.3972 157.012C78.3972 155.654 78.61 154.328 79.3302 153.231C80.034 152.184 81.1798 151.447 82.833 151.447C84.4863 151.447 85.632 152.184 86.3195 153.231C87.0397 154.328 87.2689 155.654 87.2689 157.012C87.2689 158.371 87.0397 159.697 86.3195 160.794C85.632 161.841 84.4863 162.578 82.833 162.578C81.1798 162.578 80.034 161.841 79.3302 160.794C78.61 159.697 78.3972 158.371 78.3972 157.012Z" fill="#192325"/>
<path d="M54.402 229.213H52.1595V222.109H49.6061V220.587C51.1611 220.57 52.2414 219.703 52.4542 218.59H54.402V229.213ZM55.86 226.937V224.58L60.3286 218.59H63.1113V225.006H64.8627V226.937H63.1113V229.213H60.8851V226.937H55.86ZM60.8851 225.006V220.947L57.857 225.006H60.8851ZM66.0433 227.87C66.0433 227.052 66.6981 226.397 67.5001 226.397C68.3186 226.397 68.9897 227.052 68.9897 227.87C68.9897 228.673 68.3186 229.327 67.5001 229.327C66.6981 229.327 66.0433 228.673 66.0433 227.87ZM66.027 222.518C66.027 221.7 66.6817 221.045 67.4838 221.045C68.3022 221.045 68.9733 221.7 68.9733 222.518C68.9733 223.32 68.3022 223.975 67.4838 223.975C66.6817 223.975 66.027 223.32 66.027 222.518ZM72.6253 222.698L70.4811 222.633C70.4483 222.485 70.3992 222.158 70.3992 221.896C70.3992 220.03 71.8069 218.344 74.2786 218.344C76.652 218.344 78.1088 219.915 78.1088 221.765C78.1088 223.14 77.3558 224.253 76.0463 225.055L74.0003 226.299C73.5911 226.561 73.2473 226.856 73.0837 227.265H78.1742V229.213H70.3174C70.3338 227.347 70.923 225.824 72.8218 224.679L74.5732 223.631C75.4734 223.091 75.8336 222.534 75.8336 221.798C75.8336 221.028 75.2934 220.341 74.2294 220.341C73.1 220.341 72.5435 221.11 72.5435 222.109C72.5435 222.305 72.5762 222.518 72.6253 222.698ZM87.2352 218.835L86.6132 220.668C86.1548 220.472 85.5328 220.292 84.8617 220.292C83.0612 220.292 81.588 221.339 81.3425 223.336C81.7354 222.747 82.6193 222.158 83.8633 222.158C86.0403 222.158 87.5298 223.533 87.5298 225.726C87.5298 227.903 85.762 229.458 83.4213 229.458C81.097 229.458 79.1164 227.789 79.1164 224.58C79.1164 220.767 81.5062 218.344 85.009 218.344C85.9912 218.344 86.7932 218.573 87.2352 218.835ZM81.5389 225.775C81.5389 226.856 82.4228 227.559 83.4049 227.559C84.4362 227.559 85.2873 226.872 85.2873 225.775C85.2873 224.679 84.4362 224.008 83.4049 224.008C82.3901 224.008 81.5389 224.679 81.5389 225.775Z" fill="#192325"/>
<path d="M51.6683 179.541C51.6683 181.911 53.2567 183.128 54.9476 183.128C56.6386 183.128 58.227 181.911 58.227 179.541C58.227 177.171 56.6386 175.967 54.9476 175.967C53.2567 175.967 51.6683 177.171 51.6683 179.541ZM50.3872 179.541C50.3872 176.505 52.6674 174.814 54.9476 174.814C57.2278 174.814 59.508 176.505 59.508 179.541C59.508 182.577 57.2278 184.281 54.9476 184.281C52.6674 184.281 50.3872 182.577 50.3872 179.541ZM62.0581 180.528V184.089H60.854V177.927H62.0325V178.811C62.4808 178.043 63.211 177.748 63.9284 177.748C65.4015 177.748 66.1317 178.811 66.1317 180.182V184.089H64.9276V180.387C64.9276 179.529 64.5689 178.837 63.4928 178.837C62.5449 178.837 62.0581 179.593 62.0581 180.528ZM72.3593 175.98V177.927H73.6915V179.016H72.3593V182.219C72.3593 182.782 72.5899 183.064 73.2176 183.064C73.3713 183.064 73.5891 183.039 73.6915 183.013V184.038C73.5891 184.076 73.2816 184.153 72.8717 184.153C71.8213 184.153 71.1552 183.512 71.1552 182.398V179.016H69.9766V177.927H70.3097C70.9758 177.927 71.2576 177.517 71.2576 176.979V175.98H72.3593ZM76.2379 184.089H75.0466V177.927H76.2379V184.089ZM74.7776 175.596C74.7776 175.109 75.1619 174.725 75.6359 174.725C76.1226 174.725 76.507 175.109 76.507 175.596C76.507 176.07 76.1226 176.454 75.6359 176.454C75.1619 176.454 74.7776 176.07 74.7776 175.596ZM79.2258 184.089H78.0344V177.927H79.1874V178.747C79.5717 178.068 80.3403 177.748 81.0576 177.748C81.8262 177.748 82.5692 178.119 82.9023 178.914C83.3891 178.03 84.1833 177.748 84.9647 177.748C86.0407 177.748 87.0912 178.478 87.0912 180.092V184.089H85.8998V180.22C85.8998 179.413 85.5027 178.811 84.5932 178.811C83.7477 178.811 83.1713 179.477 83.1713 180.361V184.089H81.9671V180.22C81.9671 179.426 81.5828 178.811 80.6605 178.811C79.8022 178.811 79.2258 179.452 79.2258 180.374V184.089ZM89.5473 180.374H92.9163C92.8907 179.49 92.3143 178.798 91.2254 178.798C90.2134 178.798 89.5985 179.58 89.5473 180.374ZM93.0957 181.975L94.1333 182.334C93.7874 183.423 92.801 184.281 91.3663 184.281C89.7138 184.281 88.2663 183.077 88.2663 180.989C88.2663 179.055 89.6626 177.735 91.2126 177.735C93.1085 177.735 94.1717 179.042 94.1717 180.963C94.1717 181.117 94.1589 181.271 94.1461 181.348H89.5089C89.5345 182.449 90.3287 183.218 91.3663 183.218C92.3655 183.218 92.8651 182.667 93.0957 181.975Z" fill="#11AC23"/>
<path d="M51.6683 245.015C51.6683 247.385 53.2567 248.602 54.9476 248.602C56.6386 248.602 58.227 247.385 58.227 245.015C58.227 242.645 56.6386 241.441 54.9476 241.441C53.2567 241.441 51.6683 242.645 51.6683 245.015ZM50.3872 245.015C50.3872 241.979 52.6674 240.288 54.9476 240.288C57.2278 240.288 59.508 241.979 59.508 245.015C59.508 248.051 57.2278 249.755 54.9476 249.755C52.6674 249.755 50.3872 248.051 50.3872 245.015ZM62.0581 246.001V249.562H60.854V243.401H62.0325V244.285C62.4808 243.516 63.211 243.221 63.9284 243.221C65.4015 243.221 66.1317 244.285 66.1317 245.655V249.562H64.9276V245.86C64.9276 245.002 64.5689 244.31 63.4928 244.31C62.5449 244.31 62.0581 245.066 62.0581 246.001ZM72.3593 241.454V243.401H73.6915V244.49H72.3593V247.692C72.3593 248.256 72.5899 248.538 73.2176 248.538C73.3713 248.538 73.5891 248.512 73.6915 248.486V249.511C73.5891 249.55 73.2816 249.626 72.8717 249.626C71.8213 249.626 71.1552 248.986 71.1552 247.871V244.49H69.9766V243.401H70.3097C70.9758 243.401 71.2576 242.991 71.2576 242.453V241.454H72.3593ZM76.2379 249.562H75.0466V243.401H76.2379V249.562ZM74.7776 241.069C74.7776 240.583 75.1619 240.198 75.6359 240.198C76.1226 240.198 76.507 240.583 76.507 241.069C76.507 241.543 76.1226 241.928 75.6359 241.928C75.1619 241.928 74.7776 241.543 74.7776 241.069ZM79.2258 249.562H78.0344V243.401H79.1874V244.221C79.5717 243.542 80.3403 243.221 81.0576 243.221C81.8262 243.221 82.5692 243.593 82.9023 244.387C83.3891 243.503 84.1833 243.221 84.9647 243.221C86.0407 243.221 87.0912 243.952 87.0912 245.566V249.562H85.8998V245.694C85.8998 244.887 85.5027 244.285 84.5932 244.285C83.7477 244.285 83.1713 244.951 83.1713 245.835V249.562H81.9671V245.694C81.9671 244.9 81.5828 244.285 80.6605 244.285C79.8022 244.285 79.2258 244.925 79.2258 245.847V249.562ZM89.5473 245.847H92.9163C92.8907 244.964 92.3143 244.272 91.2254 244.272C90.2134 244.272 89.5985 245.053 89.5473 245.847ZM93.0957 247.449L94.1333 247.807C93.7874 248.896 92.801 249.755 91.3663 249.755C89.7138 249.755 88.2663 248.55 88.2663 246.462C88.2663 244.528 89.6626 243.209 91.2126 243.209C93.1085 243.209 94.1717 244.515 94.1717 246.437C94.1717 246.59 94.1589 246.744 94.1461 246.821H89.5089C89.5345 247.923 90.3287 248.691 91.3663 248.691C92.3655 248.691 92.8651 248.14 93.0957 247.449Z" fill="#11AC23"/>
<rect x="109.591" y="170.801" width="71.167" height="17.0801" rx="2.13501" fill="#DFEBFF"/>
<path d="M116.27 179.247H118.089C119.178 179.247 119.844 178.645 119.844 177.71C119.844 176.749 119.178 176.134 118.089 176.134H116.27V179.247ZM118.319 180.374H116.27V184.089H115.014V175.007H118.319C119.997 175.007 121.125 176.173 121.125 177.697C121.125 179.234 119.997 180.374 118.319 180.374ZM123.356 184.089H122.152V174.815H123.356V184.089ZM124.768 182.437C124.768 181.335 125.575 180.72 126.639 180.566L128.304 180.323C128.675 180.272 128.778 180.08 128.778 179.862C128.778 179.26 128.381 178.76 127.446 178.76C126.6 178.76 126.126 179.285 126.049 180.003L124.896 179.734C125.025 178.555 126.088 177.735 127.42 177.735C129.265 177.735 129.982 178.786 129.982 179.99V183.077C129.982 183.615 130.033 183.936 130.059 184.089H128.88C128.855 183.936 128.816 183.705 128.816 183.257C128.547 183.692 127.932 184.281 126.831 184.281C125.575 184.281 124.768 183.41 124.768 182.437ZM126.997 183.269C127.984 183.269 128.778 182.795 128.778 181.45V181.169L126.895 181.45C126.382 181.527 125.998 181.822 125.998 182.373C125.998 182.834 126.382 183.269 126.997 183.269ZM133.22 175.98V177.928H134.552V179.016H133.22V182.219C133.22 182.783 133.45 183.064 134.078 183.064C134.232 183.064 134.45 183.039 134.552 183.013V184.038C134.45 184.076 134.142 184.153 133.732 184.153C132.682 184.153 132.016 183.513 132.016 182.398V179.016H130.837V177.928H131.17C131.836 177.928 132.118 177.518 132.118 176.98V175.98H133.22ZM139.007 179.016H137.521V184.089H136.279V179.016H135.139V177.928H136.279V176.89C136.279 175.519 137.188 174.776 138.303 174.776C138.713 174.776 138.969 174.866 139.02 174.904V175.98C138.956 175.955 138.802 175.904 138.495 175.904C138.072 175.904 137.521 176.109 137.521 176.954V177.928H139.007V179.016ZM142.435 183.205C143.459 183.205 144.356 182.437 144.356 181.002C144.356 179.58 143.459 178.811 142.435 178.811C141.41 178.811 140.513 179.58 140.513 181.002C140.513 182.437 141.41 183.205 142.435 183.205ZM142.435 177.735C144.279 177.735 145.586 179.132 145.586 181.002C145.586 182.885 144.279 184.281 142.435 184.281C140.59 184.281 139.283 182.885 139.283 181.002C139.283 179.132 140.59 177.735 142.435 177.735ZM150.295 177.864V179.145C150.115 179.119 149.936 179.106 149.769 179.106C148.757 179.106 148.078 179.644 148.078 181.002V184.089H146.874V177.928H148.053V179.004C148.501 178.056 149.27 177.825 149.897 177.825C150.064 177.825 150.23 177.851 150.295 177.864ZM152.517 184.089H151.326V177.928H152.479V178.747C152.863 178.069 153.632 177.748 154.349 177.748C155.118 177.748 155.861 178.12 156.194 178.914C156.68 178.03 157.475 177.748 158.256 177.748C159.332 177.748 160.382 178.478 160.382 180.092V184.089H159.191V180.221C159.191 179.414 158.794 178.811 157.884 178.811C157.039 178.811 156.463 179.478 156.463 180.362V184.089H155.258V180.221C155.258 179.426 154.874 178.811 153.952 178.811C153.094 178.811 152.517 179.452 152.517 180.374V184.089ZM168.133 184.089H166.378V178.53H164.38V177.338C165.597 177.326 166.442 176.647 166.609 175.775H168.133V184.089ZM169.294 181.758L170.946 181.386C170.984 182.155 171.574 182.783 172.458 182.783C173.252 182.783 173.892 182.257 173.892 181.425C173.892 180.477 173.188 180.028 172.419 180.028C171.856 180.028 171.407 180.285 171.138 180.592C170.972 180.528 169.703 180.092 169.524 180.041L170.51 175.775H175.199V177.3H171.715L171.305 179.132C171.663 178.799 172.253 178.619 172.803 178.619C174.469 178.619 175.647 179.619 175.647 181.399C175.647 182.949 174.456 184.294 172.458 184.294C170.651 184.294 169.396 183.064 169.294 181.758Z" fill="#0035A9"/>
<defs>
<clipPath id="clip0_7453_867">
<rect width="17.0801" height="17.0801" fill="white" transform="translate(229.152 75.4371)"/>
</clipPath>
</defs>
</svg>
