
<svg width="375" height="290" viewBox="0 0 375 290" fill="none" xmlns="http://www.w3.org/2000/svg">
<g clip-path="url(#clip0_7302_4065)">
<g clip-path="url(#clip1_7302_4065)">
<mask id="mask0_7302_4065" style="mask-type:luminance" maskUnits="userSpaceOnUse" x="53" y="26" width="270" height="391">
<path d="M53 59.1234C53 40.8298 67.8283 26 86.12 26H289.88C308.172 26 323 40.8298 323 59.1234V417H53V59.1234Z" fill="white"/>
</mask>
<g mask="url(#mask0_7302_4065)">
<path opacity="0.5" d="M323 -21.5249H53V530.052H323V-21.5249Z" fill="#192325"/>
<g filter="url(#filter0_dd_7302_4065)">
<path d="M53 67.7643C53 62.9921 56.8683 59.1234 61.64 59.1234H314.36C319.131 59.1234 323 62.9921 323 67.7643V530.052H53V67.7643Z" fill="white"/>
</g>
<path d="M53 67.7643C53 62.9921 56.8683 59.1234 61.64 59.1234H314.36C319.131 59.1234 323 62.9921 323 67.7643V105.208H53V67.7643Z" fill="white"/>
<path d="M90.08 92.2468C90.08 86.0826 85.0835 81.0856 78.92 81.0856C72.7565 81.0856 67.76 86.0826 67.76 92.2468C67.76 98.4109 72.7565 103.408 78.92 103.408C85.0835 103.408 90.08 98.4109 90.08 92.2468Z" fill="#F2F4F4" stroke="#D0D4D5"/>
<path d="M77.7782 92.2468L80.1491 94.6179C80.4303 94.8991 80.4303 95.355 80.1491 95.6362C79.868 95.9174 79.4121 95.9174 79.1309 95.6362L76.2509 92.7559C75.9697 92.4747 75.9697 92.0188 76.2509 91.7376L79.1309 88.8573C79.4121 88.5761 79.868 88.5761 80.1491 88.8573C80.4303 89.1385 80.4303 89.5945 80.1491 89.8756L77.7782 92.2468Z" fill="#8A9497"/>
<path d="M308.24 92.2468C308.24 86.0826 303.243 81.0856 297.08 81.0856C290.916 81.0856 285.92 86.0826 285.92 92.2468C285.92 98.4109 290.916 103.408 297.08 103.408C303.243 103.408 308.24 98.4109 308.24 92.2468Z" fill="white" stroke="#D0D4D5"/>
<path d="M298.222 92.2468L295.851 89.8756C295.57 89.5945 295.57 89.1385 295.851 88.8573C296.132 88.5761 296.588 88.5761 296.869 88.8573L299.749 91.7376C300.031 92.0188 300.031 92.4747 299.749 92.7559L296.869 95.6362C296.588 95.9174 296.132 95.9174 295.851 95.6362C295.57 95.355 295.57 94.8991 295.851 94.6179L298.222 92.2468Z" fill="#2332C4"/>
<path d="M165.377 96.5672L168.547 87.4348H170.794L173.971 96.5672H171.958L171.281 94.3521H168.06L167.383 96.5672H165.377ZM169.617 89.2575L168.497 92.9218H170.845L169.731 89.2575H169.617ZM178.033 99.0162C176.104 99.0162 174.983 98.2061 174.831 97.0229V96.9913H176.66L176.667 97.0165C176.767 97.4216 177.248 97.7 178.071 97.7C179.058 97.7 179.634 97.238 179.634 96.428V95.1306H179.521C179.135 95.8647 178.4 96.2634 177.432 96.2634C175.679 96.2634 174.597 94.9091 174.597 92.9282V92.9155C174.597 90.865 175.679 89.4853 177.464 89.4853C178.419 89.4853 179.166 89.9536 179.539 90.7384H179.628V89.5992H181.475V96.3521C181.475 97.9849 180.141 99.0162 178.033 99.0162ZM178.058 94.8458C179.058 94.8458 179.653 94.0673 179.653 92.9218V92.9092C179.653 91.7637 179.052 90.9852 178.058 90.9852C177.065 90.9852 176.489 91.7637 176.489 92.9092V92.9218C176.489 94.0673 177.059 94.8458 178.058 94.8458ZM186.418 96.7128C184.273 96.7128 182.982 95.3521 182.982 93.0864V93.0737C182.982 90.827 184.292 89.4473 186.418 89.4473C188.544 89.4473 189.854 90.8207 189.854 93.0737V93.0864C189.854 95.3584 188.563 96.7128 186.418 96.7128ZM186.418 95.2635C187.399 95.2635 187.962 94.4597 187.962 93.0864V93.0737C187.962 91.7131 187.392 90.8966 186.418 90.8966C185.437 90.8966 184.874 91.7131 184.874 93.0737V93.0864C184.874 94.4597 185.431 95.2635 186.418 95.2635ZM194.132 96.7128C192.24 96.7128 191.164 95.8647 191.031 94.6686L191.025 94.6433H192.841L192.854 94.6686C192.999 95.0989 193.423 95.4091 194.151 95.4091C194.86 95.4091 195.34 95.1053 195.34 94.6433V94.6306C195.34 94.2572 195.063 94.0231 194.353 93.8649L193.189 93.618C191.86 93.3332 191.202 92.6813 191.202 91.6371V91.6308C191.202 90.3207 192.366 89.4473 194.106 89.4473C195.935 89.4473 196.948 90.3587 197.024 91.4789V91.5042H195.309L195.303 91.4726C195.202 91.0991 194.79 90.7511 194.101 90.7511C193.461 90.7511 193.006 91.0485 193.006 91.5168V91.5232C193.006 91.8966 193.265 92.1118 193.986 92.27L195.145 92.5168C196.536 92.8143 197.189 93.3965 197.189 94.4281V94.4344C197.189 95.8141 195.916 96.7128 194.132 96.7128ZM201.555 96.5926C199.859 96.5926 199.175 96.0419 199.175 94.6875V90.9915H198.1V89.5992H199.175V87.9348H201.042V89.5992H202.479V90.9915H201.042V94.2636C201.042 94.8901 201.308 95.1686 201.935 95.1686C202.175 95.1686 202.301 95.1559 202.479 95.1369V96.5103C202.251 96.5545 201.909 96.5926 201.555 96.5926ZM207.061 96.7128C204.915 96.7128 203.624 95.3521 203.624 93.0864V93.0737C203.624 90.827 204.934 89.4473 207.061 89.4473C209.187 89.4473 210.496 90.8207 210.496 93.0737V93.0864C210.496 95.3584 209.206 96.7128 207.061 96.7128ZM207.061 95.2635C208.041 95.2635 208.604 94.4597 208.604 93.0864V93.0737C208.604 91.7131 208.035 90.8966 207.061 90.8966C206.079 90.8966 205.516 91.7131 205.516 93.0737V93.0864C205.516 94.4597 206.074 95.2635 207.061 95.2635Z" fill="#192325"/>
<path d="M71.1152 128.25V122.162H71.8745V127.567H74.8108V128.25H71.1152ZM77.456 128.33C76.4224 128.33 75.8908 127.723 75.8908 126.647V123.702H76.6249V126.47C76.6249 127.288 76.9202 127.681 77.6458 127.681C78.4474 127.681 78.8735 127.191 78.8735 126.394V123.702H79.6076V128.25H78.8735V127.571H78.806C78.5824 128.056 78.1226 128.33 77.456 128.33ZM80.9787 128.25V123.702H81.7127V124.386H81.7802C82.008 123.905 82.4341 123.622 83.1049 123.622C84.1258 123.622 84.6954 124.225 84.6954 125.305V128.25H83.9613V125.482C83.9613 124.664 83.6238 124.272 82.8982 124.272C82.1726 124.272 81.7127 124.761 81.7127 125.559V128.25H80.9787Z" fill="#5B6466"/>
<path d="M107.531 128.25V122.162H108.413L110.497 127.242H110.565L112.649 122.162H113.531V128.25H112.822V123.601H112.775L110.852 128.25H110.21L108.287 123.601H108.24V128.25H107.531ZM116.239 128.33C115.374 128.33 114.72 127.808 114.72 126.98V126.972C114.72 126.162 115.319 125.693 116.378 125.63L117.682 125.55V125.137C117.682 124.575 117.34 124.272 116.661 124.272C116.117 124.272 115.758 124.474 115.64 124.829L115.636 124.842H114.902L114.906 124.816C115.024 124.103 115.716 123.622 116.686 123.622C117.796 123.622 118.416 124.191 118.416 125.137V128.25H117.682V127.579H117.614C117.327 128.065 116.851 128.33 116.239 128.33ZM115.471 126.964C115.471 127.424 115.863 127.694 116.391 127.694C117.138 127.694 117.682 127.204 117.682 126.555V126.141L116.467 126.217C115.775 126.259 115.471 126.504 115.471 126.955V126.964ZM119.757 128.25V123.702H120.491V124.377H120.559C120.732 123.9 121.158 123.622 121.774 123.622C121.913 123.622 122.069 123.639 122.141 123.651V124.365C121.989 124.339 121.85 124.322 121.69 124.322C120.989 124.322 120.491 124.765 120.491 125.432V128.25H119.757Z" fill="#5B6466"/>
<path d="M143.395 128.25V122.162H144.277L146.361 127.242H146.429L148.512 122.162H149.394V128.25H148.685V123.601H148.639L146.715 128.25H146.074L144.151 123.601H144.104V128.25H143.395ZM152.71 128.33C151.411 128.33 150.626 127.419 150.626 125.993V125.989C150.626 124.584 151.428 123.622 152.664 123.622C153.9 123.622 154.651 124.542 154.651 125.9V126.187H151.377C151.398 127.128 151.917 127.677 152.727 127.677C153.343 127.677 153.723 127.386 153.845 127.111L153.862 127.073H154.596L154.588 127.107C154.431 127.723 153.782 128.33 152.71 128.33ZM152.66 124.276C151.985 124.276 151.47 124.736 151.389 125.601H153.904C153.828 124.702 153.331 124.276 152.66 124.276ZM157.651 128.33C156.376 128.33 155.562 127.407 155.562 125.964V125.955C155.562 124.542 156.372 123.622 157.646 123.622C158.751 123.622 159.414 124.259 159.548 125.069L159.553 125.094H158.823L158.819 125.082C158.705 124.635 158.3 124.272 157.646 124.272C156.828 124.272 156.313 124.93 156.313 125.955V125.964C156.313 127.01 156.836 127.681 157.646 127.681C158.257 127.681 158.646 127.411 158.815 126.905L158.823 126.879L159.548 126.875L159.541 126.921C159.355 127.744 158.743 128.33 157.651 128.33Z" fill="#5B6466"/>
<path d="M182.765 128.394C181.71 128.394 181.115 127.74 181.052 126.866L181.048 126.807H181.806L181.811 126.85C181.858 127.309 182.157 127.694 182.76 127.694C183.435 127.694 183.798 127.293 183.798 126.55V122.162H184.558V126.558C184.558 127.71 183.891 128.394 182.765 128.394ZM187.873 128.33C186.574 128.33 185.79 127.419 185.79 125.993V125.989C185.79 124.584 186.591 123.622 187.827 123.622C189.063 123.622 189.814 124.542 189.814 125.9V126.187H186.54C186.561 127.128 187.08 127.677 187.89 127.677C188.506 127.677 188.886 127.386 189.008 127.111L189.025 127.073H189.759L189.751 127.107C189.595 127.723 188.945 128.33 187.873 128.33ZM187.823 124.276C187.147 124.276 186.633 124.736 186.553 125.601H189.067C188.991 124.702 188.494 124.276 187.823 124.276ZM192.476 128.33C191.442 128.33 190.911 127.723 190.911 126.647V123.702H191.645V126.47C191.645 127.288 191.94 127.681 192.666 127.681C193.468 127.681 193.894 127.191 193.894 126.394V123.702H194.628V128.25H193.894V127.571H193.826C193.602 128.056 193.143 128.33 192.476 128.33Z" fill="#5B6466"/>
<path d="M219.565 128.25L217.321 122.162H218.118L219.906 127.268H219.974L221.763 122.162H222.56L220.316 128.25H219.565ZM224.969 128.33C223.67 128.33 222.885 127.419 222.885 125.993V125.989C222.885 124.584 223.686 123.622 224.922 123.622C226.159 123.622 226.91 124.542 226.91 125.9V126.187H223.636C223.657 127.128 224.176 127.677 224.986 127.677C225.602 127.677 225.981 127.386 226.104 127.111L226.12 127.073H226.855L226.846 127.107C226.69 127.723 226.04 128.33 224.969 128.33ZM224.918 124.276C224.243 124.276 223.729 124.736 223.649 125.601H226.163C226.087 124.702 225.589 124.276 224.918 124.276ZM228.049 128.25V123.702H228.783V124.386H228.85C229.078 123.905 229.504 123.622 230.175 123.622C231.196 123.622 231.765 124.225 231.765 125.305V128.25H231.032V125.482C231.032 124.664 230.694 124.272 229.968 124.272C229.242 124.272 228.783 124.761 228.783 125.559V128.25H228.049Z" fill="#5B6466"/>
<path d="M255.314 128.394C253.982 128.394 253.12 127.694 253.032 126.702L253.028 126.655H253.787L253.792 126.702C253.846 127.309 254.479 127.694 255.357 127.694C256.183 127.694 256.787 127.268 256.787 126.647V126.643C256.787 126.136 256.437 125.791 255.602 125.605L254.926 125.457C253.707 125.187 253.18 124.626 253.18 123.744V123.74C253.184 122.732 254.066 122.019 255.323 122.019C256.538 122.019 257.386 122.736 257.449 123.643L257.453 123.702H256.694L256.685 123.647C256.601 123.111 256.095 122.715 255.302 122.719C254.542 122.723 253.956 123.082 253.956 123.719V123.723C253.956 124.209 254.289 124.538 255.116 124.719L255.791 124.871C257.061 125.153 257.563 125.664 257.563 126.542V126.546C257.563 127.685 256.673 128.394 255.314 128.394ZM259.985 128.33C259.12 128.33 258.466 127.808 258.466 126.98V126.972C258.466 126.162 259.065 125.693 260.124 125.63L261.427 125.55V125.137C261.427 124.575 261.086 124.272 260.406 124.272C259.863 124.272 259.504 124.474 259.385 124.829L259.382 124.842H258.647L258.652 124.816C258.77 124.103 259.462 123.622 260.432 123.622C261.542 123.622 262.162 124.191 262.162 125.137V128.25H261.427V127.579H261.36C261.073 128.065 260.596 128.33 259.985 128.33ZM259.217 126.964C259.217 127.424 259.609 127.694 260.136 127.694C260.883 127.694 261.427 127.204 261.427 126.555V126.141L260.212 126.217C259.521 126.259 259.217 126.504 259.217 126.955V126.964ZM263.503 128.25V123.702H264.237V124.394H264.305C264.507 123.905 264.937 123.622 265.533 123.622C266.148 123.622 266.579 123.947 266.79 124.42H266.857C267.101 123.939 267.621 123.622 268.249 123.622C269.177 123.622 269.696 124.154 269.696 125.107V128.25H268.962V125.276C268.962 124.605 268.654 124.272 268.013 124.272C267.38 124.272 266.962 124.749 266.962 125.326V128.25H266.228V125.162C266.228 124.622 265.857 124.272 265.283 124.272C264.689 124.272 264.237 124.79 264.237 125.432V128.25H263.503Z" fill="#5B6466"/>
<path d="M290.971 128.25V122.162H293.059C294.865 122.162 295.932 123.288 295.932 125.2V125.208C295.932 127.124 294.87 128.25 293.059 128.25H290.971ZM291.73 127.567H293.009C294.367 127.567 295.156 126.698 295.156 125.217V125.208C295.156 123.723 294.359 122.846 293.009 122.846H291.73V127.567ZM297.544 122.825C297.266 122.825 297.037 122.596 297.037 122.318C297.037 122.04 297.266 121.812 297.544 121.812C297.822 121.812 298.05 122.04 298.05 122.318C298.05 122.596 297.822 122.825 297.544 122.825ZM297.173 128.25V123.702H297.906V128.25H297.173ZM299.29 128.25V123.702H300.025V124.394H300.092C300.295 123.905 300.725 123.622 301.32 123.622C301.936 123.622 302.366 123.947 302.577 124.42H302.645C302.889 123.939 303.408 123.622 304.037 123.622C304.965 123.622 305.484 124.154 305.484 125.107V128.25H304.749V125.276C304.749 124.605 304.442 124.272 303.8 124.272C303.168 124.272 302.75 124.749 302.75 125.326V128.25H302.016V125.162C302.016 124.622 301.645 124.272 301.071 124.272C300.476 124.272 300.025 124.79 300.025 125.432V128.25H299.29Z" fill="#5B6466"/>
<path d="M261.485 156.51C260.032 156.51 259.053 155.625 258.96 154.458L258.955 154.394H260.126L260.131 154.428C260.225 155.009 260.761 155.472 261.489 155.472C262.321 155.472 262.892 154.886 262.892 154.049V154.039C262.892 153.213 262.311 152.631 261.499 152.631C261.1 152.631 260.756 152.75 260.495 152.986C260.367 153.094 260.249 153.232 260.165 153.39H259.078L259.422 149.231H263.684V150.274H260.411L260.215 152.435H260.298C260.593 151.957 261.145 151.672 261.814 151.672C263.138 151.672 264.098 152.657 264.098 154.015V154.025C264.098 155.502 263.02 156.51 261.485 156.51Z" fill="#192325"/>
<path d="M271.88 159.934H251V174.335H271.88V159.934Z" fill="#E7EBEB"/>
<path d="M258.261 202.418V196.565H258.177L256.41 197.815V196.619L258.266 195.315H259.531V202.418H258.261ZM261.504 202.418V201.562L263.837 199.179C264.802 198.204 265.072 197.845 265.072 197.299V197.284C265.072 196.629 264.625 196.157 263.886 196.157C263.134 196.157 262.626 196.654 262.626 197.388L262.622 197.407L261.44 197.402L261.435 197.388C261.435 196.063 262.469 195.138 263.95 195.138C265.333 195.138 266.327 195.98 266.327 197.176V197.19C266.327 197.998 265.939 198.638 264.644 199.883L263.222 201.262V201.365H266.435V202.418H261.504Z" fill="#192325"/>
<path d="M271.88 206.018H251V220.42H271.88V206.018Z" fill="#E7EBEB"/>
<path d="M258.068 248.503V242.65H257.985L256.218 243.9V242.704L258.073 241.4H259.338V248.503H258.068ZM263.832 241.223C265.348 241.223 266.667 242.301 266.667 244.86V244.87C266.667 247.262 265.589 248.68 263.802 248.68C262.498 248.68 261.523 247.907 261.297 246.819L261.287 246.765H262.537L262.552 246.814C262.74 247.312 263.177 247.636 263.802 247.636C264.93 247.636 265.407 246.534 265.461 245.175C265.461 245.121 265.466 245.067 265.466 245.013H265.368C265.107 245.574 264.486 246.071 263.512 246.071C262.148 246.071 261.194 245.077 261.194 243.728V243.718C261.194 242.276 262.292 241.223 263.832 241.223ZM263.827 245.097C264.63 245.097 265.244 244.516 265.244 243.714V243.703C265.244 242.891 264.63 242.256 263.842 242.256C263.059 242.256 262.434 242.881 262.434 243.674V243.684C262.434 244.506 263.02 245.097 263.827 245.097Z" fill="#192325"/>
<path d="M271.88 252.103H251V266.505H271.88V252.103Z" fill="#E7EBEB"/>
<path d="M188.015 156.476C186.459 156.476 185.44 155.629 185.347 154.414L185.343 154.355H186.553L186.558 154.409C186.627 155.009 187.183 155.438 188.015 155.438C188.837 155.438 189.383 154.98 189.383 154.32V154.31C189.383 153.562 188.832 153.148 187.922 153.148H187.085V152.204H187.896C188.679 152.204 189.201 151.76 189.201 151.14V151.13C189.201 150.481 188.763 150.097 188.005 150.097C187.257 150.097 186.74 150.496 186.676 151.13L186.671 151.18H185.49L185.495 151.126C185.603 149.895 186.573 149.088 188.005 149.088C189.467 149.088 190.416 149.851 190.416 150.963V150.973C190.416 151.854 189.782 152.44 188.93 152.617V152.642C189.974 152.74 190.668 153.36 190.668 154.344V154.355C190.668 155.605 189.59 156.476 188.015 156.476Z" fill="#192325"/>
<path d="M198.44 159.934H177.56V174.335H198.44V159.934Z" fill="#E7EBEB"/>
<path d="M184.638 202.418V196.565H184.555L182.788 197.815V196.619L184.643 195.315H185.908V202.418H184.638ZM190.485 202.595C188.797 202.595 187.783 201.163 187.783 198.869V198.859C187.783 196.565 188.797 195.138 190.485 195.138C192.174 195.138 193.198 196.565 193.198 198.859V198.869C193.198 201.163 192.174 202.595 190.485 202.595ZM190.485 201.566C191.391 201.566 191.917 200.552 191.917 198.869V198.859C191.917 197.176 191.391 196.171 190.485 196.171C189.58 196.171 189.063 197.176 189.063 198.859V198.869C189.063 200.552 189.58 201.566 190.485 201.566Z" fill="#192325"/>
<path d="M198.44 206.018H177.56V220.42H198.44V206.018Z" fill="#E7EBEB"/>
<path d="M185.008 248.503V242.65H184.924L183.156 243.9V242.704L185.013 241.4H186.277V248.503H185.008ZM188.561 248.503L191.647 242.517V242.438H187.985V241.4H192.927V242.458L189.89 248.503H188.561Z" fill="#192325"/>
<path d="M198.44 252.103H177.56V266.505H198.44V252.103Z" fill="#E7EBEB"/>
<path d="M114.55 156.333V150.481H114.466L112.699 151.731V150.535L114.555 149.231H115.82V156.333H114.55Z" fill="#192325"/>
<path d="M125 159.934H104.12V174.335H125V159.934Z" fill="#E7EBEB"/>
<path d="M114.56 202.561C112.926 202.561 111.789 201.714 111.789 200.498V200.488C111.789 199.578 112.453 198.874 113.398 198.682V198.653C112.586 198.436 112.045 197.841 112.045 197.077V197.067C112.045 195.975 113.088 195.173 114.56 195.173C116.032 195.173 117.075 195.975 117.075 197.067V197.077C117.075 197.841 116.534 198.436 115.722 198.653V198.682C116.672 198.874 117.331 199.578 117.331 200.488V200.498C117.331 201.714 116.194 202.561 114.56 202.561ZM114.56 198.249C115.303 198.249 115.82 197.815 115.82 197.195V197.185C115.82 196.565 115.303 196.133 114.56 196.133C113.817 196.133 113.3 196.565 113.3 197.185V197.195C113.3 197.815 113.817 198.249 114.56 198.249ZM114.56 201.591C115.412 201.591 116.017 201.099 116.017 200.415V200.405C116.017 199.716 115.416 199.219 114.56 199.219C113.699 199.219 113.103 199.716 113.103 200.405V200.415C113.103 201.099 113.709 201.591 114.56 201.591Z" fill="#192325"/>
<path d="M125 206.018H104.12V220.42H125V206.018Z" fill="#E7EBEB"/>
<path d="M111.287 248.503V242.65H111.203L109.436 243.9V242.704L111.292 241.4H112.557V248.503H111.287ZM117.095 248.68C115.643 248.68 114.663 247.794 114.57 246.628L114.565 246.564H115.736L115.741 246.597C115.835 247.179 116.371 247.642 117.1 247.642C117.931 247.642 118.502 247.055 118.502 246.219V246.209C118.502 245.382 117.922 244.801 117.109 244.801C116.711 244.801 116.366 244.919 116.105 245.156C115.977 245.264 115.859 245.401 115.776 245.559H114.688L115.032 241.4H119.295V242.443H116.022L115.825 244.604H115.909C116.204 244.127 116.755 243.841 117.424 243.841C118.748 243.841 119.708 244.826 119.708 246.184V246.194C119.708 247.671 118.63 248.68 117.095 248.68Z" fill="#192325"/>
<path d="M125 252.103H104.12V266.505H125V252.103Z" fill="#E7EBEB"/>
<path d="M75.9106 202.418L78.9966 196.433V196.354H75.3347V195.315H80.2763V196.373L77.2395 202.418H75.9106Z" fill="#192325"/>
<path d="M88.2799 206.018H67.3999V220.42H88.2799V206.018Z" fill="#E7EBEB"/>
<path d="M74.4439 248.503V242.65H74.3602L72.5933 243.9V242.704L74.4488 241.4H75.7137V248.503H74.4439ZM80.9654 248.503V247.139H77.4905V246.101C78.4109 244.501 79.4199 242.867 80.3846 241.4H82.1811V246.09H83.1359V247.139H82.1811V248.503H80.9654ZM78.6718 246.12H80.9851V242.414H80.9112C80.1828 243.526 79.3608 244.84 78.6718 246.047V246.12Z" fill="#192325"/>
<path d="M88.2799 252.103H67.3999V266.505H88.2799V252.103Z" fill="#E7EBEB"/>
<path d="M298.254 156.51C296.737 156.51 295.418 155.433 295.418 152.873V152.863C295.418 150.47 296.496 149.053 298.283 149.053C299.587 149.053 300.562 149.826 300.788 150.914L300.798 150.968H299.553L299.533 150.918C299.346 150.422 298.908 150.097 298.283 150.097C297.156 150.097 296.678 151.199 296.624 152.558C296.624 152.612 296.619 152.666 296.619 152.72H296.718C296.978 152.159 297.599 151.662 298.573 151.662C299.937 151.662 300.892 152.657 300.892 154.005V154.015C300.892 155.457 299.794 156.51 298.254 156.51ZM296.841 154.03C296.841 154.842 297.456 155.477 298.244 155.477C299.031 155.477 299.651 154.851 299.651 154.059V154.049C299.651 153.228 299.066 152.636 298.259 152.636C297.456 152.636 296.841 153.218 296.841 154.02V154.03Z" fill="#192325"/>
<path d="M308.6 159.934H287.72V174.335H308.6V159.934Z" fill="#E7EBEB"/>
<path d="M294.852 202.418V196.565H294.769L293.002 197.815V196.619L294.857 195.315H296.122V202.418H294.852ZM300.665 202.561C299.11 202.561 298.091 201.714 297.997 200.498L297.993 200.439H299.203L299.208 200.493C299.277 201.094 299.833 201.522 300.665 201.522C301.487 201.522 302.034 201.064 302.034 200.405V200.395C302.034 199.646 301.482 199.233 300.572 199.233H299.735V198.288H300.547C301.329 198.288 301.851 197.845 301.851 197.225V197.215C301.851 196.565 301.414 196.181 300.656 196.181C299.907 196.181 299.391 196.58 299.326 197.215L299.321 197.264H298.141L298.145 197.21C298.254 195.98 299.223 195.173 300.656 195.173C302.117 195.173 303.067 195.935 303.067 197.048V197.058C303.067 197.938 302.433 198.525 301.581 198.702V198.726C302.624 198.825 303.318 199.445 303.318 200.429V200.439C303.318 201.689 302.24 202.561 300.665 202.561Z" fill="#192325"/>
<path d="M308.6 206.018H287.72V220.42H308.6V206.018Z" fill="#E7EBEB"/>
<path d="M292.382 248.503V247.647L294.715 245.264C295.68 244.289 295.95 243.93 295.95 243.384V243.369C295.95 242.714 295.503 242.242 294.764 242.242C294.011 242.242 293.504 242.739 293.504 243.472L293.499 243.492L292.318 243.487L292.313 243.472C292.313 242.148 293.346 241.223 294.828 241.223C296.211 241.223 297.205 242.065 297.205 243.261V243.275C297.205 244.082 296.817 244.722 295.522 245.967L294.099 247.346V247.449H297.313V248.503H292.382ZM301.325 248.68C299.637 248.68 298.623 247.248 298.623 244.953V244.944C298.623 242.65 299.637 241.223 301.325 241.223C303.013 241.223 304.037 242.65 304.037 244.944V244.953C304.037 247.248 303.013 248.68 301.325 248.68ZM301.325 247.651C302.23 247.651 302.757 246.637 302.757 244.953V244.944C302.757 243.261 302.23 242.256 301.325 242.256C300.419 242.256 299.903 243.261 299.903 244.944V244.953C299.903 246.637 300.419 247.651 301.325 247.651Z" fill="#192325"/>
<path d="M308.6 252.103H287.72V266.505H308.6V252.103Z" fill="#E7EBEB"/>
<path d="M225.355 156.333V154.97H221.88V153.931C222.801 152.331 223.809 150.697 224.774 149.231H226.57V153.921H227.525V154.97H226.57V156.333H225.355ZM223.061 153.951H225.375V150.244H225.301C224.572 151.357 223.75 152.671 223.061 153.877V153.951Z" fill="#192325"/>
<path d="M235.16 159.934H214.28V174.335H235.16V159.934Z" fill="#E7EBEB"/>
<path d="M222.22 202.418V196.565H222.136L220.369 197.815V196.619L222.225 195.315H223.49V202.418H222.22ZM227.201 202.418V196.565H227.117L225.35 197.815V196.619L227.206 195.315H228.471V202.418H227.201Z" fill="#192325"/>
<path d="M235.16 206.018H214.28V220.42H235.16V206.018Z" fill="#E7EBEB"/>
<path d="M221.314 248.503V242.65H221.23L219.463 243.9V242.704L221.319 241.4H222.584V248.503H221.314ZM227.211 248.645C225.576 248.645 224.439 247.798 224.439 246.583V246.573C224.439 245.663 225.104 244.959 226.049 244.767V244.737C225.237 244.521 224.696 243.925 224.696 243.162V243.152C224.696 242.059 225.739 241.257 227.211 241.257C228.682 241.257 229.726 242.059 229.726 243.152V243.162C229.726 243.925 229.184 244.521 228.372 244.737V244.767C229.322 244.959 229.982 245.663 229.982 246.573V246.583C229.982 247.798 228.845 248.645 227.211 248.645ZM227.211 244.333C227.954 244.333 228.471 243.9 228.471 243.28V243.27C228.471 242.65 227.954 242.217 227.211 242.217C226.468 242.217 225.951 242.65 225.951 243.27V243.28C225.951 243.9 226.468 244.333 227.211 244.333ZM227.211 247.676C228.062 247.676 228.667 247.184 228.667 246.499V246.489C228.667 245.8 228.067 245.303 227.211 245.303C226.349 245.303 225.754 245.8 225.754 246.489V246.499C225.754 247.184 226.359 247.676 227.211 247.676Z" fill="#192325"/>
<path d="M235.16 252.103H214.28V266.505H235.16V252.103Z" fill="#E7EBEB"/>
<path d="M148.854 156.333V155.477L151.186 153.094C152.151 152.119 152.422 151.76 152.422 151.214V151.199C152.422 150.545 151.974 150.072 151.235 150.072C150.483 150.072 149.975 150.569 149.975 151.303L149.971 151.322L148.789 151.317L148.784 151.303C148.784 149.979 149.818 149.053 151.299 149.053C152.683 149.053 153.677 149.895 153.677 151.091V151.106C153.677 151.913 153.288 152.553 151.993 153.798L150.571 155.177V155.28H153.785V156.333H148.854Z" fill="#192325"/>
<path d="M161.72 159.934H140.84V174.335H161.72V159.934Z" fill="#E7EBEB"/>
<path d="M151.181 195.138C152.698 195.138 154.017 196.216 154.017 198.775V198.785C154.017 201.177 152.939 202.595 151.152 202.595C149.848 202.595 148.873 201.823 148.647 200.735L148.637 200.681H149.887L149.902 200.729C150.089 201.227 150.527 201.552 151.152 201.552C152.279 201.552 152.757 200.449 152.811 199.091C152.811 199.037 152.816 198.983 152.816 198.928H152.717C152.456 199.49 151.836 199.986 150.862 199.986C149.498 199.986 148.543 198.992 148.543 197.643V197.633C148.543 196.192 149.641 195.138 151.181 195.138ZM151.176 199.012C151.979 199.012 152.594 198.431 152.594 197.629V197.619C152.594 196.807 151.979 196.171 151.191 196.171C150.409 196.171 149.784 196.796 149.784 197.589V197.599C149.784 198.421 150.369 199.012 151.176 199.012Z" fill="#192325"/>
<path d="M161.72 206.018H140.84V220.42H161.72V206.018Z" fill="#E7EBEB"/>
<path d="M147.908 248.503V242.65H147.825L146.058 243.9V242.704L147.913 241.4H149.178V248.503H147.908ZM153.864 248.68C152.348 248.68 151.029 247.602 151.029 245.042V245.033C151.029 242.64 152.107 241.223 153.894 241.223C155.198 241.223 156.172 241.995 156.399 243.083L156.409 243.137H155.164L155.144 243.088C154.956 242.591 154.519 242.266 153.894 242.266C152.766 242.266 152.289 243.369 152.235 244.727C152.235 244.781 152.23 244.835 152.23 244.889H152.328C152.589 244.328 153.21 243.832 154.184 243.832C155.547 243.832 156.502 244.826 156.502 246.175V246.184C156.502 247.626 155.405 248.68 153.864 248.68ZM152.451 246.199C152.451 247.011 153.066 247.647 153.854 247.647C154.642 247.647 155.262 247.021 155.262 246.229V246.219C155.262 245.397 154.676 244.806 153.869 244.806C153.066 244.806 152.451 245.387 152.451 246.189V246.199Z" fill="#192325"/>
<path d="M161.72 252.103H140.84V266.505H161.72V252.103Z" fill="#E7EBEB"/>
</g>
</g>
<rect x="51" y="24" width="274" height="395" rx="26" stroke="white" stroke-width="4"/>
<g filter="url(#filter1_dd_7302_4065)">
<path d="M274.751 143C287.953 143 300.859 146.921 311.836 154.268C322.813 161.614 331.369 172.056 336.421 184.273C341.473 196.49 342.795 209.933 340.22 222.902C337.644 235.871 331.287 247.784 321.952 257.135C312.616 266.485 300.722 272.853 287.774 275.432C274.825 278.012 261.404 276.688 249.206 271.628C237.01 266.567 226.585 257.998 219.25 247.003C211.915 236.008 208 223.082 208 209.858V143H274.751Z" fill="#2D00B1"/>
<rect x="254" y="243" width="40.8889" height="13.3333" rx="6.66667" fill="#E2F6F0"/>
<path d="M260.983 252.284C259.652 252.284 258.825 251.34 258.825 249.823V249.816C258.825 248.293 259.649 247.352 260.98 247.352C262.048 247.352 262.858 248.029 262.969 248.99V249.016H262.146L262.142 249.003C262.022 248.446 261.573 248.078 260.98 248.078C260.183 248.078 259.685 248.745 259.685 249.813V249.82C259.685 250.891 260.183 251.558 260.983 251.558C261.579 251.558 262.022 251.226 262.142 250.708L262.146 250.692H262.969V250.715C262.845 251.656 262.067 252.284 260.983 252.284ZM263.854 252.167V247.232H264.665V249.152H264.72C264.89 248.772 265.231 248.54 265.746 248.54C266.54 248.54 266.973 249.019 266.973 249.865V252.167H266.162V250.054C266.162 249.501 265.938 249.221 265.446 249.221C264.965 249.221 264.665 249.559 264.665 250.093V252.167H263.854ZM269.453 252.238C268.396 252.238 267.754 251.529 267.754 250.396V250.393C267.754 249.273 268.402 248.54 269.414 248.54C270.427 248.54 271.052 249.25 271.052 250.324V250.591H268.565C268.575 251.229 268.92 251.6 269.47 251.6C269.909 251.6 270.16 251.379 270.238 251.216L270.248 251.193H271.019L271.009 251.223C270.896 251.682 270.42 252.238 269.453 252.238ZM269.424 249.175C268.972 249.175 268.633 249.481 268.571 250.048H270.261C270.205 249.465 269.877 249.175 269.424 249.175ZM272.832 252.225C272.155 252.225 271.664 251.809 271.664 251.161V251.154C271.664 250.52 272.149 250.148 273.015 250.096L273.929 250.041V249.735C273.929 249.38 273.698 249.185 273.262 249.185C272.891 249.185 272.65 249.318 272.569 249.553L272.565 249.566H271.8L271.804 249.536C271.882 248.938 272.455 248.54 273.301 248.54C274.216 248.54 274.73 248.983 274.73 249.735V252.167H273.929V251.678H273.874C273.679 252.023 273.301 252.225 272.832 252.225ZM272.465 251.122C272.465 251.424 272.722 251.604 273.08 251.604C273.568 251.604 273.929 251.285 273.929 250.861V250.575L273.129 250.627C272.676 250.656 272.465 250.822 272.465 251.115V251.122ZM275.703 253.348V248.609H276.514V249.165H276.569C276.765 248.778 277.152 248.55 277.65 248.55C278.542 248.55 279.112 249.26 279.112 250.386V250.393C279.112 251.525 278.552 252.225 277.65 252.225C277.162 252.225 276.755 251.984 276.569 251.6H276.514V253.348H275.703ZM277.396 251.542C277.95 251.542 278.285 251.105 278.285 250.393V250.386C278.285 249.67 277.95 249.234 277.396 249.234C276.846 249.234 276.504 249.67 276.504 250.383V250.389C276.504 251.102 276.846 251.542 277.396 251.542ZM281.452 252.238C280.394 252.238 279.753 251.529 279.753 250.396V250.393C279.753 249.273 280.401 248.54 281.413 248.54C282.425 248.54 283.05 249.25 283.05 250.324V250.591H280.563C280.573 251.229 280.918 251.6 281.468 251.6C281.908 251.6 282.159 251.379 282.237 251.216L282.246 251.193H283.018L283.008 251.223C282.894 251.682 282.419 252.238 281.452 252.238ZM281.423 249.175C280.97 249.175 280.632 249.481 280.57 250.048H282.259C282.204 249.465 281.875 249.175 281.423 249.175ZM285.205 252.238C284.3 252.238 283.754 251.822 283.685 251.219V251.213H284.489L284.493 251.219C284.577 251.467 284.815 251.639 285.218 251.639C285.622 251.639 285.902 251.457 285.902 251.19V251.184C285.902 250.975 285.746 250.839 285.355 250.751L284.779 250.62C284.102 250.471 283.78 250.152 283.78 249.628V249.624C283.78 248.983 284.366 248.54 285.205 248.54C286.071 248.54 286.589 248.97 286.641 249.546V249.553H285.879L285.876 249.543C285.817 249.318 285.583 249.136 285.202 249.136C284.841 249.136 284.58 249.312 284.58 249.579V249.582C284.58 249.79 284.73 249.917 285.114 250.005L285.69 250.132C286.387 250.288 286.716 250.585 286.716 251.102V251.109C286.716 251.786 286.081 252.238 285.205 252.238ZM288.907 252.183C288.09 252.183 287.754 251.91 287.754 251.223V249.237H287.201V248.609H287.754V247.736H288.578V248.609H289.33V249.237H288.578V251.031C288.578 251.385 288.718 251.535 289.056 251.535C289.17 251.535 289.232 251.532 289.33 251.522V252.147C289.213 252.17 289.063 252.183 288.907 252.183Z" fill="#0C732B"/>
</g>
<path d="M266.508 199H262.217V178.574H255.2V175.489C259.223 175.4 261.994 173.165 262.664 170.036H266.508V199ZM271.494 197.972L272.924 194.352C274.176 195.111 276.321 195.737 278.198 195.737C285.216 195.737 288.076 191.133 288.255 185.457C287.227 187.379 284.679 189.167 280.746 189.167C275.74 189.167 270.734 185.77 270.734 179.378C270.734 173.389 275.74 169.366 281.416 169.366C287.093 169.366 292.68 173.433 292.68 182.686C292.68 193.324 287.942 199.67 278.198 199.67C275.963 199.67 272.924 198.955 271.494 197.972ZM287.674 179.289C287.674 175.534 284.59 173.21 281.416 173.21C278.198 173.21 275.159 175.489 275.159 179.289C275.159 183.222 278.109 185.412 281.416 185.412C284.635 185.412 287.674 183.133 287.674 179.289Z" fill="white"/>
<rect x="257" y="208" width="35.7574" height="25.7007" rx="2.23484" fill="#FFDC50"/>
<path d="M268.846 228.616V227.141C266.769 226.949 265.049 225.683 264.979 223.658V223.649L266.498 223.64V223.658C266.655 224.74 267.327 225.604 268.846 225.77V221.571L268.646 221.519C266.472 220.995 265.302 220.026 265.302 218.315V218.297C265.302 216.429 266.777 215.155 268.846 214.963V213.487H269.894V214.963C271.911 215.146 273.473 216.455 273.543 218.376V218.385L272.024 218.394V218.376C271.911 217.206 271.072 216.482 269.894 216.333V220.34L270.165 220.401C272.408 220.943 273.665 221.868 273.665 223.693V223.71C273.665 225.805 271.954 226.984 269.894 227.15V228.616H268.846ZM266.821 218.21C266.821 219.057 267.345 219.72 268.846 220.087V216.333C267.519 216.517 266.821 217.355 266.821 218.193V218.21ZM269.946 221.833L269.894 221.824V225.788C271.518 225.657 272.146 224.836 272.146 223.832V223.815C272.146 222.863 271.675 222.252 269.946 221.833ZM280.527 227.647C278.179 227.647 276.502 226.137 276.319 224.12L276.31 224.024H277.821L277.829 224.094C277.978 225.299 279.069 226.259 280.544 226.259C282.22 226.259 283.373 225.063 283.373 223.361V223.343C283.373 221.667 282.203 220.471 280.571 220.471C279.732 220.471 279.017 220.724 278.475 221.239C278.257 221.449 278.056 221.693 277.899 221.99H276.537L277.201 214.753H284.211V216.159H278.44L278.013 220.419H278.152C278.711 219.572 279.698 219.109 280.841 219.109C283.207 219.109 284.909 220.882 284.909 223.317V223.335C284.909 225.875 283.085 227.647 280.527 227.647Z" fill="#192325"/>
</g>
<defs>
<filter id="filter0_dd_7302_4065" x="37" y="47.1234" width="302" height="502.928" filterUnits="userSpaceOnUse" color-interpolation-filters="sRGB">
<feFlood flood-opacity="0" result="BackgroundImageFix"/>
<feColorMatrix in="SourceAlpha" type="matrix" values="0 0 0 0 0 0 0 0 0 0 0 0 0 0 0 0 0 0 127 0" result="hardAlpha"/>
<feOffset dy="4"/>
<feGaussianBlur stdDeviation="8"/>
<feColorMatrix type="matrix" values="0 0 0 0 0 0 0 0 0 0 0 0 0 0 0 0 0 0 0.12 0"/>
<feBlend mode="normal" in2="BackgroundImageFix" result="effect1_dropShadow_7302_4065"/>
<feColorMatrix in="SourceAlpha" type="matrix" values="0 0 0 0 0 0 0 0 0 0 0 0 0 0 0 0 0 0 127 0" result="hardAlpha"/>
<feOffset/>
<feGaussianBlur stdDeviation="2"/>
<feColorMatrix type="matrix" values="0 0 0 0 0 0 0 0 0 0 0 0 0 0 0 0 0 0 0.12 0"/>
<feBlend mode="normal" in2="effect1_dropShadow_7302_4065" result="effect2_dropShadow_7302_4065"/>
<feBlend mode="normal" in="SourceGraphic" in2="effect2_dropShadow_7302_4065" result="shape"/>
</filter>
<filter id="filter1_dd_7302_4065" x="200" y="139" width="149.502" height="149.717" filterUnits="userSpaceOnUse" color-interpolation-filters="sRGB">
<feFlood flood-opacity="0" result="BackgroundImageFix"/>
<feColorMatrix in="SourceAlpha" type="matrix" values="0 0 0 0 0 0 0 0 0 0 0 0 0 0 0 0 0 0 127 0" result="hardAlpha"/>
<feOffset dy="4"/>
<feGaussianBlur stdDeviation="4"/>
<feColorMatrix type="matrix" values="0 0 0 0 0.0980392 0 0 0 0 0.137255 0 0 0 0 0.145098 0 0 0 0.12 0"/>
<feBlend mode="normal" in2="BackgroundImageFix" result="effect1_dropShadow_7302_4065"/>
<feColorMatrix in="SourceAlpha" type="matrix" values="0 0 0 0 0 0 0 0 0 0 0 0 0 0 0 0 0 0 127 0" result="hardAlpha"/>
<feOffset/>
<feGaussianBlur stdDeviation="2"/>
<feColorMatrix type="matrix" values="0 0 0 0 0.0980392 0 0 0 0 0.137255 0 0 0 0 0.145098 0 0 0 0.12 0"/>
<feBlend mode="normal" in2="effect1_dropShadow_7302_4065" result="effect2_dropShadow_7302_4065"/>
<feBlend mode="normal" in="SourceGraphic" in2="effect2_dropShadow_7302_4065" result="shape"/>
</filter>
<clipPath id="clip0_7302_4065">
<rect width="375" height="290" fill="white"/>
</clipPath>
<clipPath id="clip1_7302_4065">
<rect x="53" y="26" width="270" height="391" rx="24" fill="white"/>
</clipPath>
</defs>
</svg>
