
<svg width="647" height="473" viewBox="0 0 647 473" fill="none" xmlns="http://www.w3.org/2000/svg">
<g clip-path="url(#clip0_7295_37984)">
<g filter="url(#filter0_dd_7295_37984)">
<path fill-rule="evenodd" clip-rule="evenodd" d="M0.0396409 40.0396C0.0177542 17.9328 17.9328 0 40.0396 0H530C552.091 0 570 17.9086 570 40V490C570 512.091 552.091 530 530 530H40.4852C18.4092 530 0.507015 512.116 0.485159 490.04L0.0396409 40.0396Z" fill="white"/>
<rect x="35.9397" y="34.5" width="31" height="31" rx="15.5" fill="#F2F4F4" stroke="#D0D4D5"/>
<path d="M49.8539 50L53.1468 53.2929C53.5373 53.6834 53.5373 54.3166 53.1468 54.7071C52.7563 55.0976 52.1231 55.0976 51.7326 54.7071L47.7326 50.7071C47.3421 50.3166 47.3421 49.6834 47.7326 49.2929L51.7326 45.2929C52.1231 44.9024 52.7563 44.9024 53.1468 45.2929C53.5373 45.6834 53.5373 46.3166 53.1468 46.7071L49.8539 50Z" fill="#8A9497"/>
<path d="M254.343 56L258.746 43.3174H261.866L266.279 56H263.484L262.543 52.9238H258.07L257.129 56H254.343ZM260.232 45.8486L258.676 50.9375H261.937L260.39 45.8486H260.232ZM270.849 56.2021C268.678 56.2021 267.562 54.8838 267.562 52.5811V46.3232H270.128V51.9922C270.128 53.3633 270.647 54.0752 271.86 54.0752C273.125 54.0752 273.811 53.2227 273.811 51.9131V46.3232H276.377V56H273.811V54.5059H273.653C273.213 55.5605 272.229 56.2021 270.849 56.2021ZM283.224 59.4014C280.543 59.4014 278.988 58.2764 278.777 56.6328V56.5889H281.317L281.325 56.624C281.466 57.1865 282.134 57.5732 283.277 57.5732C284.648 57.5732 285.448 56.9316 285.448 55.8066V54.0049H285.289C284.753 55.0244 283.734 55.5781 282.389 55.5781C279.954 55.5781 278.451 53.6973 278.451 50.9463V50.9287C278.451 48.0811 279.954 46.165 282.433 46.165C283.76 46.165 284.797 46.8154 285.316 47.9053H285.439V46.3232H288.005V55.7012C288.005 57.9688 286.151 59.4014 283.224 59.4014ZM283.259 53.6094C284.648 53.6094 285.474 52.5283 285.474 50.9375V50.9199C285.474 49.3291 284.639 48.248 283.259 48.248C281.879 48.248 281.079 49.3291 281.079 50.9199V50.9375C281.079 52.5283 281.87 53.6094 283.259 53.6094ZM293.771 56.2021C291.6 56.2021 290.484 54.8838 290.484 52.5811V46.3232H293.05V51.9922C293.05 53.3633 293.569 54.0752 294.781 54.0752C296.047 54.0752 296.733 53.2227 296.733 51.9131V46.3232H299.299V56H296.733V54.5059H296.574C296.135 55.5605 295.151 56.2021 293.771 56.2021ZM305.724 56.2021C303.096 56.2021 301.602 55.0244 301.417 53.3633L301.408 53.3281H303.931L303.948 53.3633C304.151 53.9609 304.74 54.3916 305.75 54.3916C306.735 54.3916 307.403 53.9697 307.403 53.3281V53.3105C307.403 52.792 307.016 52.4668 306.031 52.2471L304.414 51.9043C302.569 51.5088 301.655 50.6035 301.655 49.1533V49.1445C301.655 47.3252 303.272 46.1123 305.689 46.1123C308.229 46.1123 309.635 47.3779 309.74 48.9336V48.9688H307.359L307.35 48.9248C307.209 48.4062 306.638 47.9229 305.68 47.9229C304.792 47.9229 304.159 48.3359 304.159 48.9863V48.9951C304.159 49.5137 304.52 49.8125 305.522 50.0322L307.13 50.375C309.064 50.7881 309.969 51.5967 309.969 53.0293V53.0381C309.969 54.9541 308.202 56.2021 305.724 56.2021ZM316.033 56.0352C313.678 56.0352 312.729 55.2705 312.729 53.3896V48.2568H311.235V46.3232H312.729V44.0117H315.322V46.3232H317.317V48.2568H315.322V52.8008C315.322 53.6709 315.691 54.0576 316.561 54.0576C316.895 54.0576 317.071 54.04 317.317 54.0137V55.9209C317 55.9824 316.526 56.0352 316.033 56.0352Z" fill="#192325"/>
<rect x="500.939" y="34.5" width="31" height="31" rx="15.5" fill="white" stroke="#D0D4D5"/>
<path d="M518.025 50L514.732 46.7071C514.342 46.3166 514.342 45.6834 514.732 45.2929C515.123 44.9024 515.756 44.9024 516.147 45.2929L520.147 49.2929C520.537 49.6834 520.537 50.3166 520.147 50.7071L516.147 54.7071C515.756 55.0976 515.123 55.0976 514.732 54.7071C514.342 54.3166 514.342 53.6834 514.732 53.2929L518.025 50Z" fill="#2332C4"/>
<path d="M58.9553 102.199C57.1038 102.199 55.9084 101.227 55.7854 99.8496L55.7795 99.7852H56.8342L56.8401 99.8496C56.9163 100.693 57.7952 101.227 59.0139 101.227C60.1624 101.227 61.0002 100.635 61.0002 99.7734V99.7676C61.0002 99.0645 60.5139 98.584 59.3538 98.3262L58.4163 98.1211C56.7229 97.7461 55.9905 96.9668 55.9905 95.7422V95.7363C55.9963 94.3359 57.2209 93.3457 58.967 93.3457C60.6545 93.3457 61.8323 94.3418 61.9202 95.6016L61.926 95.6836H60.8713L60.8596 95.6074C60.7424 94.8633 60.0393 94.3125 58.9377 94.3184C57.8831 94.3242 57.0686 94.8223 57.0686 95.707V95.7129C57.0686 96.3867 57.5315 96.8438 58.6799 97.0957L59.6174 97.3066C61.3811 97.6992 62.0784 98.4082 62.0784 99.627V99.6328C62.0784 101.215 60.842 102.199 58.9553 102.199ZM65.8225 102.111C64.387 102.111 63.6487 101.268 63.6487 99.7734V95.6836H64.6682V99.5273C64.6682 100.664 65.0784 101.209 66.0862 101.209C67.1995 101.209 67.7913 100.529 67.7913 99.4219V95.6836H68.8108V102H67.7913V101.057H67.6975C67.387 101.73 66.7483 102.111 65.8225 102.111ZM70.7151 102V95.6836H71.7346V96.6328H71.8284C72.1448 95.9648 72.7366 95.5723 73.6682 95.5723C75.0862 95.5723 75.8772 96.4102 75.8772 97.9102V102H74.8577V98.1562C74.8577 97.0195 74.3889 96.4746 73.3811 96.4746C72.3733 96.4746 71.7346 97.1543 71.7346 98.2617V102H70.7151Z" fill="#5B6466"/>
<path d="M62.8772 208L67.7756 198.5V198.375H61.9631V196.727H69.8069V198.406L64.9866 208H62.8772Z" fill="#192325"/>
<path d="M57.8391 229.991V228.836C56.2122 228.686 54.8655 227.694 54.8108 226.108V226.102L56.0002 226.095V226.108C56.1233 226.956 56.6497 227.633 57.8391 227.763V224.475L57.6819 224.434C55.9797 224.023 55.0637 223.265 55.0637 221.925V221.911C55.0637 220.448 56.219 219.45 57.8391 219.3V218.145H58.6594V219.3C60.2385 219.443 61.4622 220.469 61.5168 221.973V221.979L60.3274 221.986V221.973C60.2385 221.057 59.5823 220.489 58.6594 220.373V223.511L58.8713 223.559C60.6282 223.982 61.6125 224.707 61.6125 226.136V226.149C61.6125 227.79 60.2727 228.713 58.6594 228.843V229.991H57.8391ZM56.2532 221.843C56.2532 222.506 56.6633 223.025 57.8391 223.312V220.373C56.8 220.517 56.2532 221.173 56.2532 221.829V221.843ZM58.7004 224.68L58.6594 224.673V227.776C59.9309 227.674 60.4231 227.031 60.4231 226.245V226.231C60.4231 225.486 60.054 225.008 58.7004 224.68ZM66.1584 229V220.503H66.0491L63.5403 222.321V221.022L66.1653 219.136H67.3889V229H66.1584ZM73.7258 229.232C71.9211 229.232 70.0139 227.961 70.0139 224.249V224.235C70.0139 220.872 71.4153 218.903 73.8079 218.903C75.4622 218.903 76.6926 219.874 77.0276 221.33L77.0481 221.419H75.8108L75.7834 221.344C75.4827 220.517 74.7922 220.004 73.7942 220.004C72.0032 220.004 71.2717 221.754 71.1965 223.812C71.1897 223.887 71.1897 223.969 71.1897 224.044H71.3196C71.6819 223.237 72.6116 222.52 73.9446 222.52C75.7971 222.52 77.178 223.928 77.178 225.821V225.835C77.178 227.804 75.7151 229.232 73.7258 229.232ZM71.4836 225.821C71.4836 227.12 72.4612 228.146 73.7122 228.146C74.9495 228.146 75.9407 227.141 75.9407 225.862V225.849C75.9407 224.536 75.011 223.593 73.7327 223.593C72.4543 223.593 71.4836 224.529 71.4836 225.814V225.821Z" fill="#192325"/>
<path d="M60.5491 270V260.711H60.4163L57.6116 262.695V260.797L60.5569 258.727H62.5647V270H60.5491ZM70.9006 270V267.836H65.385V266.188C66.8459 263.648 68.4475 261.055 69.9788 258.727H72.8303V266.172H74.3459V267.836H72.8303V270H70.9006ZM67.26 266.219H70.9319V260.336H70.8147C69.6584 262.102 68.3538 264.188 67.26 266.102V266.219Z" fill="#192325"/>
<path d="M57.8391 291.991V290.836C56.2122 290.686 54.8655 289.694 54.8108 288.108V288.102L56.0002 288.095V288.108C56.1233 288.956 56.6497 289.633 57.8391 289.763V286.475L57.6819 286.434C55.9797 286.023 55.0637 285.265 55.0637 283.925V283.911C55.0637 282.448 56.219 281.45 57.8391 281.3V280.145H58.6594V281.3C60.2385 281.443 61.4622 282.469 61.5168 283.973V283.979L60.3274 283.986V283.973C60.2385 283.057 59.5823 282.489 58.6594 282.373V285.511L58.8713 285.559C60.6282 285.982 61.6125 286.707 61.6125 288.136V288.149C61.6125 289.79 60.2727 290.713 58.6594 290.843V291.991H57.8391ZM56.2532 283.843C56.2532 284.506 56.6633 285.025 57.8391 285.312V282.373C56.8 282.517 56.2532 283.173 56.2532 283.829V283.843ZM58.7004 286.68L58.6594 286.673V289.776C59.9309 289.674 60.4231 289.031 60.4231 288.245V288.231C60.4231 287.486 60.054 287.008 58.7004 286.68ZM66.1584 291V282.503H66.0491L63.5403 284.321V283.022L66.1653 281.136H67.3889V291H66.1584ZM73.4661 280.903C75.2708 280.903 77.178 282.175 77.178 285.887V285.9C77.178 289.264 75.7766 291.232 73.384 291.232C71.7297 291.232 70.4993 290.262 70.1643 288.806L70.1438 288.717H71.3811L71.4084 288.792C71.7092 289.619 72.3997 290.132 73.3977 290.132C75.1887 290.132 75.9202 288.382 75.9954 286.324C76.0022 286.249 76.0022 286.167 76.0022 286.092H75.8723C75.51 286.898 74.5803 287.616 73.2473 287.616C71.3948 287.616 70.0139 286.208 70.0139 284.314V284.301C70.0139 282.332 71.4768 280.903 73.4661 280.903ZM73.4592 286.543C74.7375 286.543 75.7083 285.606 75.7083 284.321V284.314C75.7083 283.016 74.7307 281.99 73.4797 281.99C72.2424 281.99 71.2512 282.995 71.2512 284.273V284.287C71.2512 285.6 72.1809 286.543 73.4592 286.543Z" fill="#5B6466"/>
<path d="M58.135 332V330.641L61.8381 326.859C63.3694 325.312 63.7991 324.742 63.7991 323.875V323.852C63.7991 322.812 63.0881 322.062 61.9163 322.062C60.7209 322.062 59.9163 322.852 59.9163 324.016L59.9084 324.047L58.0334 324.039L58.0256 324.016C58.0256 321.914 59.6663 320.445 62.0178 320.445C64.2131 320.445 65.7913 321.781 65.7913 323.68V323.703C65.7913 324.984 65.1741 326 63.1194 327.977L60.8616 330.164V330.328H65.9631V332H58.135ZM70.9553 332V322.711H70.8225L68.0178 324.695V322.797L70.9631 320.727H72.9709V332H70.9553Z" fill="#192325"/>
<path d="M55.4192 353V344.503H55.3098L52.801 346.321V345.022L55.426 343.136H56.6497V353H55.4192ZM62.802 353.232C60.6213 353.232 59.3225 351.243 59.3225 348.071V348.058C59.3225 344.886 60.6213 342.903 62.802 342.903C64.9827 342.903 66.2952 344.886 66.2952 348.058V348.071C66.2952 351.243 64.9827 353.232 62.802 353.232ZM62.802 352.159C64.217 352.159 65.0579 350.587 65.0579 348.071V348.058C65.0579 345.542 64.217 343.983 62.802 343.983C61.387 343.983 60.5598 345.542 60.5598 348.058V348.071C60.5598 350.587 61.387 352.159 62.802 352.159ZM71.7024 349.452V348.632H73.0491C73.0354 348.454 73.0286 348.263 73.0286 348.071V348.058C73.0286 347.853 73.0354 347.661 73.0559 347.47H71.7024V346.649H73.1858C73.7463 344.339 75.7151 343.279 77.9573 343.279C78.47 343.279 79.1399 343.334 79.427 343.43V344.537C79.1262 344.462 78.47 344.414 77.9573 344.414C76.3098 344.414 74.9905 345.125 74.4983 346.649H78.1692V347.47H74.3274C74.3069 347.661 74.2932 347.866 74.2932 348.078V348.092C74.2932 348.276 74.3 348.461 74.3206 348.632H78.1692V349.452H74.4778C74.9563 351.004 76.2893 351.722 77.9573 351.722C78.47 351.722 79.1262 351.688 79.427 351.599V352.706C79.1467 352.809 78.47 352.856 77.9573 352.856C75.6946 352.856 73.7258 351.776 73.179 349.452H71.7024Z" fill="#5B6466"/>
<path d="M127.725 102V93.5449H128.949L131.844 100.6H131.938L134.832 93.5449H136.057V102H135.073V95.543H135.008L132.336 102H131.446L128.774 95.543H128.709V102H127.725ZM140.68 102.111C138.881 102.111 137.768 100.869 137.768 98.8477V98.8359C137.768 96.8086 138.881 95.5723 140.68 95.5723C142.479 95.5723 143.592 96.8086 143.592 98.8359V98.8477C143.592 100.869 142.479 102.111 140.68 102.111ZM140.68 101.209C141.875 101.209 142.549 100.336 142.549 98.8477V98.8359C142.549 97.3418 141.875 96.4746 140.68 96.4746C139.485 96.4746 138.811 97.3418 138.811 98.8359V98.8477C138.811 100.336 139.485 101.209 140.68 101.209ZM145.174 102V95.6836H146.194V96.6328H146.287C146.604 95.9648 147.196 95.5723 148.127 95.5723C149.545 95.5723 150.336 96.4102 150.336 97.9102V102H149.317V98.1562C149.317 97.0195 148.848 96.4746 147.84 96.4746C146.832 96.4746 146.194 97.1543 146.194 98.2617V102H145.174Z" fill="#5B6466"/>
<path d="M138.924 146V136.711H138.791L135.987 138.695V136.797L138.932 134.727H140.94V146H138.924Z" fill="#192325"/>
<path d="M130.839 167.991V166.836C129.212 166.686 127.865 165.694 127.811 164.108V164.102L129 164.095V164.108C129.123 164.956 129.65 165.633 130.839 165.763V162.475L130.682 162.434C128.98 162.023 128.064 161.265 128.064 159.925V159.911C128.064 158.448 129.219 157.45 130.839 157.3V156.145H131.659V157.3C133.239 157.443 134.462 158.469 134.517 159.973V159.979L133.327 159.986V159.973C133.239 159.057 132.582 158.489 131.659 158.373V161.511L131.871 161.559C133.628 161.982 134.613 162.707 134.613 164.136V164.149C134.613 165.79 133.273 166.713 131.659 166.843V167.991H130.839ZM129.253 159.843C129.253 160.506 129.663 161.025 130.839 161.312V158.373C129.8 158.517 129.253 159.173 129.253 159.829V159.843ZM131.7 162.68L131.659 162.673V165.776C132.931 165.674 133.423 165.031 133.423 164.245V164.231C133.423 163.486 133.054 163.008 131.7 162.68ZM139.158 167V158.503H139.049L136.54 160.321V159.022L139.165 157.136H140.389V167H139.158ZM146.726 167.232C144.921 167.232 143.014 165.961 143.014 162.249V162.235C143.014 158.872 144.415 156.903 146.808 156.903C148.462 156.903 149.693 157.874 150.028 159.33L150.048 159.419H148.811L148.783 159.344C148.483 158.517 147.792 158.004 146.794 158.004C145.003 158.004 144.272 159.754 144.197 161.812C144.19 161.887 144.19 161.969 144.19 162.044H144.32C144.682 161.237 145.612 160.52 146.945 160.52C148.797 160.52 150.178 161.928 150.178 163.821V163.835C150.178 165.804 148.715 167.232 146.726 167.232ZM144.484 163.821C144.484 165.12 145.461 166.146 146.712 166.146C147.949 166.146 148.941 165.141 148.941 163.862V163.849C148.941 162.536 148.011 161.593 146.733 161.593C145.454 161.593 144.484 162.529 144.484 163.814V163.821Z" fill="#5B6466"/>
<path d="M138.94 208.227C136.346 208.227 134.541 206.883 134.541 204.953V204.938C134.541 203.492 135.596 202.375 137.096 202.07V202.023C135.807 201.68 134.948 200.734 134.948 199.523V199.508C134.948 197.773 136.604 196.5 138.94 196.5C141.276 196.5 142.932 197.773 142.932 199.508V199.523C142.932 200.734 142.073 201.68 140.783 202.023V202.07C142.291 202.375 143.338 203.492 143.338 204.938V204.953C143.338 206.883 141.533 208.227 138.94 208.227ZM138.94 201.383C140.119 201.383 140.94 200.695 140.94 199.711V199.695C140.94 198.711 140.119 198.023 138.94 198.023C137.76 198.023 136.94 198.711 136.94 199.695V199.711C136.94 200.695 137.76 201.383 138.94 201.383ZM138.94 206.688C140.291 206.688 141.252 205.906 141.252 204.82V204.805C141.252 203.711 140.299 202.922 138.94 202.922C137.573 202.922 136.627 203.711 136.627 204.805V204.82C136.627 205.906 137.588 206.688 138.94 206.688Z" fill="#192325"/>
<path d="M130.839 229.991V228.836C129.212 228.686 127.865 227.694 127.811 226.108V226.102L129 226.095V226.108C129.123 226.956 129.65 227.633 130.839 227.763V224.475L130.682 224.434C128.98 224.023 128.064 223.265 128.064 221.925V221.911C128.064 220.448 129.219 219.45 130.839 219.3V218.145H131.659V219.3C133.239 219.443 134.462 220.469 134.517 221.973V221.979L133.327 221.986V221.973C133.239 221.057 132.582 220.489 131.659 220.373V223.511L131.871 223.559C133.628 223.982 134.613 224.707 134.613 226.136V226.149C134.613 227.79 133.273 228.713 131.659 228.843V229.991H130.839ZM129.253 221.843C129.253 222.506 129.663 223.025 130.839 223.312V220.373C129.8 220.517 129.253 221.173 129.253 221.829V221.843ZM131.7 224.68L131.659 224.673V227.776C132.931 227.674 133.423 227.031 133.423 226.245V226.231C133.423 225.486 133.054 225.008 131.7 224.68ZM139.158 229V220.503H139.049L136.54 222.321V221.022L139.165 219.136H140.389V229H139.158ZM146.726 229.232C144.921 229.232 143.014 227.961 143.014 224.249V224.235C143.014 220.872 144.415 218.903 146.808 218.903C148.462 218.903 149.693 219.874 150.028 221.33L150.048 221.419H148.811L148.783 221.344C148.483 220.517 147.792 220.004 146.794 220.004C145.003 220.004 144.272 221.754 144.197 223.812C144.19 223.887 144.19 223.969 144.19 224.044H144.32C144.682 223.237 145.612 222.52 146.945 222.52C148.797 222.52 150.178 223.928 150.178 225.821V225.835C150.178 227.804 148.715 229.232 146.726 229.232ZM144.484 225.821C144.484 227.12 145.461 228.146 146.712 228.146C147.949 228.146 148.941 227.141 148.941 225.862V225.849C148.941 224.536 148.011 223.593 146.733 223.593C145.454 223.593 144.484 224.529 144.484 225.814V225.821Z" fill="#5B6466"/>
<path d="M133.744 270V260.711H133.612L130.807 262.695V260.797L133.752 258.727H135.76V270H133.744ZM142.963 270.281C140.658 270.281 139.104 268.875 138.955 267.023L138.948 266.922H140.807L140.815 266.977C140.963 267.898 141.815 268.633 142.971 268.633C144.291 268.633 145.198 267.703 145.198 266.375V266.359C145.198 265.047 144.276 264.125 142.987 264.125C142.354 264.125 141.807 264.312 141.393 264.688C141.19 264.859 141.002 265.078 140.869 265.328H139.143L139.69 258.727H146.455V260.383H141.26L140.948 263.812H141.08C141.549 263.055 142.424 262.602 143.487 262.602C145.588 262.602 147.112 264.164 147.112 266.32V266.336C147.112 268.68 145.401 270.281 142.963 270.281Z" fill="#192325"/>
<path d="M129.93 291.991V290.836C128.303 290.686 126.956 289.694 126.902 288.108V288.102L128.091 288.095V288.108C128.214 288.956 128.74 289.633 129.93 289.763V286.475L129.773 286.434C128.071 286.023 127.155 285.265 127.155 283.925V283.911C127.155 282.448 128.31 281.45 129.93 281.3V280.145H130.75V281.3C132.329 281.443 133.553 282.469 133.608 283.973V283.979L132.418 283.986V283.973C132.329 283.057 131.673 282.489 130.75 282.373V285.511L130.962 285.559C132.719 285.982 133.703 286.707 133.703 288.136V288.149C133.703 289.79 132.364 290.713 130.75 290.843V291.991H129.93ZM128.344 283.843C128.344 284.506 128.754 285.025 129.93 285.312V282.373C128.891 282.517 128.344 283.173 128.344 283.829V283.843ZM130.791 286.68L130.75 286.673V289.776C132.022 289.674 132.514 289.031 132.514 288.245V288.231C132.514 287.486 132.145 287.008 130.791 286.68ZM135.836 291V290.152L139.172 286.543C140.43 285.183 140.799 284.67 140.799 283.809V283.795C140.799 282.756 140.095 281.977 138.933 281.977C137.75 281.977 136.964 282.749 136.964 283.911L136.957 283.925L135.781 283.918L135.768 283.911C135.775 282.161 137.128 280.903 139.015 280.903C140.738 280.903 142.057 282.072 142.057 283.665V283.679C142.057 284.807 141.572 285.627 139.787 287.466L137.545 289.783V289.893H142.221V291H135.836ZM147.642 291.164C145.605 291.164 144.285 290.029 144.156 288.471L144.149 288.389H145.331L145.338 288.457C145.434 289.428 146.329 290.098 147.642 290.098C148.934 290.098 149.816 289.373 149.816 288.327V288.313C149.816 287.104 148.948 286.427 147.567 286.427H146.329V285.388H147.512C148.688 285.388 149.508 284.663 149.508 283.679V283.665C149.508 282.633 148.831 282.038 147.628 282.038C146.466 282.038 145.639 282.653 145.536 283.651L145.53 283.72H144.347L144.354 283.651C144.511 282.045 145.782 280.972 147.628 280.972C149.508 280.972 150.745 282.018 150.745 283.515V283.528C150.745 284.745 149.884 285.579 148.654 285.839V285.866C150.089 285.989 151.067 286.885 151.067 288.286V288.3C151.067 289.947 149.617 291.164 147.642 291.164Z" fill="#5B6466"/>
<path d="M130.057 332V330.641L133.76 326.859C135.291 325.312 135.721 324.742 135.721 323.875V323.852C135.721 322.812 135.01 322.062 133.838 322.062C132.643 322.062 131.838 322.852 131.838 324.016L131.83 324.047L129.955 324.039L129.948 324.016C129.948 321.914 131.588 320.445 133.94 320.445C136.135 320.445 137.713 321.781 137.713 323.68V323.703C137.713 324.984 137.096 326 135.041 327.977L132.783 330.164V330.328H137.885V332H130.057ZM140.119 332V330.641L143.823 326.859C145.354 325.312 145.783 324.742 145.783 323.875V323.852C145.783 322.812 145.073 322.062 143.901 322.062C142.705 322.062 141.901 322.852 141.901 324.016L141.893 324.047L140.018 324.039L140.01 324.016C140.01 321.914 141.651 320.445 144.002 320.445C146.198 320.445 147.776 321.781 147.776 323.68V323.703C147.776 324.984 147.158 326 145.104 327.977L142.846 330.164V330.328H147.948V332H140.119Z" fill="#192325"/>
<path d="M130.839 353.991V352.836C129.212 352.686 127.865 351.694 127.811 350.108V350.102L129 350.095V350.108C129.123 350.956 129.65 351.633 130.839 351.763V348.475L130.682 348.434C128.98 348.023 128.064 347.265 128.064 345.925V345.911C128.064 344.448 129.219 343.45 130.839 343.3V342.145H131.659V343.3C133.239 343.443 134.462 344.469 134.517 345.973V345.979L133.327 345.986V345.973C133.239 345.057 132.582 344.489 131.659 344.373V347.511L131.871 347.559C133.628 347.982 134.613 348.707 134.613 350.136V350.149C134.613 351.79 133.273 352.713 131.659 352.843V353.991H130.839ZM129.253 345.843C129.253 346.506 129.663 347.025 130.839 347.312V344.373C129.8 344.517 129.253 345.173 129.253 345.829V345.843ZM131.7 348.68L131.659 348.673V351.776C132.931 351.674 133.423 351.031 133.423 350.245V350.231C133.423 349.486 133.054 349.008 131.7 348.68ZM139.158 353V344.503H139.049L136.54 346.321V345.022L139.165 343.136H140.389V353H139.158ZM146.726 353.232C144.921 353.232 143.014 351.961 143.014 348.249V348.235C143.014 344.872 144.415 342.903 146.808 342.903C148.462 342.903 149.693 343.874 150.028 345.33L150.048 345.419H148.811L148.783 345.344C148.483 344.517 147.792 344.004 146.794 344.004C145.003 344.004 144.272 345.754 144.197 347.812C144.19 347.887 144.19 347.969 144.19 348.044H144.32C144.682 347.237 145.612 346.52 146.945 346.52C148.797 346.52 150.178 347.928 150.178 349.821V349.835C150.178 351.804 148.715 353.232 146.726 353.232ZM144.484 349.821C144.484 351.12 145.461 352.146 146.712 352.146C147.949 352.146 148.941 351.141 148.941 349.862V349.849C148.941 348.536 148.011 347.593 146.733 347.593C145.454 347.593 144.484 348.529 144.484 349.814V349.821Z" fill="#5B6466"/>
<path d="M204.92 102V94.4941H202.196V93.5449H208.699V94.4941H205.975V102H204.92ZM211.436 102.111C210 102.111 209.262 101.268 209.262 99.7734V95.6836H210.281V99.5273C210.281 100.664 210.692 101.209 211.699 101.209C212.813 101.209 213.405 100.529 213.405 99.4219V95.6836H214.424V102H213.405V101.057H213.311C213 101.73 212.362 102.111 211.436 102.111ZM218.906 102.111C217.102 102.111 216.012 100.846 216.012 98.8652V98.8594C216.012 96.9082 217.125 95.5723 218.842 95.5723C220.559 95.5723 221.602 96.8496 221.602 98.7363V99.1348H217.055C217.084 100.441 217.805 101.203 218.93 101.203C219.785 101.203 220.313 100.799 220.483 100.418L220.506 100.365H221.526L221.514 100.412C221.297 101.268 220.395 102.111 218.906 102.111ZM218.836 96.4805C217.899 96.4805 217.184 97.1191 217.073 98.3203H220.565C220.459 97.0723 219.768 96.4805 218.836 96.4805Z" fill="#5B6466"/>
<path d="M208.088 146V144.641L211.791 140.859C213.323 139.312 213.752 138.742 213.752 137.875V137.852C213.752 136.812 213.041 136.062 211.869 136.062C210.674 136.062 209.869 136.852 209.869 138.016L209.862 138.047L207.987 138.039L207.979 138.016C207.979 135.914 209.619 134.445 211.971 134.445C214.166 134.445 215.744 135.781 215.744 137.68V137.703C215.744 138.984 215.127 140 213.073 141.977L210.815 144.164V144.328H215.916V146H208.088Z" fill="#192325"/>
<path d="M203.839 167.991V166.836C202.212 166.686 200.865 165.694 200.811 164.108V164.102L202 164.095V164.108C202.123 164.956 202.65 165.633 203.839 165.763V162.475L203.682 162.434C201.98 162.023 201.064 161.265 201.064 159.925V159.911C201.064 158.448 202.219 157.45 203.839 157.3V156.145H204.659V157.3C206.239 157.443 207.462 158.469 207.517 159.973V159.979L206.327 159.986V159.973C206.239 159.057 205.582 158.489 204.659 158.373V161.511L204.871 161.559C206.628 161.982 207.613 162.707 207.613 164.136V164.149C207.613 165.79 206.273 166.713 204.659 166.843V167.991H203.839ZM202.253 159.843C202.253 160.506 202.663 161.025 203.839 161.312V158.373C202.8 158.517 202.253 159.173 202.253 159.829V159.843ZM204.7 162.68L204.659 162.673V165.776C205.931 165.674 206.423 165.031 206.423 164.245V164.231C206.423 163.486 206.054 163.008 204.7 162.68ZM212.158 167V158.503H212.049L209.54 160.321V159.022L212.165 157.136H213.389V167H212.158ZM219.726 167.232C217.921 167.232 216.014 165.961 216.014 162.249V162.235C216.014 158.872 217.415 156.903 219.808 156.903C221.462 156.903 222.693 157.874 223.028 159.33L223.048 159.419H221.811L221.783 159.344C221.483 158.517 220.792 158.004 219.794 158.004C218.003 158.004 217.272 159.754 217.197 161.812C217.19 161.887 217.19 161.969 217.19 162.044H217.32C217.682 161.237 218.612 160.52 219.945 160.52C221.797 160.52 223.178 161.928 223.178 163.821V163.835C223.178 165.804 221.715 167.232 219.726 167.232ZM217.484 163.821C217.484 165.12 218.461 166.146 219.712 166.146C220.949 166.146 221.941 165.141 221.941 163.862V163.849C221.941 162.536 221.011 161.593 219.733 161.593C218.454 161.593 217.484 162.529 217.484 163.814V163.821Z" fill="#5B6466"/>
<path d="M211.783 196.445C214.19 196.445 216.283 198.156 216.283 202.219V202.234C216.283 206.031 214.573 208.281 211.737 208.281C209.666 208.281 208.119 207.055 207.76 205.328L207.744 205.242H209.729L209.752 205.32C210.049 206.109 210.744 206.625 211.737 206.625C213.526 206.625 214.283 204.875 214.369 202.719C214.369 202.633 214.377 202.547 214.377 202.461H214.221C213.807 203.352 212.823 204.141 211.276 204.141C209.112 204.141 207.596 202.562 207.596 200.422V200.406C207.596 198.117 209.338 196.445 211.783 196.445ZM211.776 202.594C213.049 202.594 214.026 201.672 214.026 200.398V200.383C214.026 199.094 213.049 198.086 211.799 198.086C210.557 198.086 209.565 199.078 209.565 200.336V200.352C209.565 201.656 210.494 202.594 211.776 202.594Z" fill="#192325"/>
<path d="M202.93 229.991V228.836C201.303 228.686 199.956 227.694 199.902 226.108V226.102L201.091 226.095V226.108C201.214 226.956 201.74 227.633 202.93 227.763V224.475L202.773 224.434C201.071 224.023 200.155 223.265 200.155 221.925V221.911C200.155 220.448 201.31 219.45 202.93 219.3V218.145H203.75V219.3C205.329 219.443 206.553 220.469 206.608 221.973V221.979L205.418 221.986V221.973C205.329 221.057 204.673 220.489 203.75 220.373V223.511L203.962 223.559C205.719 223.982 206.703 224.707 206.703 226.136V226.149C206.703 227.79 205.364 228.713 203.75 228.843V229.991H202.93ZM201.344 221.843C201.344 222.506 201.754 223.025 202.93 223.312V220.373C201.891 220.517 201.344 221.173 201.344 221.829V221.843ZM203.791 224.68L203.75 224.673V227.776C205.022 227.674 205.514 227.031 205.514 226.245V226.231C205.514 225.486 205.145 225.008 203.791 224.68ZM208.836 229V228.152L212.172 224.543C213.43 223.183 213.799 222.67 213.799 221.809V221.795C213.799 220.756 213.095 219.977 211.933 219.977C210.75 219.977 209.964 220.749 209.964 221.911L209.957 221.925L208.781 221.918L208.768 221.911C208.775 220.161 210.128 218.903 212.015 218.903C213.738 218.903 215.057 220.072 215.057 221.665V221.679C215.057 222.807 214.572 223.627 212.787 225.466L210.545 227.783V227.893H215.221V229H208.836ZM220.642 229.164C218.605 229.164 217.285 228.029 217.156 226.471L217.149 226.389H218.331L218.338 226.457C218.434 227.428 219.329 228.098 220.642 228.098C221.934 228.098 222.816 227.373 222.816 226.327V226.313C222.816 225.104 221.948 224.427 220.567 224.427H219.329V223.388H220.512C221.688 223.388 222.508 222.663 222.508 221.679V221.665C222.508 220.633 221.831 220.038 220.628 220.038C219.466 220.038 218.639 220.653 218.536 221.651L218.53 221.72H217.347L217.354 221.651C217.511 220.045 218.782 218.972 220.628 218.972C222.508 218.972 223.745 220.018 223.745 221.515V221.528C223.745 222.745 222.884 223.579 221.654 223.839V223.866C223.089 223.989 224.067 224.885 224.067 226.286V226.3C224.067 227.947 222.617 229.164 220.642 229.164Z" fill="#5B6466"/>
<path d="M206.588 270V260.711H206.455L203.651 262.695V260.797L206.596 258.727H208.604V270H206.588ZM216.041 270.281C213.635 270.281 211.541 268.57 211.541 264.508V264.492C211.541 260.695 213.252 258.445 216.088 258.445C218.158 258.445 219.705 259.672 220.065 261.398L220.08 261.484H218.104L218.073 261.406C217.776 260.617 217.08 260.102 216.088 260.102C214.299 260.102 213.541 261.852 213.455 264.008C213.455 264.094 213.448 264.18 213.448 264.266H213.604C214.018 263.375 215.002 262.586 216.549 262.586C218.713 262.586 220.229 264.164 220.229 266.305V266.32C220.229 268.609 218.487 270.281 216.041 270.281ZM213.799 266.344C213.799 267.633 214.776 268.641 216.026 268.641C217.276 268.641 218.26 267.648 218.26 266.391V266.375C218.26 265.07 217.33 264.133 216.049 264.133C214.776 264.133 213.799 265.055 213.799 266.328V266.344Z" fill="#192325"/>
<path d="M203.887 291.991V290.836C202.26 290.686 200.913 289.694 200.859 288.108V288.102L202.048 288.095V288.108C202.171 288.956 202.698 289.633 203.887 289.763V286.475L203.73 286.434C202.028 286.023 201.112 285.265 201.112 283.925V283.911C201.112 282.448 202.267 281.45 203.887 281.3V280.145H204.707V281.3C206.286 281.443 207.51 282.469 207.565 283.973V283.979L206.375 283.986V283.973C206.286 283.057 205.63 282.489 204.707 282.373V285.511L204.919 285.559C206.676 285.982 207.66 286.707 207.66 288.136V288.149C207.66 289.79 206.321 290.713 204.707 290.843V291.991H203.887ZM202.301 283.843C202.301 284.506 202.711 285.025 203.887 285.312V282.373C202.848 282.517 202.301 283.173 202.301 283.829V283.843ZM204.748 286.68L204.707 286.673V289.776C205.979 289.674 206.471 289.031 206.471 288.245V288.231C206.471 287.486 206.102 287.008 204.748 286.68ZM212.206 291V282.503H212.097L209.588 284.321V283.022L212.213 281.136H213.437V291H212.206ZM219.589 291.232C217.408 291.232 216.11 289.243 216.11 286.071V286.058C216.11 282.886 217.408 280.903 219.589 280.903C221.77 280.903 223.082 282.886 223.082 286.058V286.071C223.082 289.243 221.77 291.232 219.589 291.232ZM219.589 290.159C221.004 290.159 221.845 288.587 221.845 286.071V286.058C221.845 283.542 221.004 281.983 219.589 281.983C218.174 281.983 217.347 283.542 217.347 286.058V286.071C217.347 288.587 218.174 290.159 219.589 290.159Z" fill="#5B6466"/>
<path d="M202.854 332V330.641L206.557 326.859C208.088 325.312 208.518 324.742 208.518 323.875V323.852C208.518 322.812 207.807 322.062 206.635 322.062C205.44 322.062 204.635 322.852 204.635 324.016L204.627 324.047L202.752 324.039L202.744 324.016C202.744 321.914 204.385 320.445 206.737 320.445C208.932 320.445 210.51 321.781 210.51 323.68V323.703C210.51 324.984 209.893 326 207.838 327.977L205.58 330.164V330.328H210.682V332H202.854ZM216.994 332.227C214.526 332.227 212.908 330.883 212.76 328.953L212.752 328.859H214.674L214.682 328.945C214.791 329.898 215.674 330.578 216.994 330.578C218.299 330.578 219.166 329.852 219.166 328.805V328.789C219.166 327.602 218.291 326.945 216.846 326.945H215.518V325.445H216.807C218.049 325.445 218.877 324.742 218.877 323.758V323.742C218.877 322.711 218.182 322.102 216.979 322.102C215.791 322.102 214.971 322.734 214.869 323.742L214.862 323.82H212.987L212.994 323.734C213.166 321.781 214.705 320.5 216.979 320.5C219.299 320.5 220.807 321.711 220.807 323.477V323.492C220.807 324.891 219.799 325.82 218.448 326.102V326.141C220.104 326.297 221.205 327.281 221.205 328.844V328.859C221.205 330.844 219.494 332.227 216.994 332.227Z" fill="#192325"/>
<path d="M203.887 353.991V352.836C202.26 352.686 200.913 351.694 200.859 350.108V350.102L202.048 350.095V350.108C202.171 350.956 202.698 351.633 203.887 351.763V348.475L203.73 348.434C202.028 348.023 201.112 347.265 201.112 345.925V345.911C201.112 344.448 202.267 343.45 203.887 343.3V342.145H204.707V343.3C206.286 343.443 207.51 344.469 207.565 345.973V345.979L206.375 345.986V345.973C206.286 345.057 205.63 344.489 204.707 344.373V347.511L204.919 347.559C206.676 347.982 207.66 348.707 207.66 350.136V350.149C207.66 351.79 206.321 352.713 204.707 352.843V353.991H203.887ZM202.301 345.843C202.301 346.506 202.711 347.025 203.887 347.312V344.373C202.848 344.517 202.301 345.173 202.301 345.829V345.843ZM204.748 348.68L204.707 348.673V351.776C205.979 351.674 206.471 351.031 206.471 350.245V350.231C206.471 349.486 206.102 349.008 204.748 348.68ZM212.206 353V344.503H212.097L209.588 346.321V345.022L212.213 343.136H213.437V353H212.206ZM219.589 353.232C217.408 353.232 216.11 351.243 216.11 348.071V348.058C216.11 344.886 217.408 342.903 219.589 342.903C221.77 342.903 223.082 344.886 223.082 348.058V348.071C223.082 351.243 221.77 353.232 219.589 353.232ZM219.589 352.159C221.004 352.159 221.845 350.587 221.845 348.071V348.058C221.845 345.542 221.004 343.983 219.589 343.983C218.174 343.983 217.347 345.542 217.347 348.058V348.071C217.347 350.587 218.174 352.159 219.589 352.159Z" fill="#5B6466"/>
<path d="M275.143 102L272.84 93.5449H273.942L275.623 100.418H275.694L277.586 93.5449H278.653L280.545 100.418H280.615L282.297 93.5449H283.399L281.096 102H280.1L278.155 95.3262H278.084L276.139 102H275.143ZM286.867 102.111C285.063 102.111 283.973 100.846 283.973 98.8652V98.8594C283.973 96.9082 285.086 95.5723 286.803 95.5723C288.52 95.5723 289.563 96.8496 289.563 98.7363V99.1348H285.016C285.045 100.441 285.766 101.203 286.891 101.203C287.746 101.203 288.274 100.799 288.444 100.418L288.467 100.365H289.487L289.475 100.412C289.258 101.268 288.356 102.111 286.867 102.111ZM286.797 96.4805C285.86 96.4805 285.145 97.1191 285.033 98.3203H288.526C288.42 97.0723 287.729 96.4805 286.797 96.4805ZM293.477 102.111C291.877 102.111 290.828 100.816 290.828 98.8477V98.8359C290.828 96.8555 291.871 95.5723 293.477 95.5723C294.344 95.5723 295.1 96.0059 295.446 96.6797H295.539V93.1758H296.559V102H295.539V100.992H295.446C295.059 101.695 294.356 102.111 293.477 102.111ZM293.711 101.209C294.86 101.209 295.563 100.307 295.563 98.8477V98.8359C295.563 97.377 294.86 96.4746 293.711 96.4746C292.557 96.4746 291.871 97.3652 291.871 98.8359V98.8477C291.871 100.318 292.557 101.209 293.711 101.209Z" fill="#5B6466"/>
<path d="M284.963 146.227C282.494 146.227 280.877 144.883 280.729 142.953L280.721 142.859H282.643L282.651 142.945C282.76 143.898 283.643 144.578 284.963 144.578C286.268 144.578 287.135 143.852 287.135 142.805V142.789C287.135 141.602 286.26 140.945 284.815 140.945H283.487V139.445H284.776C286.018 139.445 286.846 138.742 286.846 137.758V137.742C286.846 136.711 286.151 136.102 284.948 136.102C283.76 136.102 282.94 136.734 282.838 137.742L282.83 137.82H280.955L280.963 137.734C281.135 135.781 282.674 134.5 284.948 134.5C287.268 134.5 288.776 135.711 288.776 137.477V137.492C288.776 138.891 287.768 139.82 286.416 140.102V140.141C288.073 140.297 289.174 141.281 289.174 142.844V142.859C289.174 144.844 287.463 146.227 284.963 146.227Z" fill="#192325"/>
<path d="M276.839 167.991V166.836C275.212 166.686 273.865 165.694 273.811 164.108V164.102L275 164.095V164.108C275.123 164.956 275.65 165.633 276.839 165.763V162.475L276.682 162.434C274.98 162.023 274.064 161.265 274.064 159.925V159.911C274.064 158.448 275.219 157.45 276.839 157.3V156.145H277.659V157.3C279.239 157.443 280.462 158.469 280.517 159.973V159.979L279.327 159.986V159.973C279.239 159.057 278.582 158.489 277.659 158.373V161.511L277.871 161.559C279.628 161.982 280.613 162.707 280.613 164.136V164.149C280.613 165.79 279.273 166.713 277.659 166.843V167.991H276.839ZM275.253 159.843C275.253 160.506 275.663 161.025 276.839 161.312V158.373C275.8 158.517 275.253 159.173 275.253 159.829V159.843ZM277.7 162.68L277.659 162.673V165.776C278.931 165.674 279.423 165.031 279.423 164.245V164.231C279.423 163.486 279.054 163.008 277.7 162.68ZM285.158 167V158.503H285.049L282.54 160.321V159.022L285.165 157.136H286.389V167H285.158ZM292.466 156.903C294.271 156.903 296.178 158.175 296.178 161.887V161.9C296.178 165.264 294.777 167.232 292.384 167.232C290.73 167.232 289.499 166.262 289.164 164.806L289.144 164.717H290.381L290.408 164.792C290.709 165.619 291.4 166.132 292.398 166.132C294.189 166.132 294.92 164.382 294.995 162.324C295.002 162.249 295.002 162.167 295.002 162.092H294.872C294.51 162.898 293.58 163.616 292.247 163.616C290.395 163.616 289.014 162.208 289.014 160.314V160.301C289.014 158.332 290.477 156.903 292.466 156.903ZM292.459 162.543C293.738 162.543 294.708 161.606 294.708 160.321V160.314C294.708 159.016 293.731 157.99 292.48 157.99C291.242 157.99 290.251 158.995 290.251 160.273V160.287C290.251 161.6 291.181 162.543 292.459 162.543Z" fill="#5B6466"/>
<path d="M279.604 208V198.711H279.471L276.666 200.695V198.797L279.612 196.727H281.619V208H279.604ZM288.885 208.281C286.205 208.281 284.596 206.008 284.596 202.367V202.352C284.596 198.711 286.205 196.445 288.885 196.445C291.565 196.445 293.19 198.711 293.19 202.352V202.367C293.19 206.008 291.565 208.281 288.885 208.281ZM288.885 206.648C290.323 206.648 291.158 205.039 291.158 202.367V202.352C291.158 199.68 290.323 198.086 288.885 198.086C287.448 198.086 286.627 199.68 286.627 202.352V202.367C286.627 205.039 287.448 206.648 288.885 206.648Z" fill="#192325"/>
<path d="M276.839 229.991V228.836C275.212 228.686 273.865 227.694 273.811 226.108V226.102L275 226.095V226.108C275.123 226.956 275.65 227.633 276.839 227.763V224.475L276.682 224.434C274.98 224.023 274.064 223.265 274.064 221.925V221.911C274.064 220.448 275.219 219.45 276.839 219.3V218.145H277.659V219.3C279.239 219.443 280.462 220.469 280.517 221.973V221.979L279.327 221.986V221.973C279.239 221.057 278.582 220.489 277.659 220.373V223.511L277.871 223.559C279.628 223.982 280.613 224.707 280.613 226.136V226.149C280.613 227.79 279.273 228.713 277.659 228.843V229.991H276.839ZM275.253 221.843C275.253 222.506 275.663 223.025 276.839 223.312V220.373C275.8 220.517 275.253 221.173 275.253 221.829V221.843ZM277.7 224.68L277.659 224.673V227.776C278.931 227.674 279.423 227.031 279.423 226.245V226.231C279.423 225.486 279.054 225.008 277.7 224.68ZM285.158 229V220.503H285.049L282.54 222.321V221.022L285.165 219.136H286.389V229H285.158ZM292.466 218.903C294.271 218.903 296.178 220.175 296.178 223.887V223.9C296.178 227.264 294.777 229.232 292.384 229.232C290.73 229.232 289.499 228.262 289.164 226.806L289.144 226.717H290.381L290.408 226.792C290.709 227.619 291.4 228.132 292.398 228.132C294.189 228.132 294.92 226.382 294.995 224.324C295.002 224.249 295.002 224.167 295.002 224.092H294.872C294.51 224.898 293.58 225.616 292.247 225.616C290.395 225.616 289.014 224.208 289.014 222.314V222.301C289.014 220.332 290.477 218.903 292.466 218.903ZM292.459 224.543C293.738 224.543 294.708 223.606 294.708 222.321V222.314C294.708 221.016 293.731 219.99 292.48 219.99C291.242 219.99 290.251 220.995 290.251 222.273V222.287C290.251 223.6 291.181 224.543 292.459 224.543Z" fill="#5B6466"/>
<path d="M280.19 270V260.711H280.057L277.252 262.695V260.797L280.198 258.727H282.205V270H280.19ZM285.83 270L290.729 260.5V260.375H284.916V258.727H292.76V260.406L287.94 270H285.83Z" fill="#192325"/>
<path d="M276.839 291.991V290.836C275.212 290.686 273.865 289.694 273.811 288.108V288.102L275 288.095V288.108C275.123 288.956 275.65 289.633 276.839 289.763V286.475L276.682 286.434C274.98 286.023 274.064 285.265 274.064 283.925V283.911C274.064 282.448 275.219 281.45 276.839 281.3V280.145H277.659V281.3C279.239 281.443 280.462 282.469 280.517 283.973V283.979L279.327 283.986V283.973C279.239 283.057 278.582 282.489 277.659 282.373V285.511L277.871 285.559C279.628 285.982 280.613 286.707 280.613 288.136V288.149C280.613 289.79 279.273 290.713 277.659 290.843V291.991H276.839ZM275.253 283.843C275.253 284.506 275.663 285.025 276.839 285.312V282.373C275.8 282.517 275.253 283.173 275.253 283.829V283.843ZM277.7 286.68L277.659 286.673V289.776C278.931 289.674 279.423 289.031 279.423 288.245V288.231C279.423 287.486 279.054 287.008 277.7 286.68ZM285.158 291V282.503H285.049L282.54 284.321V283.022L285.165 281.136H286.389V291H285.158ZM292.726 291.232C290.921 291.232 289.014 289.961 289.014 286.249V286.235C289.014 282.872 290.415 280.903 292.808 280.903C294.462 280.903 295.693 281.874 296.028 283.33L296.048 283.419H294.811L294.783 283.344C294.483 282.517 293.792 282.004 292.794 282.004C291.003 282.004 290.272 283.754 290.197 285.812C290.19 285.887 290.19 285.969 290.19 286.044H290.32C290.682 285.237 291.612 284.52 292.945 284.52C294.797 284.52 296.178 285.928 296.178 287.821V287.835C296.178 289.804 294.715 291.232 292.726 291.232ZM290.484 287.821C290.484 289.12 291.461 290.146 292.712 290.146C293.949 290.146 294.941 289.141 294.941 287.862V287.849C294.941 286.536 294.011 285.593 292.733 285.593C291.454 285.593 290.484 286.529 290.484 287.814V287.821Z" fill="#5B6466"/>
<path d="M275.791 332V330.641L279.494 326.859C281.026 325.312 281.455 324.742 281.455 323.875V323.852C281.455 322.812 280.744 322.062 279.573 322.062C278.377 322.062 277.573 322.852 277.573 324.016L277.565 324.047L275.69 324.039L275.682 324.016C275.682 321.914 277.323 320.445 279.674 320.445C281.869 320.445 283.448 321.781 283.448 323.68V323.703C283.448 324.984 282.83 326 280.776 327.977L278.518 330.164V330.328H283.619V332H275.791ZM290.901 332V329.836H285.385V328.188C286.846 325.648 288.448 323.055 289.979 320.727H292.83V328.172H294.346V329.836H292.83V332H290.901ZM287.26 328.219H290.932V322.336H290.815C289.658 324.102 288.354 326.188 287.26 328.102V328.219Z" fill="#192325"/>
<path d="M276.839 353.991V352.836C275.212 352.686 273.865 351.694 273.811 350.108V350.102L275 350.095V350.108C275.123 350.956 275.65 351.633 276.839 351.763V348.475L276.682 348.434C274.98 348.023 274.064 347.265 274.064 345.925V345.911C274.064 344.448 275.219 343.45 276.839 343.3V342.145H277.659V343.3C279.239 343.443 280.462 344.469 280.517 345.973V345.979L279.327 345.986V345.973C279.239 345.057 278.582 344.489 277.659 344.373V347.511L277.871 347.559C279.628 347.982 280.613 348.707 280.613 350.136V350.149C280.613 351.79 279.273 352.713 277.659 352.843V353.991H276.839ZM275.253 345.843C275.253 346.506 275.663 347.025 276.839 347.312V344.373C275.8 344.517 275.253 345.173 275.253 345.829V345.843ZM277.7 348.68L277.659 348.673V351.776C278.931 351.674 279.423 351.031 279.423 350.245V350.231C279.423 349.486 279.054 349.008 277.7 348.68ZM285.158 353V344.503H285.049L282.54 346.321V345.022L285.165 343.136H286.389V353H285.158ZM292.466 342.903C294.271 342.903 296.178 344.175 296.178 347.887V347.9C296.178 351.264 294.777 353.232 292.384 353.232C290.73 353.232 289.499 352.262 289.164 350.806L289.144 350.717H290.381L290.408 350.792C290.709 351.619 291.4 352.132 292.398 352.132C294.189 352.132 294.92 350.382 294.995 348.324C295.002 348.249 295.002 348.167 295.002 348.092H294.872C294.51 348.898 293.58 349.616 292.247 349.616C290.395 349.616 289.014 348.208 289.014 346.314V346.301C289.014 344.332 290.477 342.903 292.466 342.903ZM292.459 348.543C293.738 348.543 294.708 347.606 294.708 346.321V346.314C294.708 345.016 293.731 343.99 292.48 343.99C291.242 343.99 290.251 344.995 290.251 346.273V346.287C290.251 347.6 291.181 348.543 292.459 348.543Z" fill="#5B6466"/>
<path d="M350.375 102V94.4941H347.651V93.5449H354.155V94.4941H351.43V102H350.375ZM355.713 102V93.1758H356.733V96.6328H356.826C357.143 95.9648 357.735 95.5723 358.666 95.5723C360.084 95.5723 360.875 96.4102 360.875 97.9102V102H359.856V98.1562C359.856 97.0195 359.387 96.4746 358.379 96.4746C357.371 96.4746 356.733 97.1543 356.733 98.2617V102H355.713ZM364.836 102.111C363.401 102.111 362.662 101.268 362.662 99.7734V95.6836H363.682V99.5273C363.682 100.664 364.092 101.209 365.1 101.209C366.213 101.209 366.805 100.529 366.805 99.4219V95.6836H367.824V102H366.805V101.057H366.711C366.401 101.73 365.762 102.111 364.836 102.111Z" fill="#5B6466"/>
<path d="M358.948 146V143.836H353.432V142.188C354.893 139.648 356.494 137.055 358.026 134.727H360.877V142.172H362.393V143.836H360.877V146H358.948ZM355.307 142.219H358.979V136.336H358.862C357.705 138.102 356.401 140.188 355.307 142.102V142.219Z" fill="#192325"/>
<path d="M349.839 167.991V166.836C348.212 166.686 346.865 165.694 346.811 164.108V164.102L348 164.095V164.108C348.123 164.956 348.65 165.633 349.839 165.763V162.475L349.682 162.434C347.98 162.023 347.064 161.265 347.064 159.925V159.911C347.064 158.448 348.219 157.45 349.839 157.3V156.145H350.659V157.3C352.239 157.443 353.462 158.469 353.517 159.973V159.979L352.327 159.986V159.973C352.239 159.057 351.582 158.489 350.659 158.373V161.511L350.871 161.559C352.628 161.982 353.613 162.707 353.613 164.136V164.149C353.613 165.79 352.273 166.713 350.659 166.843V167.991H349.839ZM348.253 159.843C348.253 160.506 348.663 161.025 349.839 161.312V158.373C348.8 158.517 348.253 159.173 348.253 159.829V159.843ZM350.7 162.68L350.659 162.673V165.776C351.931 165.674 352.423 165.031 352.423 164.245V164.231C352.423 163.486 352.054 163.008 350.7 162.68ZM358.158 167V158.503H358.049L355.54 160.321V159.022L358.165 157.136H359.389V167H358.158ZM365.466 156.903C367.271 156.903 369.178 158.175 369.178 161.887V161.9C369.178 165.264 367.777 167.232 365.384 167.232C363.73 167.232 362.499 166.262 362.164 164.806L362.144 164.717H363.381L363.408 164.792C363.709 165.619 364.4 166.132 365.398 166.132C367.189 166.132 367.92 164.382 367.995 162.324C368.002 162.249 368.002 162.167 368.002 162.092H367.872C367.51 162.898 366.58 163.616 365.247 163.616C363.395 163.616 362.014 162.208 362.014 160.314V160.301C362.014 158.332 363.477 156.903 365.466 156.903ZM365.459 162.543C366.738 162.543 367.708 161.606 367.708 160.321V160.314C367.708 159.016 366.731 157.99 365.48 157.99C364.242 157.99 363.251 158.995 363.251 160.273V160.287C363.251 161.6 364.181 162.543 365.459 162.543Z" fill="#192325"/>
<path d="M353.971 208V198.711H353.838L351.033 200.695V198.797L353.979 196.727H355.987V208H353.971ZM361.877 208V198.711H361.744L358.94 200.695V198.797L361.885 196.727H363.893V208H361.877Z" fill="#192325"/>
<path d="M348.862 229.991V228.836C347.235 228.686 345.888 227.694 345.833 226.108V226.102L347.023 226.095V226.108C347.146 226.956 347.672 227.633 348.862 227.763V224.475L348.704 224.434C347.002 224.023 346.086 223.265 346.086 221.925V221.911C346.086 220.448 347.241 219.45 348.862 219.3V218.145H349.682V219.3C351.261 219.443 352.485 220.469 352.539 221.973V221.979L351.35 221.986V221.973C351.261 221.057 350.605 220.489 349.682 220.373V223.511L349.894 223.559C351.651 223.982 352.635 224.707 352.635 226.136V226.149C352.635 227.79 351.295 228.713 349.682 228.843V229.991H348.862ZM347.276 221.843C347.276 222.506 347.686 223.025 348.862 223.312V220.373C347.823 220.517 347.276 221.173 347.276 221.829V221.843ZM349.723 224.68L349.682 224.673V227.776C350.953 227.674 351.446 227.031 351.446 226.245V226.231C351.446 225.486 351.076 225.008 349.723 224.68ZM354.768 229V228.152L358.104 224.543C359.362 223.183 359.731 222.67 359.731 221.809V221.795C359.731 220.756 359.027 219.977 357.865 219.977C356.682 219.977 355.896 220.749 355.896 221.911L355.889 221.925L354.713 221.918L354.699 221.911C354.706 220.161 356.06 218.903 357.947 218.903C359.669 218.903 360.989 220.072 360.989 221.665V221.679C360.989 222.807 360.503 223.627 358.719 225.466L356.477 227.783V227.893H361.153V229H354.768ZM366.444 218.903C368.248 218.903 370.156 220.175 370.156 223.887V223.9C370.156 227.264 368.754 229.232 366.362 229.232C364.707 229.232 363.477 228.262 363.142 226.806L363.121 226.717H364.359L364.386 226.792C364.687 227.619 365.377 228.132 366.375 228.132C368.166 228.132 368.898 226.382 368.973 224.324C368.98 224.249 368.98 224.167 368.98 224.092H368.85C368.488 224.898 367.558 225.616 366.225 225.616C364.372 225.616 362.991 224.208 362.991 222.314V222.301C362.991 220.332 364.454 218.903 366.444 218.903ZM366.437 224.543C367.715 224.543 368.686 223.606 368.686 222.321V222.314C368.686 221.016 367.708 219.99 366.457 219.99C365.22 219.99 364.229 220.995 364.229 222.273V222.287C364.229 223.6 365.158 224.543 366.437 224.543Z" fill="#5B6466"/>
<path d="M352.533 270V260.711H352.401L349.596 262.695V260.797L352.541 258.727H354.549V270H352.533ZM361.893 270.227C359.299 270.227 357.494 268.883 357.494 266.953V266.938C357.494 265.492 358.549 264.375 360.049 264.07V264.023C358.76 263.68 357.901 262.734 357.901 261.523V261.508C357.901 259.773 359.557 258.5 361.893 258.5C364.229 258.5 365.885 259.773 365.885 261.508V261.523C365.885 262.734 365.026 263.68 363.737 264.023V264.07C365.244 264.375 366.291 265.492 366.291 266.938V266.953C366.291 268.883 364.487 270.227 361.893 270.227ZM361.893 263.383C363.073 263.383 363.893 262.695 363.893 261.711V261.695C363.893 260.711 363.073 260.023 361.893 260.023C360.713 260.023 359.893 260.711 359.893 261.695V261.711C359.893 262.695 360.713 263.383 361.893 263.383ZM361.893 268.688C363.244 268.688 364.205 267.906 364.205 266.82V266.805C364.205 265.711 363.252 264.922 361.893 264.922C360.526 264.922 359.58 265.711 359.58 266.805V266.82C359.58 267.906 360.541 268.688 361.893 268.688Z" fill="#192325"/>
<path d="M349.839 291.991V290.836C348.212 290.686 346.865 289.694 346.811 288.108V288.102L348 288.095V288.108C348.123 288.956 348.65 289.633 349.839 289.763V286.475L349.682 286.434C347.98 286.023 347.064 285.265 347.064 283.925V283.911C347.064 282.448 348.219 281.45 349.839 281.3V280.145H350.659V281.3C352.239 281.443 353.462 282.469 353.517 283.973V283.979L352.327 283.986V283.973C352.239 283.057 351.582 282.489 350.659 282.373V285.511L350.871 285.559C352.628 285.982 353.613 286.707 353.613 288.136V288.149C353.613 289.79 352.273 290.713 350.659 290.843V291.991H349.839ZM348.253 283.843C348.253 284.506 348.663 285.025 349.839 285.312V282.373C348.8 282.517 348.253 283.173 348.253 283.829V283.843ZM350.7 286.68L350.659 286.673V289.776C351.931 289.674 352.423 289.031 352.423 288.245V288.231C352.423 287.486 352.054 287.008 350.7 286.68ZM358.158 291V282.503H358.049L355.54 284.321V283.022L358.165 281.136H359.389V291H358.158ZM365.466 280.903C367.271 280.903 369.178 282.175 369.178 285.887V285.9C369.178 289.264 367.777 291.232 365.384 291.232C363.73 291.232 362.499 290.262 362.164 288.806L362.144 288.717H363.381L363.408 288.792C363.709 289.619 364.4 290.132 365.398 290.132C367.189 290.132 367.92 288.382 367.995 286.324C368.002 286.249 368.002 286.167 368.002 286.092H367.872C367.51 286.898 366.58 287.616 365.247 287.616C363.395 287.616 362.014 286.208 362.014 284.314V284.301C362.014 282.332 363.477 280.903 365.466 280.903ZM365.459 286.543C366.738 286.543 367.708 285.606 367.708 284.321V284.314C367.708 283.016 366.731 281.99 365.48 281.99C364.242 281.99 363.251 282.995 363.251 284.273V284.287C363.251 285.6 364.181 286.543 365.459 286.543Z" fill="#5B6466"/>
<path d="M348.908 332V330.641L352.612 326.859C354.143 325.312 354.573 324.742 354.573 323.875V323.852C354.573 322.812 353.862 322.062 352.69 322.062C351.494 322.062 350.69 322.852 350.69 324.016L350.682 324.047L348.807 324.039L348.799 324.016C348.799 321.914 350.44 320.445 352.791 320.445C354.987 320.445 356.565 321.781 356.565 323.68V323.703C356.565 324.984 355.948 326 353.893 327.977L351.635 330.164V330.328H356.737V332H348.908ZM363.041 332.281C360.737 332.281 359.182 330.875 359.033 329.023L359.026 328.922H360.885L360.893 328.977C361.041 329.898 361.893 330.633 363.049 330.633C364.369 330.633 365.276 329.703 365.276 328.375V328.359C365.276 327.047 364.354 326.125 363.065 326.125C362.432 326.125 361.885 326.312 361.471 326.688C361.268 326.859 361.08 327.078 360.948 327.328H359.221L359.768 320.727H366.533V322.383H361.338L361.026 325.812H361.158C361.627 325.055 362.502 324.602 363.565 324.602C365.666 324.602 367.19 326.164 367.19 328.32V328.336C367.19 330.68 365.479 332.281 363.041 332.281Z" fill="#192325"/>
<path d="M349.839 353.991V352.836C348.212 352.686 346.865 351.694 346.811 350.108V350.102L348 350.095V350.108C348.123 350.956 348.65 351.633 349.839 351.763V348.475L349.682 348.434C347.98 348.023 347.064 347.265 347.064 345.925V345.911C347.064 344.448 348.219 343.45 349.839 343.3V342.145H350.659V343.3C352.239 343.443 353.462 344.469 353.517 345.973V345.979L352.327 345.986V345.973C352.239 345.057 351.582 344.489 350.659 344.373V347.511L350.871 347.559C352.628 347.982 353.613 348.707 353.613 350.136V350.149C353.613 351.79 352.273 352.713 350.659 352.843V353.991H349.839ZM348.253 345.843C348.253 346.506 348.663 347.025 349.839 347.312V344.373C348.8 344.517 348.253 345.173 348.253 345.829V345.843ZM350.7 348.68L350.659 348.673V351.776C351.931 351.674 352.423 351.031 352.423 350.245V350.231C352.423 349.486 352.054 349.008 350.7 348.68ZM358.158 353V344.503H358.049L355.54 346.321V345.022L358.165 343.136H359.389V353H358.158ZM365.726 353.232C363.921 353.232 362.014 351.961 362.014 348.249V348.235C362.014 344.872 363.415 342.903 365.808 342.903C367.462 342.903 368.693 343.874 369.028 345.33L369.048 345.419H367.811L367.783 345.344C367.483 344.517 366.792 344.004 365.794 344.004C364.003 344.004 363.272 345.754 363.197 347.812C363.19 347.887 363.19 347.969 363.19 348.044H363.32C363.682 347.237 364.612 346.52 365.945 346.52C367.797 346.52 369.178 347.928 369.178 349.821V349.835C369.178 351.804 367.715 353.232 365.726 353.232ZM363.484 349.821C363.484 351.12 364.461 352.146 365.712 352.146C366.949 352.146 367.941 351.141 367.941 349.862V349.849C367.941 348.536 367.011 347.593 365.733 347.593C364.454 347.593 363.484 348.529 363.484 349.814V349.821Z" fill="#5B6466"/>
<path d="M424.817 102V93.5449H429.949V94.4941H425.871V97.4004H429.615V98.3379H425.871V102H424.817ZM431.555 102V95.6836H432.574V96.6211H432.668C432.908 95.959 433.5 95.5723 434.356 95.5723C434.549 95.5723 434.766 95.5957 434.865 95.6133V96.6035C434.655 96.5684 434.461 96.5449 434.239 96.5449C433.266 96.5449 432.574 97.1602 432.574 98.0859V102H431.555ZM436.664 94.4648C436.278 94.4648 435.961 94.1484 435.961 93.7617C435.961 93.375 436.278 93.0586 436.664 93.0586C437.051 93.0586 437.367 93.375 437.367 93.7617C437.367 94.1484 437.051 94.4648 436.664 94.4648ZM436.149 102V95.6836H437.168V102H436.149Z" fill="#5B6466"/>
<path d="M431.01 146.281C428.705 146.281 427.151 144.875 427.002 143.023L426.994 142.922H428.854L428.862 142.977C429.01 143.898 429.862 144.633 431.018 144.633C432.338 144.633 433.244 143.703 433.244 142.375V142.359C433.244 141.047 432.323 140.125 431.033 140.125C430.401 140.125 429.854 140.312 429.44 140.688C429.237 140.859 429.049 141.078 428.916 141.328H427.19L427.737 134.727H434.502V136.383H429.307L428.994 139.812H429.127C429.596 139.055 430.471 138.602 431.533 138.602C433.635 138.602 435.158 140.164 435.158 142.32V142.336C435.158 144.68 433.448 146.281 431.01 146.281Z" fill="#192325"/>
<path d="M422.839 167.991V166.836C421.212 166.686 419.865 165.694 419.811 164.108V164.102L421 164.095V164.108C421.123 164.956 421.65 165.633 422.839 165.763V162.475L422.682 162.434C420.98 162.023 420.064 161.265 420.064 159.925V159.911C420.064 158.448 421.219 157.45 422.839 157.3V156.145H423.659V157.3C425.239 157.443 426.462 158.469 426.517 159.973V159.979L425.327 159.986V159.973C425.239 159.057 424.582 158.489 423.659 158.373V161.511L423.871 161.559C425.628 161.982 426.613 162.707 426.613 164.136V164.149C426.613 165.79 425.273 166.713 423.659 166.843V167.991H422.839ZM421.253 159.843C421.253 160.506 421.663 161.025 422.839 161.312V158.373C421.8 158.517 421.253 159.173 421.253 159.829V159.843ZM423.7 162.68L423.659 162.673V165.776C424.931 165.674 425.423 165.031 425.423 164.245V164.231C425.423 163.486 425.054 163.008 423.7 162.68ZM431.158 167V158.503H431.049L428.54 160.321V159.022L431.165 157.136H432.389V167H431.158ZM438.726 167.232C436.921 167.232 435.014 165.961 435.014 162.249V162.235C435.014 158.872 436.415 156.903 438.808 156.903C440.462 156.903 441.693 157.874 442.028 159.33L442.048 159.419H440.811L440.783 159.344C440.483 158.517 439.792 158.004 438.794 158.004C437.003 158.004 436.272 159.754 436.197 161.812C436.19 161.887 436.19 161.969 436.19 162.044H436.32C436.682 161.237 437.612 160.52 438.945 160.52C440.797 160.52 442.178 161.928 442.178 163.821V163.835C442.178 165.804 440.715 167.232 438.726 167.232ZM436.484 163.821C436.484 165.12 437.461 166.146 438.712 166.146C439.949 166.146 440.941 165.141 440.941 163.862V163.849C440.941 162.536 440.011 161.593 438.733 161.593C437.454 161.593 436.484 162.529 436.484 163.814V163.821Z" fill="#192325"/>
<path d="M425.893 208V198.711H425.76L422.955 200.695V198.797L425.901 196.727H427.908V208H425.893ZM431.041 208V206.641L434.744 202.859C436.276 201.312 436.705 200.742 436.705 199.875V199.852C436.705 198.812 435.994 198.062 434.823 198.062C433.627 198.062 432.823 198.852 432.823 200.016L432.815 200.047L430.94 200.039L430.932 200.016C430.932 197.914 432.573 196.445 434.924 196.445C437.119 196.445 438.698 197.781 438.698 199.68V199.703C438.698 200.984 438.08 202 436.026 203.977L433.768 206.164V206.328H438.869V208H431.041Z" fill="#192325"/>
<path d="M422.839 229.991V228.836C421.212 228.686 419.865 227.694 419.811 226.108V226.102L421 226.095V226.108C421.123 226.956 421.65 227.633 422.839 227.763V224.475L422.682 224.434C420.98 224.023 420.064 223.265 420.064 221.925V221.911C420.064 220.448 421.219 219.45 422.839 219.3V218.145H423.659V219.3C425.239 219.443 426.462 220.469 426.517 221.973V221.979L425.327 221.986V221.973C425.239 221.057 424.582 220.489 423.659 220.373V223.511L423.871 223.559C425.628 223.982 426.613 224.707 426.613 226.136V226.149C426.613 227.79 425.273 228.713 423.659 228.843V229.991H422.839ZM421.253 221.843C421.253 222.506 421.663 223.025 422.839 223.312V220.373C421.8 220.517 421.253 221.173 421.253 221.829V221.843ZM423.7 224.68L423.659 224.673V227.776C424.931 227.674 425.423 227.031 425.423 226.245V226.231C425.423 225.486 425.054 225.008 423.7 224.68ZM431.158 229V220.503H431.049L428.54 222.321V221.022L431.165 219.136H432.389V229H431.158ZM438.726 229.232C436.921 229.232 435.014 227.961 435.014 224.249V224.235C435.014 220.872 436.415 218.903 438.808 218.903C440.462 218.903 441.693 219.874 442.028 221.33L442.048 221.419H440.811L440.783 221.344C440.483 220.517 439.792 220.004 438.794 220.004C437.003 220.004 436.272 221.754 436.197 223.812C436.19 223.887 436.19 223.969 436.19 224.044H436.32C436.682 223.237 437.612 222.52 438.945 222.52C440.797 222.52 442.178 223.928 442.178 225.821V225.835C442.178 227.804 440.715 229.232 438.726 229.232ZM436.484 225.821C436.484 227.12 437.461 228.146 438.712 228.146C439.949 228.146 440.941 227.141 440.941 225.862V225.849C440.941 224.536 440.011 223.593 438.733 223.593C437.454 223.593 436.484 224.529 436.484 225.814V225.821Z" fill="#5B6466"/>
<path d="M425.588 270V260.711H425.455L422.651 262.695V260.797L425.596 258.727H427.604V270H425.588ZM434.737 258.445C437.143 258.445 439.237 260.156 439.237 264.219V264.234C439.237 268.031 437.526 270.281 434.69 270.281C432.619 270.281 431.073 269.055 430.713 267.328L430.698 267.242H432.682L432.705 267.32C433.002 268.109 433.698 268.625 434.69 268.625C436.479 268.625 437.237 266.875 437.323 264.719C437.323 264.633 437.33 264.547 437.33 264.461H437.174C436.76 265.352 435.776 266.141 434.229 266.141C432.065 266.141 430.549 264.562 430.549 262.422V262.406C430.549 260.117 432.291 258.445 434.737 258.445ZM434.729 264.594C436.002 264.594 436.979 263.672 436.979 262.398V262.383C436.979 261.094 436.002 260.086 434.752 260.086C433.51 260.086 432.518 261.078 432.518 262.336V262.352C432.518 263.656 433.448 264.594 434.729 264.594Z" fill="#192325"/>
<path d="M420.371 291V282.503H420.262L417.753 284.321V283.022L420.378 281.136H421.602V291H420.371ZM427.939 291.232C426.134 291.232 424.227 289.961 424.227 286.249V286.235C424.227 282.872 425.628 280.903 428.021 280.903C429.675 280.903 430.906 281.874 431.24 283.33L431.261 283.419H430.024L429.996 283.344C429.696 282.517 429.005 282.004 428.007 282.004C426.216 282.004 425.485 283.754 425.409 285.812C425.403 285.887 425.403 285.969 425.403 286.044H425.532C425.895 285.237 426.824 284.52 428.157 284.52C430.01 284.52 431.391 285.928 431.391 287.821V287.835C431.391 289.804 429.928 291.232 427.939 291.232ZM425.697 287.821C425.697 289.12 426.674 290.146 427.925 290.146C429.162 290.146 430.154 289.141 430.154 287.862V287.849C430.154 286.536 429.224 285.593 427.946 285.593C426.667 285.593 425.697 286.529 425.697 287.814V287.821ZM436.75 287.452V286.632H438.097C438.083 286.454 438.076 286.263 438.076 286.071V286.058C438.076 285.853 438.083 285.661 438.104 285.47H436.75V284.649H438.234C438.794 282.339 440.763 281.279 443.005 281.279C443.518 281.279 444.188 281.334 444.475 281.43V282.537C444.174 282.462 443.518 282.414 443.005 282.414C441.358 282.414 440.038 283.125 439.546 284.649H443.217V285.47H439.375C439.355 285.661 439.341 285.866 439.341 286.078V286.092C439.341 286.276 439.348 286.461 439.368 286.632H443.217V287.452H439.526C440.004 289.004 441.337 289.722 443.005 289.722C443.518 289.722 444.174 289.688 444.475 289.599V290.706C444.195 290.809 443.518 290.856 443.005 290.856C440.742 290.856 438.774 289.776 438.227 287.452H436.75Z" fill="#5B6466"/>
<path d="M421.752 332V330.641L425.455 326.859C426.987 325.312 427.416 324.742 427.416 323.875V323.852C427.416 322.812 426.705 322.062 425.533 322.062C424.338 322.062 423.533 322.852 423.533 324.016L423.526 324.047L421.651 324.039L421.643 324.016C421.643 321.914 423.283 320.445 425.635 320.445C427.83 320.445 429.408 321.781 429.408 323.68V323.703C429.408 324.984 428.791 326 426.737 327.977L424.479 330.164V330.328H429.58V332H421.752ZM436.119 332.281C433.713 332.281 431.619 330.57 431.619 326.508V326.492C431.619 322.695 433.33 320.445 436.166 320.445C438.237 320.445 439.783 321.672 440.143 323.398L440.158 323.484H438.182L438.151 323.406C437.854 322.617 437.158 322.102 436.166 322.102C434.377 322.102 433.619 323.852 433.533 326.008C433.533 326.094 433.526 326.18 433.526 326.266H433.682C434.096 325.375 435.08 324.586 436.627 324.586C438.791 324.586 440.307 326.164 440.307 328.305V328.32C440.307 330.609 438.565 332.281 436.119 332.281ZM433.877 328.344C433.877 329.633 434.854 330.641 436.104 330.641C437.354 330.641 438.338 329.648 438.338 328.391V328.375C438.338 327.07 437.408 326.133 436.127 326.133C434.854 326.133 433.877 327.055 433.877 328.328V328.344Z" fill="#192325"/>
<path d="M420.419 353V344.503H420.31L417.801 346.321V345.022L420.426 343.136H421.65V353H420.419ZM427.802 353.232C425.621 353.232 424.323 351.243 424.323 348.071V348.058C424.323 344.886 425.621 342.903 427.802 342.903C429.983 342.903 431.295 344.886 431.295 348.058V348.071C431.295 351.243 429.983 353.232 427.802 353.232ZM427.802 352.159C429.217 352.159 430.058 350.587 430.058 348.071V348.058C430.058 345.542 429.217 343.983 427.802 343.983C426.387 343.983 425.56 345.542 425.56 348.058V348.071C425.56 350.587 426.387 352.159 427.802 352.159ZM436.702 349.452V348.632H438.049C438.035 348.454 438.029 348.263 438.029 348.071V348.058C438.029 347.853 438.035 347.661 438.056 347.47H436.702V346.649H438.186C438.746 344.339 440.715 343.279 442.957 343.279C443.47 343.279 444.14 343.334 444.427 343.43V344.537C444.126 344.462 443.47 344.414 442.957 344.414C441.31 344.414 439.99 345.125 439.498 346.649H443.169V347.47H439.327C439.307 347.661 439.293 347.866 439.293 348.078V348.092C439.293 348.276 439.3 348.461 439.321 348.632H443.169V349.452H439.478C439.956 351.004 441.289 351.722 442.957 351.722C443.47 351.722 444.126 351.688 444.427 351.599V352.706C444.147 352.809 443.47 352.856 442.957 352.856C440.695 352.856 438.726 351.776 438.179 349.452H436.702Z" fill="#5B6466"/>
<path d="M498.473 102.199C496.621 102.199 495.426 101.227 495.303 99.8496L495.297 99.7852H496.352L496.358 99.8496C496.434 100.693 497.313 101.227 498.531 101.227C499.68 101.227 500.518 100.635 500.518 99.7734V99.7676C500.518 99.0645 500.031 98.584 498.871 98.3262L497.934 98.1211C496.24 97.7461 495.508 96.9668 495.508 95.7422V95.7363C495.514 94.3359 496.739 93.3457 498.485 93.3457C500.172 93.3457 501.35 94.3418 501.438 95.6016L501.444 95.6836H500.389L500.377 95.6074C500.26 94.8633 499.557 94.3125 498.455 94.3184C497.401 94.3242 496.586 94.8223 496.586 95.707V95.7129C496.586 96.3867 497.049 96.8438 498.198 97.0957L499.135 97.3066C500.899 97.6992 501.596 98.4082 501.596 99.627V99.6328C501.596 101.215 500.36 102.199 498.473 102.199ZM504.959 102.111C503.758 102.111 502.85 101.385 502.85 100.236V100.225C502.85 99.0996 503.682 98.4492 505.153 98.3613L506.963 98.25V97.6758C506.963 96.8965 506.489 96.4746 505.545 96.4746C504.789 96.4746 504.291 96.7559 504.127 97.248L504.121 97.2656H503.102L503.108 97.2305C503.272 96.2402 504.233 95.5723 505.58 95.5723C507.121 95.5723 507.983 96.3633 507.983 97.6758V102H506.963V101.068H506.869C506.471 101.742 505.809 102.111 504.959 102.111ZM503.893 100.213C503.893 100.852 504.438 101.227 505.17 101.227C506.207 101.227 506.963 100.547 506.963 99.6445V99.0703L505.276 99.1758C504.315 99.2344 503.893 99.5742 503.893 100.201V100.213ZM512.09 102.047C510.789 102.047 510.244 101.566 510.244 100.359V96.5273H509.248V95.6836H510.244V94.0488H511.299V95.6836H512.682V96.5273H511.299V100.102C511.299 100.846 511.557 101.145 512.213 101.145C512.395 101.145 512.494 101.139 512.682 101.121V101.988C512.483 102.023 512.289 102.047 512.09 102.047Z" fill="#5B6466"/>
<path d="M504.088 146.281C501.682 146.281 499.588 144.57 499.588 140.508V140.492C499.588 136.695 501.299 134.445 504.135 134.445C506.205 134.445 507.752 135.672 508.112 137.398L508.127 137.484H506.151L506.119 137.406C505.823 136.617 505.127 136.102 504.135 136.102C502.346 136.102 501.588 137.852 501.502 140.008C501.502 140.094 501.494 140.18 501.494 140.266H501.651C502.065 139.375 503.049 138.586 504.596 138.586C506.76 138.586 508.276 140.164 508.276 142.305V142.32C508.276 144.609 506.533 146.281 504.088 146.281ZM501.846 142.344C501.846 143.633 502.823 144.641 504.073 144.641C505.323 144.641 506.307 143.648 506.307 142.391V142.375C506.307 141.07 505.377 140.133 504.096 140.133C502.823 140.133 501.846 141.055 501.846 142.328V142.344Z" fill="#192325"/>
<path d="M495.839 167.991V166.836C494.212 166.686 492.865 165.694 492.811 164.108V164.102L494 164.095V164.108C494.123 164.956 494.65 165.633 495.839 165.763V162.475L495.682 162.434C493.98 162.023 493.064 161.265 493.064 159.925V159.911C493.064 158.448 494.219 157.45 495.839 157.3V156.145H496.659V157.3C498.239 157.443 499.462 158.469 499.517 159.973V159.979L498.327 159.986V159.973C498.239 159.057 497.582 158.489 496.659 158.373V161.511L496.871 161.559C498.628 161.982 499.613 162.707 499.613 164.136V164.149C499.613 165.79 498.273 166.713 496.659 166.843V167.991H495.839ZM494.253 159.843C494.253 160.506 494.663 161.025 495.839 161.312V158.373C494.8 158.517 494.253 159.173 494.253 159.829V159.843ZM496.7 162.68L496.659 162.673V165.776C497.931 165.674 498.423 165.031 498.423 164.245V164.231C498.423 163.486 498.054 163.008 496.7 162.68ZM504.158 167V158.503H504.049L501.54 160.321V159.022L504.165 157.136H505.389V167H504.158ZM511.466 156.903C513.271 156.903 515.178 158.175 515.178 161.887V161.9C515.178 165.264 513.777 167.232 511.384 167.232C509.73 167.232 508.499 166.262 508.164 164.806L508.144 164.717H509.381L509.408 164.792C509.709 165.619 510.4 166.132 511.398 166.132C513.189 166.132 513.92 164.382 513.995 162.324C514.002 162.249 514.002 162.167 514.002 162.092H513.872C513.51 162.898 512.58 163.616 511.247 163.616C509.395 163.616 508.014 162.208 508.014 160.314V160.301C508.014 158.332 509.477 156.903 511.466 156.903ZM511.459 162.543C512.738 162.543 513.708 161.606 513.708 160.321V160.314C513.708 159.016 512.731 157.99 511.48 157.99C510.242 157.99 509.251 158.995 509.251 160.273V160.287C509.251 161.6 510.181 162.543 511.459 162.543Z" fill="#192325"/>
<path d="M498.69 208V198.711H498.557L495.752 200.695V198.797L498.698 196.727H500.705V208H498.69ZM507.916 208.227C505.448 208.227 503.83 206.883 503.682 204.953L503.674 204.859H505.596L505.604 204.945C505.713 205.898 506.596 206.578 507.916 206.578C509.221 206.578 510.088 205.852 510.088 204.805V204.789C510.088 203.602 509.213 202.945 507.768 202.945H506.44V201.445H507.729C508.971 201.445 509.799 200.742 509.799 199.758V199.742C509.799 198.711 509.104 198.102 507.901 198.102C506.713 198.102 505.893 198.734 505.791 199.742L505.783 199.82H503.908L503.916 199.734C504.088 197.781 505.627 196.5 507.901 196.5C510.221 196.5 511.729 197.711 511.729 199.477V199.492C511.729 200.891 510.721 201.82 509.369 202.102V202.141C511.026 202.297 512.127 203.281 512.127 204.844V204.859C512.127 206.844 510.416 208.227 507.916 208.227Z" fill="#192325"/>
<path d="M495.839 229.991V228.836C494.212 228.686 492.865 227.694 492.811 226.108V226.102L494 226.095V226.108C494.123 226.956 494.65 227.633 495.839 227.763V224.475L495.682 224.434C493.98 224.023 493.064 223.265 493.064 221.925V221.911C493.064 220.448 494.219 219.45 495.839 219.3V218.145H496.659V219.3C498.239 219.443 499.462 220.469 499.517 221.973V221.979L498.327 221.986V221.973C498.239 221.057 497.582 220.489 496.659 220.373V223.511L496.871 223.559C498.628 223.982 499.613 224.707 499.613 226.136V226.149C499.613 227.79 498.273 228.713 496.659 228.843V229.991H495.839ZM494.253 221.843C494.253 222.506 494.663 223.025 495.839 223.312V220.373C494.8 220.517 494.253 221.173 494.253 221.829V221.843ZM496.7 224.68L496.659 224.673V227.776C497.931 227.674 498.423 227.031 498.423 226.245V226.231C498.423 225.486 498.054 225.008 496.7 224.68ZM504.158 229V220.503H504.049L501.54 222.321V221.022L504.165 219.136H505.389V229H504.158ZM511.726 229.232C509.921 229.232 508.014 227.961 508.014 224.249V224.235C508.014 220.872 509.415 218.903 511.808 218.903C513.462 218.903 514.693 219.874 515.028 221.33L515.048 221.419H513.811L513.783 221.344C513.483 220.517 512.792 220.004 511.794 220.004C510.003 220.004 509.272 221.754 509.197 223.812C509.19 223.887 509.19 223.969 509.19 224.044H509.32C509.682 223.237 510.612 222.52 511.945 222.52C513.797 222.52 515.178 223.928 515.178 225.821V225.835C515.178 227.804 513.715 229.232 511.726 229.232ZM509.484 225.821C509.484 227.12 510.461 228.146 511.712 228.146C512.949 228.146 513.941 227.141 513.941 225.862V225.849C513.941 224.536 513.011 223.593 511.733 223.593C510.454 223.593 509.484 224.529 509.484 225.814V225.821Z" fill="#5B6466"/>
<path d="M494.768 270V268.641L498.471 264.859C500.002 263.312 500.432 262.742 500.432 261.875V261.852C500.432 260.812 499.721 260.062 498.549 260.062C497.354 260.062 496.549 260.852 496.549 262.016L496.541 262.047L494.666 262.039L494.658 262.016C494.658 259.914 496.299 258.445 498.651 258.445C500.846 258.445 502.424 259.781 502.424 261.68V261.703C502.424 262.984 501.807 264 499.752 265.977L497.494 268.164V268.328H502.596V270H494.768ZM508.963 270.281C506.283 270.281 504.674 268.008 504.674 264.367V264.352C504.674 260.711 506.283 258.445 508.963 258.445C511.643 258.445 513.268 260.711 513.268 264.352V264.367C513.268 268.008 511.643 270.281 508.963 270.281ZM508.963 268.648C510.401 268.648 511.237 267.039 511.237 264.367V264.352C511.237 261.68 510.401 260.086 508.963 260.086C507.526 260.086 506.705 261.68 506.705 264.352V264.367C506.705 267.039 507.526 268.648 508.963 268.648Z" fill="#192325"/>
<path d="M490.111 291V290.152L493.447 286.543C494.704 285.183 495.073 284.67 495.073 283.809V283.795C495.073 282.756 494.369 281.977 493.207 281.977C492.025 281.977 491.239 282.749 491.239 283.911L491.232 283.925L490.056 283.918L490.042 283.911C490.049 282.161 491.403 280.903 493.289 280.903C495.012 280.903 496.331 282.072 496.331 283.665V283.679C496.331 284.807 495.846 285.627 494.062 287.466L491.82 289.783V289.893H496.495V291H490.111ZM501.8 291.232C499.961 291.232 498.649 290.05 498.505 288.471L498.498 288.396H499.681L499.688 288.45C499.804 289.394 500.658 290.146 501.814 290.146C503.126 290.146 504.029 289.209 504.029 287.876V287.862C504.029 286.55 503.113 285.613 501.834 285.613C501.178 285.613 500.617 285.812 500.194 286.215C500.023 286.379 499.865 286.57 499.742 286.803H498.676L499.196 281.136H504.685V282.236H500.166L499.831 285.572H499.941C500.378 284.909 501.151 284.547 502.046 284.547C503.899 284.547 505.232 285.935 505.232 287.842V287.855C505.232 289.845 503.803 291.232 501.8 291.232ZM510.598 287.452V286.632H511.945C511.931 286.454 511.924 286.263 511.924 286.071V286.058C511.924 285.853 511.931 285.661 511.951 285.47H510.598V284.649H512.081C512.642 282.339 514.611 281.279 516.853 281.279C517.365 281.279 518.035 281.334 518.323 281.43V282.537C518.022 282.462 517.365 282.414 516.853 282.414C515.205 282.414 513.886 283.125 513.394 284.649H517.065V285.47H513.223C513.202 285.661 513.189 285.866 513.189 286.078V286.092C513.189 286.276 513.196 286.461 513.216 286.632H517.065V287.452H513.373C513.852 289.004 515.185 289.722 516.853 289.722C517.365 289.722 518.022 289.688 518.323 289.599V290.706C518.042 290.809 517.365 290.856 516.853 290.856C514.59 290.856 512.621 289.776 512.074 287.452H510.598Z" fill="#5B6466"/>
<path d="M495.354 332V330.641L499.057 326.859C500.588 325.312 501.018 324.742 501.018 323.875V323.852C501.018 322.812 500.307 322.062 499.135 322.062C497.94 322.062 497.135 322.852 497.135 324.016L497.127 324.047L495.252 324.039L495.244 324.016C495.244 321.914 496.885 320.445 499.237 320.445C501.432 320.445 503.01 321.781 503.01 323.68V323.703C503.01 324.984 502.393 326 500.338 327.977L498.08 330.164V330.328H503.182V332H495.354ZM505.908 332L510.807 322.5V322.375H504.994V320.727H512.838V322.406L508.018 332H505.908Z" fill="#192325"/>
<path d="M490.049 353V352.152L493.385 348.543C494.643 347.183 495.012 346.67 495.012 345.809V345.795C495.012 344.756 494.308 343.977 493.146 343.977C491.963 343.977 491.177 344.749 491.177 345.911L491.17 345.925L489.994 345.918L489.981 345.911C489.988 344.161 491.341 342.903 493.228 342.903C494.95 342.903 496.27 344.072 496.27 345.665V345.679C496.27 346.807 495.784 347.627 494 349.466L491.758 351.783V351.893H496.434V353H490.049ZM501.855 353.164C499.818 353.164 498.498 352.029 498.368 350.471L498.362 350.389H499.544L499.551 350.457C499.647 351.428 500.542 352.098 501.855 352.098C503.147 352.098 504.029 351.373 504.029 350.327V350.313C504.029 349.104 503.16 348.427 501.78 348.427H500.542V347.388H501.725C502.901 347.388 503.721 346.663 503.721 345.679V345.665C503.721 344.633 503.044 344.038 501.841 344.038C500.679 344.038 499.852 344.653 499.749 345.651L499.742 345.72H498.56L498.567 345.651C498.724 344.045 499.995 342.972 501.841 342.972C503.721 342.972 504.958 344.018 504.958 345.515V345.528C504.958 346.745 504.097 347.579 502.866 347.839V347.866C504.302 347.989 505.28 348.885 505.28 350.286V350.3C505.28 351.947 503.83 353.164 501.855 353.164ZM510.659 349.452V348.632H512.006C511.992 348.454 511.986 348.263 511.986 348.071V348.058C511.986 347.853 511.992 347.661 512.013 347.47H510.659V346.649H512.143C512.703 344.339 514.672 343.279 516.914 343.279C517.427 343.279 518.097 343.334 518.384 343.43V344.537C518.083 344.462 517.427 344.414 516.914 344.414C515.267 344.414 513.948 345.125 513.455 346.649H517.126V347.47H513.284C513.264 347.661 513.25 347.866 513.25 348.078V348.092C513.25 348.276 513.257 348.461 513.278 348.632H517.126V349.452H513.435C513.913 351.004 515.246 351.722 516.914 351.722C517.427 351.722 518.083 351.688 518.384 351.599V352.706C518.104 352.809 517.427 352.856 516.914 352.856C514.652 352.856 512.683 351.776 512.136 349.452H510.659Z" fill="#5B6466"/>
</g>
</g>
<g filter="url(#filter1_dd_7295_37984)">
<path d="M521 225C544.338 225 567.152 231.921 586.557 244.887C605.962 257.853 621.087 276.282 630.018 297.843C638.949 319.405 641.286 343.131 636.733 366.021C632.18 388.91 620.941 409.936 604.439 426.439C587.936 442.941 566.91 454.18 544.021 458.733C521.131 463.286 497.405 460.949 475.843 452.018C454.282 443.087 435.853 427.962 422.887 408.557C409.921 389.152 403 366.338 403 343L403 225L521 225Z" fill="#2D00B1"/>
</g>
<path d="M506.696 325H499.016V288.44H486.456V282.92C493.656 282.76 498.616 278.76 499.816 273.16H506.696V325ZM515.619 323.16L518.179 316.68C520.419 318.04 524.259 319.16 527.619 319.16C540.179 319.16 545.299 310.92 545.619 300.76C543.779 304.2 539.219 307.4 532.179 307.4C523.219 307.4 514.259 301.32 514.259 289.88C514.259 279.16 523.219 271.96 533.379 271.96C543.539 271.96 553.539 279.24 553.539 295.8C553.539 314.84 545.059 326.2 527.619 326.2C523.619 326.2 518.179 324.92 515.619 323.16ZM544.579 289.72C544.579 283 539.059 278.84 533.379 278.84C527.619 278.84 522.179 282.92 522.179 289.72C522.179 296.76 527.459 300.68 533.379 300.68C539.139 300.68 544.579 296.6 544.579 289.72Z" fill="white"/>
<rect x="484" y="341" width="64" height="46" rx="4" fill="#FFDC50"/>
<path d="M505.203 377.266V374.625C501.484 374.281 498.406 372.016 498.281 368.391V368.375L501 368.359V368.391C501.281 370.328 502.484 371.875 505.203 372.172V364.656L504.844 364.562C500.953 363.625 498.859 361.891 498.859 358.828V358.797C498.859 355.453 501.5 353.172 505.203 352.828V350.188H507.078V352.828C510.688 353.156 513.484 355.5 513.609 358.938V358.953L510.891 358.969V358.938C510.688 356.844 509.188 355.547 507.078 355.281V362.453L507.562 362.562C511.578 363.531 513.828 365.188 513.828 368.453V368.484C513.828 372.234 510.766 374.344 507.078 374.641V377.266H505.203ZM501.578 358.641C501.578 360.156 502.516 361.344 505.203 362V355.281C502.828 355.609 501.578 357.109 501.578 358.609V358.641ZM507.172 365.125L507.078 365.109V372.203C509.984 371.969 511.109 370.5 511.109 368.703V368.672C511.109 366.969 510.266 365.875 507.172 365.125ZM526.109 375.531C521.906 375.531 518.906 372.828 518.578 369.219L518.562 369.047H521.266L521.281 369.172C521.547 371.328 523.5 373.047 526.141 373.047C529.141 373.047 531.203 370.906 531.203 367.859V367.828C531.203 364.828 529.109 362.688 526.188 362.688C524.688 362.688 523.406 363.141 522.438 364.062C522.047 364.438 521.688 364.875 521.406 365.406H518.969L520.156 352.453H532.703V354.969H522.375L521.609 362.594H521.859C522.859 361.078 524.625 360.25 526.672 360.25C530.906 360.25 533.953 363.422 533.953 367.781V367.812C533.953 372.359 530.688 375.531 526.109 375.531Z" fill="#192325"/>
<rect x="481" y="399" width="73" height="24" rx="12" fill="#E2F6F0"/>
<path d="M493.57 415.211C491.174 415.211 489.686 413.512 489.686 410.781V410.77C489.686 408.027 491.168 406.334 493.564 406.334C495.486 406.334 496.945 407.553 497.145 409.281V409.328H495.662L495.656 409.305C495.439 408.303 494.631 407.641 493.564 407.641C492.129 407.641 491.232 408.842 491.232 410.764V410.775C491.232 412.703 492.129 413.904 493.57 413.904C494.643 413.904 495.439 413.307 495.656 412.375L495.662 412.346H497.145V412.387C496.922 414.08 495.521 415.211 493.57 415.211ZM498.738 415V406.117H500.197V409.574H500.297C500.602 408.889 501.217 408.473 502.143 408.473C503.572 408.473 504.352 409.334 504.352 410.857V415H502.893V411.197C502.893 410.201 502.488 409.697 501.604 409.697C500.736 409.697 500.197 410.307 500.197 411.268V415H498.738ZM508.816 415.129C506.912 415.129 505.758 413.852 505.758 411.812V411.807C505.758 409.791 506.924 408.473 508.746 408.473C510.568 408.473 511.693 409.75 511.693 411.684V412.164H507.217C507.234 413.312 507.855 413.98 508.846 413.98C509.637 413.98 510.088 413.582 510.229 413.289L510.246 413.248H511.635L511.617 413.301C511.412 414.127 510.557 415.129 508.816 415.129ZM508.764 409.615C507.949 409.615 507.34 410.166 507.229 411.186H510.27C510.17 410.137 509.578 409.615 508.764 409.615ZM514.898 415.105C513.68 415.105 512.795 414.355 512.795 413.189V413.178C512.795 412.035 513.668 411.367 515.227 411.273L516.873 411.174V410.623C516.873 409.984 516.457 409.633 515.672 409.633C515.004 409.633 514.57 409.873 514.424 410.295L514.418 410.318H513.041L513.047 410.266C513.188 409.188 514.219 408.473 515.742 408.473C517.389 408.473 518.314 409.27 518.314 410.623V415H516.873V414.121H516.773C516.422 414.742 515.742 415.105 514.898 415.105ZM514.236 413.119C514.236 413.664 514.699 413.986 515.344 413.986C516.223 413.986 516.873 413.412 516.873 412.65V412.135L515.432 412.229C514.617 412.281 514.236 412.58 514.236 413.107V413.119ZM520.066 417.127V408.596H521.525V409.598H521.625C521.977 408.9 522.674 408.49 523.57 408.49C525.176 408.49 526.201 409.768 526.201 411.795V411.807C526.201 413.846 525.193 415.105 523.57 415.105C522.691 415.105 521.959 414.672 521.625 413.98H521.525V417.127H520.066ZM523.113 413.875C524.109 413.875 524.713 413.09 524.713 411.807V411.795C524.713 410.506 524.109 409.721 523.113 409.721C522.123 409.721 521.508 410.506 521.508 411.789V411.801C521.508 413.084 522.123 413.875 523.113 413.875ZM530.414 415.129C528.51 415.129 527.355 413.852 527.355 411.812V411.807C527.355 409.791 528.521 408.473 530.344 408.473C532.166 408.473 533.291 409.75 533.291 411.684V412.164H528.814C528.832 413.312 529.453 413.98 530.443 413.98C531.234 413.98 531.686 413.582 531.826 413.289L531.844 413.248H533.232L533.215 413.301C533.01 414.127 532.154 415.129 530.414 415.129ZM530.361 409.615C529.547 409.615 528.938 410.166 528.826 411.186H531.867C531.768 410.137 531.176 409.615 530.361 409.615ZM537.17 415.129C535.541 415.129 534.557 414.379 534.434 413.295V413.283H535.881L535.887 413.295C536.039 413.74 536.467 414.051 537.193 414.051C537.92 414.051 538.424 413.723 538.424 413.242V413.23C538.424 412.855 538.143 412.609 537.439 412.451L536.402 412.217C535.184 411.947 534.604 411.373 534.604 410.43V410.424C534.604 409.27 535.658 408.473 537.17 408.473C538.729 408.473 539.66 409.246 539.754 410.283V410.295H538.383L538.377 410.277C538.271 409.873 537.85 409.545 537.164 409.545C536.514 409.545 536.045 409.861 536.045 410.342V410.348C536.045 410.723 536.314 410.951 537.006 411.109L538.043 411.338C539.297 411.619 539.889 412.152 539.889 413.084V413.096C539.889 414.314 538.746 415.129 537.17 415.129ZM543.832 415.029C542.361 415.029 541.758 414.537 541.758 413.301V409.727H540.762V408.596H541.758V407.025H543.24V408.596H544.594V409.727H543.24V412.955C543.24 413.594 543.492 413.863 544.102 413.863C544.307 413.863 544.418 413.857 544.594 413.84V414.965C544.383 415.006 544.113 415.029 543.832 415.029Z" fill="#0C732B"/>
<defs>
<filter id="filter0_dd_7295_37984" x="-15.9604" y="-12" width="601.96" height="562" filterUnits="userSpaceOnUse" color-interpolation-filters="sRGB">
<feFlood flood-opacity="0" result="BackgroundImageFix"/>
<feColorMatrix in="SourceAlpha" type="matrix" values="0 0 0 0 0 0 0 0 0 0 0 0 0 0 0 0 0 0 127 0" result="hardAlpha"/>
<feOffset dy="4"/>
<feGaussianBlur stdDeviation="8"/>
<feColorMatrix type="matrix" values="0 0 0 0 0.0980392 0 0 0 0 0.137255 0 0 0 0 0.145098 0 0 0 0.12 0"/>
<feBlend mode="normal" in2="BackgroundImageFix" result="effect1_dropShadow_7295_37984"/>
<feColorMatrix in="SourceAlpha" type="matrix" values="0 0 0 0 0 0 0 0 0 0 0 0 0 0 0 0 0 0 127 0" result="hardAlpha"/>
<feOffset/>
<feGaussianBlur stdDeviation="2"/>
<feColorMatrix type="matrix" values="0 0 0 0 0.0980392 0 0 0 0 0.137255 0 0 0 0 0.145098 0 0 0 0.12 0"/>
<feBlend mode="normal" in2="effect1_dropShadow_7295_37984" result="effect2_dropShadow_7295_37984"/>
<feBlend mode="normal" in="SourceGraphic" in2="effect2_dropShadow_7295_37984" result="shape"/>
</filter>
<filter id="filter1_dd_7295_37984" x="395" y="221" width="252" height="252" filterUnits="userSpaceOnUse" color-interpolation-filters="sRGB">
<feFlood flood-opacity="0" result="BackgroundImageFix"/>
<feColorMatrix in="SourceAlpha" type="matrix" values="0 0 0 0 0 0 0 0 0 0 0 0 0 0 0 0 0 0 127 0" result="hardAlpha"/>
<feOffset dy="4"/>
<feGaussianBlur stdDeviation="4"/>
<feColorMatrix type="matrix" values="0 0 0 0 0.0980392 0 0 0 0 0.137255 0 0 0 0 0.145098 0 0 0 0.12 0"/>
<feBlend mode="normal" in2="BackgroundImageFix" result="effect1_dropShadow_7295_37984"/>
<feColorMatrix in="SourceAlpha" type="matrix" values="0 0 0 0 0 0 0 0 0 0 0 0 0 0 0 0 0 0 127 0" result="hardAlpha"/>
<feOffset/>
<feGaussianBlur stdDeviation="2"/>
<feColorMatrix type="matrix" values="0 0 0 0 0.0980392 0 0 0 0 0.137255 0 0 0 0 0.145098 0 0 0 0.12 0"/>
<feBlend mode="normal" in2="effect1_dropShadow_7295_37984" result="effect2_dropShadow_7295_37984"/>
<feBlend mode="normal" in="SourceGraphic" in2="effect2_dropShadow_7295_37984" result="shape"/>
</filter>
<clipPath id="clip0_7295_37984">
<rect width="570" height="393" fill="white"/>
</clipPath>
</defs>
</svg>
