
<svg width="317" height="290" viewBox="0 0 317 290" fill="none" xmlns="http://www.w3.org/2000/svg">
<mask id="mask0_7405_813" style="mask-type:alpha" maskUnits="userSpaceOnUse" x="0" y="0" width="318" height="290">
<rect width="317.343" height="290" fill="#D9D9D9"/>
</mask>
<g mask="url(#mask0_7405_813)">
<mask id="mask1_7405_813" style="mask-type:alpha" maskUnits="userSpaceOnUse" x="-40" y="7" width="343" height="283">
<path d="M-40 178.5C-40 83.7832 36.7832 7 131.5 7C226.217 7 303 83.7832 303 178.5L303 281.577C303 286.229 299.229 290 294.577 290L-31.5774 290C-36.2291 290 -40 286.229 -40 281.577L-40 178.5Z" fill="white"/>
</mask>
<g mask="url(#mask1_7405_813)">
<path fill-rule="evenodd" clip-rule="evenodd" d="M79.9922 81.0072L101.039 77.3266C106.847 76.3108 110.737 70.772 109.722 64.9632L106.041 43.9167C105.025 38.1079 99.4864 34.2179 93.6776 35.2337L72.6311 38.9143C66.8223 39.9301 62.9323 45.4689 63.9482 51.2777L67.6287 72.3242C68.6445 78.133 74.1834 82.023 79.9922 81.0072Z" fill="#FFEDEE"/>
<path fill-rule="evenodd" clip-rule="evenodd" d="M104.72 98.3734C105.736 104.182 111.274 108.072 117.083 107.056L127.607 105.216L169.699 97.8551C181.328 95.8216 189.097 84.7457 187.065 73.1281L185.225 62.6049C184.2 56.7434 178.584 52.8453 172.735 53.944C166.981 55.0261 161.507 51.0057 160.498 45.2389L156.818 24.1925C155.809 18.4258 150.334 14.4053 144.58 15.4874C138.732 16.5861 133.116 12.688 132.091 6.82656C131.075 1.01774 125.536 -2.87223 119.727 -1.85641C113.918 -0.840586 110.028 4.69825 111.044 10.5071L114.725 31.5535C115.741 37.3623 121.279 41.2523 127.088 40.2365C132.897 39.2207 138.436 43.1106 139.452 48.9195C140.467 54.7283 136.578 60.2671 130.769 61.2829C124.96 62.2988 121.07 67.8376 122.086 73.6464C123.094 79.4132 119.309 85.053 113.54 85.986C107.655 86.9392 103.695 92.512 104.72 98.3734Z" fill="#FFEDEE"/>
<path fill-rule="evenodd" clip-rule="evenodd" d="M212.081 -93.9222L213.922 -83.399L215.762 -72.8757C216.778 -67.0669 212.888 -61.5281 207.079 -60.5122L196.556 -58.672C184.938 -56.6403 177.158 -45.5627 179.19 -33.945L181.03 -23.4218L182.87 -12.8986L184.711 -2.37534C185.726 3.43348 191.265 7.32345 197.074 6.30763C202.883 5.29181 206.773 -0.247034 205.757 -6.05585C204.741 -11.8647 208.631 -17.4035 214.44 -18.4193C220.249 -19.4352 225.788 -15.5452 226.804 -9.73637L228.447 -0.339124C230.28 10.142 239.146 18.6122 249.796 18.4851C263.346 18.3279 272.973 6.21154 270.737 -6.57418L257.855 -80.2368C256.839 -86.0456 260.729 -91.5844 266.538 -92.6002C272.347 -93.6161 277.885 -89.7261 278.901 -83.9173L280.545 -74.52C282.378 -64.0389 291.242 -55.5792 301.894 -55.6958C315.444 -55.853 325.07 -67.9694 322.834 -80.7551C320.803 -92.3727 328.583 -103.45 340.2 -105.482L364.605 -114.112C376.088 -164.931 278.176 -145.119 233.846 -146.52C217.606 -134.95 208.419 -114.863 212.081 -93.9222Z" fill="#FFEDEE"/>
<path fill-rule="evenodd" clip-rule="evenodd" d="M310.921 -24.8593C312.215 -18.7629 308.081 -12.8779 301.906 -12.0365C296.313 -11.2753 292.651 -5.29923 293.625 0.267553L295.465 10.7908C297.498 22.4189 289.727 33.4843 278.099 35.5178L246.529 41.0385C240.773 42.0452 235.133 38.2596 234.19 32.4924C233.235 26.597 227.664 22.6476 221.802 23.6726C215.994 24.6884 212.104 30.2273 213.119 36.0361C214.144 41.8975 210.195 47.4684 204.31 48.4216C198.531 49.3564 194.745 54.9963 195.753 60.7631L199.444 81.8077C200.418 87.3745 196.756 93.3506 191.163 94.1117C184.988 94.9531 180.846 100.85 182.15 106.945C183.332 112.464 178.952 117.926 173.385 118.9L120.769 128.101L110.246 129.942C104.437 130.957 100.547 136.496 101.563 142.305C102.586 148.156 108.204 152.065 114.063 150.964C119.817 149.882 125.281 153.904 126.29 159.671L129.97 180.717C130.986 186.526 127.107 192.063 121.287 193.081L89.7176 198.602C78.0999 200.633 70.32 211.711 72.3516 223.329L74.1919 233.852C75.2022 239.629 71.408 245.281 65.6036 246.199C59.7362 247.127 55.8133 252.726 56.826 258.579L60.5065 279.625C61.48 285.192 66.9525 289.571 72.4719 288.389C78.5665 287.084 84.4533 291.228 85.3034 297.391C86.0559 302.997 92.0407 306.646 97.5969 305.674L132.787 299.52C143.952 297.568 153.879 291.266 160.39 281.983L172.667 264.501C180.536 253.31 183.62 239.442 181.264 225.972C180.249 220.164 184.139 214.625 189.947 213.609L221.517 208.088L221.549 208.083C233.44 206.003 239.922 194.697 238.797 182.682C238.166 175.852 246.201 171.442 251.656 175.965L297.088 224.23C299.413 225.863 300.975 228.344 301.462 231.133L304.381 247.823C305.397 253.631 310.936 257.521 316.744 256.506C322.564 255.488 326.443 249.951 325.427 244.142L321.747 223.096L327.929 227.437C331.352 229.832 336.066 229.007 338.452 225.597C340.859 222.183 340.034 217.468 336.612 215.074L318.066 202.049L288.221 181.088C283.585 177.832 280.428 172.864 279.452 167.287L277.295 154.954C276.28 149.145 280.17 143.606 285.978 142.59C291.798 141.573 297.326 145.464 298.342 151.273L300.375 162.901C302.171 173.172 311.147 180.029 321.564 180.561C336.172 181.303 348.85 192.035 351.476 207.052C352.5 212.902 358.118 216.811 363.977 215.711C369.73 214.629 375.195 218.651 376.203 224.417L379.884 245.464C380.9 251.273 386.438 255.163 392.247 254.147C398.067 253.129 401.946 247.592 400.93 241.783L395.41 210.214L395.218 209.119C393.42 198.838 399.546 189.34 409.165 185.305C422.643 179.651 430.927 165.253 428.301 150.237L426.461 139.713L422.78 118.667C420.749 107.049 428.529 95.9716 440.146 93.9399L481.397 86.7261C477.755 45.8049 464.22 5.18208 440.006 -31.5127C434.603 -39.7103 428.758 -47.4617 422.612 -54.8243L319.674 -36.8229C314.117 -35.8512 309.737 -30.3893 310.921 -24.8593Z" fill="#FFEDEE"/>
<path fill-rule="evenodd" clip-rule="evenodd" d="M283.332 251.504L262.285 255.185C256.476 256.201 252.586 261.74 253.602 267.548C254.618 273.357 260.157 277.247 265.966 276.231L287.012 272.551C292.821 271.535 296.711 265.996 295.695 260.187C294.679 254.379 289.14 250.489 283.332 251.504Z" fill="#FFEDEE"/>
<path d="M172.453 144.838L162.805 81.3607" stroke="#F9DF30" stroke-width="4" stroke-linecap="round"/>
<path d="M117.609 255.034L165.852 231.675L179.709 208.43C180.905 206.423 182.919 205.04 185.221 204.643L211.047 200.19L249.642 156.01L285.443 194.921" stroke="#F9DF30" stroke-width="4" stroke-linecap="round"/>
<path d="M171.946 145.346L202.922 169.721L210.54 201.206" stroke="#F9DF30" stroke-width="4" stroke-linecap="round"/>
<path d="M172.453 145.854L202.922 105.228L246.595 84.4075" stroke="#F9DF30" stroke-width="4" stroke-linecap="round"/>
<circle cx="172.365" cy="145.351" r="9.61175" fill="#00A88F"/>
<circle cx="172.365" cy="145.35" r="4.80587" fill="white"/>
<circle cx="201.561" cy="105.786" r="9.61175" fill="#00A88F"/>
<circle cx="201.562" cy="105.785" r="4.80587" fill="white"/>
<circle cx="250.259" cy="156.697" r="9.61175" fill="#00A88F"/>
<circle cx="250.259" cy="156.697" r="4.80587" fill="white"/>
<circle cx="209.712" cy="196.869" r="9.61175" fill="#00A88F"/>
<circle cx="209.712" cy="196.868" r="4.80587" fill="white"/>
<circle cx="246.055" cy="84.4763" r="9.61175" fill="#00A88F"/>
<circle cx="246.055" cy="84.476" r="4.80587" fill="white"/>
<circle cx="285.526" cy="194.797" r="9.61175" fill="#00A88F"/>
<circle cx="285.526" cy="194.797" r="4.80587" fill="white"/>
<circle cx="165.956" cy="231.857" r="9.61175" fill="#00A88F"/>
<circle cx="165.957" cy="231.856" r="4.80587" fill="white"/>
<circle cx="117.447" cy="255.199" r="9.61175" fill="#00A88F"/>
<circle cx="117.447" cy="255.199" r="4.80587" fill="white"/>
<circle cx="162.753" cy="81.2724" r="9.61175" fill="#00A88F"/>
<circle cx="162.753" cy="81.272" r="4.80587" fill="white"/>
</g>
</g>
</svg>
